<svg id="Calque_1" data-name="Calque 1" xmlns="http://www.w3.org/2000/svg" viewBox="0 0 169 41.47"><defs><style>.cls-1{fill:#fff;}.cls-2{fill:#4cadaf;}.cls-3{fill:#bed630;}.cls-4{fill:#44a548;}.cls-5{fill:#ea1858;}.cls-6{fill:#6f294b;}.cls-7{fill:#b5202e;}.cls-8{fill:#612e2c;}</style></defs><title>LOGO-caletre</title><path class="cls-1" d="M50.87,41.61V35.53h3.28v.81H51.76v1.8h2.39V39H51.76V40.8h2.39v.81Z" transform="translate(-0.54 -0.48)"/><path class="cls-1" d="M59.31,39.29l-1.53,2.32h-1l2-3-2-3H57.8l1.51,2.3,1.52-2.3h1.05l-2,3,2,3h-1Z" transform="translate(-0.54 -0.48)"/><path class="cls-1" d="M65.45,41.61h-.89V35.53h1.76c1.45,0,2.14.76,2.14,1.84s-.69,1.84-2.14,1.84h-.87Zm0-3.21h.87c1,0,1.25-.58,1.25-1s-.24-1-1.25-1h-.87Z" transform="translate(-0.54 -0.48)"/><path class="cls-1" d="M71.2,41.61V35.53h3.28v.81H72.09v1.8h2.39V39H72.09V40.8h2.39v.81Z" transform="translate(-0.54 -0.48)"/><path class="cls-1" d="M80.43,41.61l-2-2.82h0v2.82h-.89V35.53H79.4A2.16,2.16,0,0,1,81,36a2,2,0,0,1,.56,1.44,1.74,1.74,0,0,1-1.74,1.86l1.7,2.27Zm-2-2.94H79c.37,0,1.68,0,1.68-1.19,0-.51-.35-1.14-1.35-1.14h-.93Z" transform="translate(-0.54 -0.48)"/><path class="cls-1" d="M85.26,41.61V36.34H84.09v-.81h3.22v.81H86.15v5.27Z" transform="translate(-0.54 -0.48)"/><path class="cls-1" d="M90,41.61V35.53h.89v6.08Z" transform="translate(-0.54 -0.48)"/><path class="cls-1" d="M94.62,39.81a1,1,0,0,0,1,1.1,1,1,0,0,0,1-1c0-.69-.56-.83-1-1a3.18,3.18,0,0,1-1.29-.68,1.6,1.6,0,0,1-.41-1.14,1.66,1.66,0,0,1,1.7-1.65,1.63,1.63,0,0,1,1.74,1.69h-.89a.82.82,0,0,0-.85-.88.83.83,0,0,0-.81.83c0,.58.55.74.81.84.76.29,1.86.52,1.86,2a1.77,1.77,0,0,1-1.86,1.84,1.82,1.82,0,0,1-1.87-1.92Z" transform="translate(-0.54 -0.48)"/><path class="cls-1" d="M100.27,41.61V35.53h3.28v.81h-2.39v1.8h2.39V39h-2.39V40.8h2.39v.81Z" transform="translate(-0.54 -0.48)"/><path class="cls-1" d="M114.71,39.88l1.23,1.25-.6.6-1.06-1.07a2.12,2.12,0,0,1-1.76,1.07,1.82,1.82,0,0,1-1.86-1.82,1.84,1.84,0,0,1,1.17-1.73,1.63,1.63,0,0,1-.59-1.21,1.52,1.52,0,0,1,1.54-1.55A1.5,1.5,0,0,1,114.29,37a1.56,1.56,0,0,1-1,1.46l.81.79.66-1.34h1Zm-2.3-1.1a1.14,1.14,0,0,0-.86,1.13,1,1,0,0,0,1,1,1.38,1.38,0,0,0,1.17-.87Zm1-1.84a.65.65,0,0,0-.63-.71.67.67,0,0,0-.64.74c0,.25.1.48.52.86C113.11,37.59,113.4,37.39,113.4,36.94Z" transform="translate(-0.54 -0.48)"/><path class="cls-1" d="M127.54,37.09a2.2,2.2,0,0,0-1.71-.86,2.29,2.29,0,0,0-2.26,2.33,2.33,2.33,0,0,0,2.25,2.35,2.17,2.17,0,0,0,1.65-.8h1.1a3.15,3.15,0,0,1-2.76,1.62,3.18,3.18,0,0,1-3.13-3.18,3.12,3.12,0,0,1,3.14-3.13,3.19,3.19,0,0,1,1.85.59,3,3,0,0,1,.94,1.08Z" transform="translate(-0.54 -0.48)"/><path class="cls-1" d="M134.32,41.73a3.16,3.16,0,1,1,3.16-3.14A3.16,3.16,0,0,1,134.32,41.73Zm0-5.5a2.34,2.34,0,1,0,2.27,2.37A2.3,2.3,0,0,0,134.32,36.23Z" transform="translate(-0.54 -0.48)"/><path class="cls-1" d="M144.37,41.61l-3-4.7h0v4.7h-.88V35.53h1l2.95,4.63h0V35.53h.89v6.08Z" transform="translate(-0.54 -0.48)"/><path class="cls-1" d="M149,39.81a1,1,0,0,0,1,1.1,1,1,0,0,0,1-1c0-.69-.56-.83-1-1a3.18,3.18,0,0,1-1.29-.68,1.6,1.6,0,0,1-.41-1.14,1.66,1.66,0,0,1,1.7-1.65,1.63,1.63,0,0,1,1.74,1.69h-.89a.82.82,0,0,0-.85-.88.83.83,0,0,0-.81.83c0,.58.55.74.81.84.76.29,1.86.52,1.86,2A1.77,1.77,0,0,1,150,41.73a1.82,1.82,0,0,1-1.87-1.92Z" transform="translate(-0.54 -0.48)"/><path class="cls-1" d="M154.63,41.61V35.53h3.28v.81h-2.39v1.8h2.39V39h-2.39V40.8h2.39v.81Z" transform="translate(-0.54 -0.48)"/><path class="cls-1" d="M161,41.61V35.53h.89v6.08Z" transform="translate(-0.54 -0.48)"/><path class="cls-1" d="M165.23,41.61V35.53h.88V40.8h2.12v.81Z" transform="translate(-0.54 -0.48)"/><path class="cls-1" d="M83.33,12.26a10,10,0,0,0-11.35,0,9.89,9.89,0,0,0-4.22,7.54l-3.9,3.91a6.52,6.52,0,0,0-.47.47l-.77.76a5.71,5.71,0,0,1-3.82,1.42,6.3,6.3,0,0,1-2.89-.74,6,6,0,0,1-3.09-5.2,6.47,6.47,0,0,1,.87-3.12,6,6,0,0,1,5-2.86,5.85,5.85,0,0,1,5,2.69c.07,0,1.39-.79,4-2.36l-.1-.17q-4-4.11-8.78-4.11a9.89,9.89,0,0,0-10,9.89,10.16,10.16,0,0,0,2,6.07,9.84,9.84,0,0,0,7.86,3.86h.12a9.68,9.68,0,0,0,6.16-2.22,14,14,0,0,0,1.56-1.56l2-2a11.82,11.82,0,0,0,1.1,1.9,9.77,9.77,0,0,0,7.71,3.9H78a9.68,9.68,0,0,0,5.64-1.95v1.95h4V20.42h0A9.84,9.84,0,0,0,83.33,12.26Zm.27,8.34a5.91,5.91,0,0,1-5.77,5.76h-.26a5.74,5.74,0,0,1-2.72-.7,5.94,5.94,0,0,1-3.17-5.28,6.13,6.13,0,0,1,1.13-3.44,5.91,5.91,0,0,1,4.81-2.5,6.19,6.19,0,0,1,3,.83,5.87,5.87,0,0,1,2.94,5.06Z" transform="translate(-0.54 -0.48)"/><path class="cls-1" d="M91.15,24.48a9.91,9.91,0,0,0,2.92,3.57h.05A13.16,13.16,0,0,0,102,30.31h18.22V26.36H110.3a5.91,5.91,0,0,1-2.68-.64,5.81,5.81,0,0,1-2.91-3.36H120a13.48,13.48,0,0,0,.2-2A10.09,10.09,0,0,0,117.89,14a9.92,9.92,0,0,0-15.51,12.37H102q-5.73,0-7.45-4a5.7,5.7,0,0,1-.48-2.17V.48H90.12V20.4a11.24,11.24,0,0,0,1,4.08m13.56-6.05.39-1a6,6,0,0,1,5.17-3,6.73,6.73,0,0,1,3,.74,6.11,6.11,0,0,1,2.67,3.25Z" transform="translate(-0.54 -0.48)"/><path class="cls-1" d="M156.94,25.72A5.82,5.82,0,0,1,154,22.36h15.31a11.14,11.14,0,0,0,.21-2A10.09,10.09,0,0,0,167.2,14a9.84,9.84,0,0,0-7.53-3.5h-10.8A13.19,13.19,0,0,0,141,12.74H141A10.16,10.16,0,0,0,137,20.4v6h-2.2c-3.82,0-6.3-1.33-7.46-4a5.87,5.87,0,0,1-.47-2.17V14.44h8.64V10.49h-8.64V.48h-4V20.4a10.16,10.16,0,0,0,4,7.65h0a13.12,13.12,0,0,0,7.71,2.26H141V20.6a5.71,5.71,0,0,1,.47-2.17c1.15-2.66,3.64-4,7.45-4h2.84a9.54,9.54,0,0,0-2,6A10,10,0,0,0,152,26.8a9.78,9.78,0,0,0,7.56,3.51h10V26.36h-9.93A5.86,5.86,0,0,1,156.94,25.72Zm5.59-10.54a6.11,6.11,0,0,1,2.67,3.25H154l.39-1a6,6,0,0,1,5.17-3A6.73,6.73,0,0,1,162.53,15.18Z" transform="translate(-0.54 -0.48)"/><rect class="cls-1" x="155.02" width="8.64" height="3.95"/><path class="cls-2" d="M13.09,37.85c-1.75-2.09-1.58-4.29-.84-5.33,1.15-1.59,5.64-1.45,7.62-2.4s1.7-4.8,1.7-8.78C18,18.83,18.49,8.27,20.06,5.54a6.24,6.24,0,0,1,.5-.72h0C16.5-.2,8.84,1.67,5.46,4.19-1.29,10-.67,31.68,4.73,37.53c2.62,3.24,7.68,3.88,12.64,3.55.52,0,1-.08,1.55-.14C16.23,40.18,14.11,39.07,13.09,37.85Z" transform="translate(-0.54 -0.48)"/><path class="cls-3" d="M24.37,12.42c3.62-2.31,10.34-.86,12.21.58,1.49,1.15,2.2,3.57,2.51,7.06,1.69-3.3,2.34-11.6.38-14.76C37.31,1.81,33.59,1.15,31.09.9,26.58.45,22.45,2.4,20.56,4.82,22.17,6.17,21.77,9.88,24.37,12.42Z" transform="translate(-0.54 -0.48)"/><path class="cls-4" d="M21.57,21.34a18,18,0,0,1,.89-6.67,4.86,4.86,0,0,1,1.91-2.25c-2.6-2.54-2.2-6.25-3.81-7.6a6.24,6.24,0,0,0-.5.72C18.49,8.27,18,18.83,21.57,21.34Z" transform="translate(-0.54 -0.48)"/><path class="cls-5" d="M38.55,20.89c-1,1.2-4.33,1.92-7.83,2.05.46,4.73,0,9.94-.95,12-1.76,3.82-6.14,5.47-10.85,6a28.51,28.51,0,0,0,8.89,1c3.73-.18,7-1.62,9-4.9,1.52-2.4,2.42-5.78,2.44-10.39,0-2.49,0-4.69-.2-6.57A4.26,4.26,0,0,1,38.55,20.89Z" transform="translate(-0.54 -0.48)"/><path class="cls-6" d="M29.77,34.92c.94-2,1.41-7.25.95-12-3.52.13-7.25-.34-9.09-1.55l-.06-.05c0,4,.37,7.79-1.7,8.78s-6.47.81-7.62,2.4c-.74,1-.91,3.24.84,5.33,1,1.22,3.14,2.33,5.83,3.09C23.63,40.39,28,38.74,29.77,34.92Z" transform="translate(-0.54 -0.48)"/><path class="cls-7" d="M36.58,13c-1.87-1.44-8.59-2.89-12.21-.58A7.71,7.71,0,0,0,27,14c2.2.86,3.35,4.69,3.75,8.9,3.5-.13,6.79-.85,7.83-2.05a4.26,4.26,0,0,0,.54-.83C38.78,16.57,38.07,14.15,36.58,13Z" transform="translate(-0.54 -0.48)"/><path class="cls-8" d="M27,14a7.71,7.71,0,0,1-2.6-1.62,4.86,4.86,0,0,0-1.91,2.25,18,18,0,0,0-.89,6.67l.06.05c1.84,1.21,5.57,1.68,9.09,1.55C30.32,18.73,29.17,14.9,27,14Z" transform="translate(-0.54 -0.48)"/><path class="cls-1" d="M9,7.92A1.44,1.44,0,1,1,7.53,6.48,1.45,1.45,0,0,1,9,7.92Z" transform="translate(-0.54 -0.48)"/><path class="cls-1" d="M18,7.92a1.44,1.44,0,1,1-1.44-1.44A1.44,1.44,0,0,1,18,7.92Z" transform="translate(-0.54 -0.48)"/><path class="cls-1" d="M27,7.92a1.44,1.44,0,1,1-1.43-1.44A1.44,1.44,0,0,1,27,7.92Z" transform="translate(-0.54 -0.48)"/><path class="cls-1" d="M36,7.92a1.44,1.44,0,1,1-1.45-1.44A1.45,1.45,0,0,1,36,7.92Z" transform="translate(-0.54 -0.48)"/><path class="cls-1" d="M7.53,18.36a1.44,1.44,0,0,1,0-2.88,1.44,1.44,0,1,1,0,2.88Z" transform="translate(-0.54 -0.48)"/><path class="cls-1" d="M7.53,27.36a1.44,1.44,0,0,1,0-2.88,1.44,1.44,0,1,1,0,2.88Z" transform="translate(-0.54 -0.48)"/><path class="cls-1" d="M7.53,36.36a1.44,1.44,0,0,1,0-2.88,1.44,1.44,0,1,1,0,2.88Z" transform="translate(-0.54 -0.48)"/><path class="cls-1" d="M16.53,18.36A1.44,1.44,0,1,1,18,16.92,1.43,1.43,0,0,1,16.53,18.36Z" transform="translate(-0.54 -0.48)"/><path class="cls-1" d="M16.53,27.36A1.44,1.44,0,1,1,18,25.92,1.43,1.43,0,0,1,16.53,27.36Z" transform="translate(-0.54 -0.48)"/><path class="cls-1" d="M16.53,36.36A1.44,1.44,0,1,1,18,34.92,1.43,1.43,0,0,1,16.53,36.36Z" transform="translate(-0.54 -0.48)"/><path class="cls-1" d="M25.53,18.36A1.44,1.44,0,1,1,27,16.92,1.43,1.43,0,0,1,25.53,18.36Z" transform="translate(-0.54 -0.48)"/><path class="cls-1" d="M25.53,27.36A1.44,1.44,0,1,1,27,25.92,1.43,1.43,0,0,1,25.53,27.36Z" transform="translate(-0.54 -0.48)"/><path class="cls-1" d="M25.53,36.36A1.44,1.44,0,1,1,27,34.92,1.43,1.43,0,0,1,25.53,36.36Z" transform="translate(-0.54 -0.48)"/><path class="cls-1" d="M34.53,18.36a1.44,1.44,0,0,1,0-2.88,1.44,1.44,0,1,1,0,2.88Z" transform="translate(-0.54 -0.48)"/><path class="cls-1" d="M34.53,27.36a1.44,1.44,0,0,1,0-2.88,1.44,1.44,0,1,1,0,2.88Z" transform="translate(-0.54 -0.48)"/><path class="cls-1" d="M34.53,36.36a1.44,1.44,0,0,1,0-2.88,1.44,1.44,0,1,1,0,2.88Z" transform="translate(-0.54 -0.48)"/></svg>