<?xml version="1.0" encoding="utf-8"?>
<!-- Generator: Adobe Illustrator 15.1.0, SVG Export Plug-In . SVG Version: 6.00 Build 0)  -->
<!DOCTYPE svg PUBLIC "-//W3C//DTD SVG 1.1//EN" "http://www.w3.org/Graphics/SVG/1.1/DTD/svg11.dtd">
<svg version="1.1" id="Calque_1" xmlns="http://www.w3.org/2000/svg" xmlns:xlink="http://www.w3.org/1999/xlink" x="0px" y="0px"
	 width="779.93px" height="147.433px" viewBox="0 0 779.93 147.433" enable-background="new 0 0 779.93 147.433"
	 xml:space="preserve">
<g>
	<defs>
		<rect id="SVGID_1_" width="779.93" height="147.433"/>
	</defs>
	<clipPath id="SVGID_2_">
		<use xlink:href="#SVGID_1_"  overflow="visible"/>
	</clipPath>
	<path clip-path="url(#SVGID_2_)" fill="#8A8C8E" d="M289.407,104.508c-0.654,0.476-1.588,1.054-2.804,1.735
		c-1.217,0.683-2.745,1.351-4.583,2.003c-1.84,0.653-4.005,1.215-6.497,1.69c-2.492,0.475-5.311,0.712-8.455,0.712
		c-4.45,0-8.664-0.667-12.638-2.002c-3.976-1.335-7.462-3.338-10.458-6.008c-2.997-2.67-5.37-5.993-7.12-9.968
		c-1.751-3.975-2.625-8.604-2.625-13.884c0-5.162,0.845-9.746,2.536-13.751c1.691-4.005,4.005-7.387,6.942-10.146
		c2.937-2.759,6.378-4.864,10.324-6.319c3.945-1.453,8.202-2.18,12.772-2.18c2.432,0,4.628,0.148,6.586,0.445
		s3.693,0.682,5.206,1.156c1.513,0.476,2.804,0.979,3.872,1.514c1.068,0.534,1.927,1.009,2.581,1.423
		c1.364,1.01,2.343,2.063,2.937,3.16c0.592,1.099,0.89,2.24,0.89,3.427c0,1.127-0.223,2.196-0.668,3.203
		c-0.445,1.01-0.979,1.914-1.602,2.715c-0.623,0.801-1.246,1.484-1.869,2.047c-0.623,0.565-1.143,0.965-1.557,1.202
		c-0.594-0.593-1.351-1.291-2.27-2.092c-0.92-0.801-2.033-1.527-3.337-2.181c-1.306-0.652-2.804-1.215-4.495-1.691
		c-1.691-0.474-3.575-0.711-5.651-0.711c-2.612,0-4.984,0.431-7.12,1.29c-2.136,0.861-3.991,2.107-5.563,3.738
		c-1.573,1.633-2.79,3.605-3.649,5.919c-0.86,2.314-1.29,4.925-1.29,7.833c0,2.967,0.474,5.577,1.424,7.831
		c0.948,2.256,2.254,4.139,3.916,5.651c1.66,1.514,3.634,2.656,5.918,3.427c2.284,0.771,4.762,1.157,7.432,1.157
		c3.322,0,6.186-0.415,8.588-1.246c2.403-0.83,4.228-1.69,5.474-2.581l6.675,11.481H289.407z"/>
	<path clip-path="url(#SVGID_2_)" fill="#8A8C8E" d="M291.31,49.773c0-2.314,0.681-3.945,2.047-4.895
		c1.364-0.948,3.173-1.424,5.429-1.424c1.602,0,3.04,0.193,4.316,0.578c1.276,0.387,2.092,0.639,2.448,0.757v21.538
		c1.126-1.008,2.67-1.928,4.628-2.759c1.958-0.83,4.479-1.246,7.565-1.246c2.67,0,5.131,0.371,7.387,1.113
		c2.254,0.742,4.227,1.899,5.918,3.47c1.692,1.573,3.011,3.56,3.961,5.963c0.948,2.404,1.424,5.238,1.424,8.5v27.68h-14.329V84.305
		c0-3.026-0.668-5.221-2.002-6.586c-1.335-1.364-3.338-2.047-6.008-2.047c-2.67,0-4.747,0.801-6.23,2.402
		c-1.484,1.603-2.225,4.094-2.225,7.477v23.496H291.31V49.773z"/>
	<path clip-path="url(#SVGID_2_)" fill="#8A8C8E" d="M384.448,108.78c-0.356,0.12-1.157,0.254-2.403,0.398
		c-1.246,0.149-2.804,0.313-4.673,0.492c-1.869,0.177-4.005,0.325-6.408,0.444c-2.403,0.118-4.939,0.179-7.609,0.179
		c-4.51,0-8.248-0.4-11.214-1.202c-2.968-0.801-5.34-1.883-7.12-3.248c-1.78-1.364-3.026-2.951-3.738-4.762
		c-0.712-1.81-1.068-3.723-1.068-5.741c0-5.458,1.749-9.358,5.251-11.704c3.5-2.343,9.047-3.515,16.643-3.515
		c1.898,0,3.485,0.031,4.761,0.089c1.275,0.061,2.328,0.149,3.16,0.268c0-2.076-0.846-3.707-2.536-4.896
		c-1.692-1.186-4.495-1.78-8.411-1.78c-1.84,0-3.457,0.105-4.851,0.312c-1.395,0.208-2.581,0.46-3.56,0.756
		c-0.979,0.298-1.766,0.594-2.358,0.89c-0.594,0.299-1.01,0.534-1.246,0.713c-0.12-0.118-0.356-0.356-0.712-0.713
		c-0.356-0.355-0.712-0.814-1.068-1.378c-0.356-0.563-0.683-1.202-0.979-1.914c-0.298-0.712-0.445-1.482-0.445-2.314
		c0-5.162,5.28-7.743,15.842-7.743c3.44,0,6.675,0.311,9.701,0.935c3.026,0.623,5.651,1.69,7.876,3.204
		c2.225,1.513,3.975,3.515,5.251,6.007c1.275,2.492,1.914,5.607,1.914,9.345V108.78z M370.119,90.178
		c-0.534-0.117-1.321-0.222-2.359-0.312c-1.038-0.088-2.596-0.133-4.672-0.133c-1.78,0-3.235,0.148-4.361,0.444
		c-1.128,0.299-2.003,0.698-2.626,1.202c-0.623,0.505-1.054,1.083-1.29,1.735c-0.238,0.654-0.356,1.335-0.356,2.047
		c0,0.534,0.089,1.099,0.267,1.691c0.178,0.594,0.563,1.128,1.157,1.602c0.592,0.477,1.482,0.876,2.67,1.202
		c1.186,0.327,2.759,0.489,4.717,0.489c1.542,0,2.966-0.044,4.272-0.136c1.304-0.087,2.165-0.189,2.581-0.31V90.178z"/>
	<path clip-path="url(#SVGID_2_)" fill="#8A8C8E" d="M390.711,79.944c0-2.906,0.521-5.443,1.559-7.609
		c1.038-2.166,2.462-3.99,4.271-5.474c1.811-1.482,3.945-2.595,6.408-3.337c2.461-0.742,5.147-1.113,8.054-1.113
		c3.562,0,6.733,0.594,9.522,1.78c2.789,1.188,5.043,2.848,6.765,4.984c1.722-2.136,3.945-3.796,6.676-4.984
		c2.728-1.186,5.874-1.78,9.433-1.78c2.849,0,5.504,0.371,7.967,1.113c2.461,0.742,4.597,1.855,6.408,3.337
		c1.809,1.484,3.232,3.308,4.271,5.474c1.037,2.166,1.559,4.703,1.559,7.609v29.104h-14.33v-25.01c0-3.025-0.623-5.19-1.869-6.497
		c-1.246-1.305-2.997-1.958-5.251-1.958c-2.313,0-4.198,0.772-5.651,2.314c-1.455,1.544-2.181,4.005-2.181,7.387v23.764h-14.329
		V85.284c0-3.382-0.712-5.843-2.136-7.387c-1.423-1.542-3.292-2.314-5.607-2.314c-2.255,0-4.019,0.653-5.295,1.958
		c-1.275,1.307-1.914,3.472-1.914,6.497v25.01h-14.329V79.944z"/>
	<path clip-path="url(#SVGID_2_)" fill="#8A8C8E" d="M468.799,49.773c0-2.314,0.682-3.945,2.047-4.895
		c1.364-0.948,3.174-1.424,5.429-1.424c1.603,0,3.04,0.193,4.316,0.578c1.276,0.387,2.092,0.639,2.448,0.757v22.517
		c1.067-1.068,2.684-2.15,4.851-3.248c2.165-1.098,4.908-1.647,8.233-1.647c3.024,0,5.875,0.578,8.543,1.735
		c2.67,1.157,4.998,2.775,6.987,4.851c1.986,2.078,3.559,4.583,4.717,7.52c1.157,2.938,1.734,6.216,1.734,9.835
		c0,3.56-0.623,6.824-1.868,9.79c-1.246,2.967-2.968,5.489-5.162,7.564c-2.196,2.078-4.792,3.694-7.787,4.852
		c-2.998,1.156-6.246,1.735-9.746,1.735c-4.272,0-8.159-0.772-11.659-2.314c-3.502-1.542-6.379-3.796-8.633-6.764
		c-1.424-1.898-2.522-4.241-3.293-7.031c-0.772-2.789-1.157-6.082-1.157-9.879V49.773z M493.185,97.122
		c2.968,0,5.414-0.979,7.344-2.938c1.928-1.958,2.892-4.539,2.892-7.743s-0.964-5.83-2.892-7.877c-1.93-2.047-4.376-3.07-7.344-3.07
		c-1.482,0-2.848,0.282-4.094,0.846c-1.246,0.564-2.329,1.335-3.249,2.313c-0.92,0.979-1.632,2.137-2.136,3.472
		s-0.756,2.773-0.756,4.316c0,3.324,0.964,5.934,2.892,7.832C487.77,96.172,490.217,97.122,493.185,97.122"/>
	<path clip-path="url(#SVGID_2_)" fill="#8A8C8E" d="M535.69,92.315c0.118,0.712,0.431,1.41,0.935,2.091
		c0.503,0.684,1.216,1.321,2.136,1.914c0.919,0.594,2.092,1.068,3.516,1.424c1.425,0.356,3.145,0.534,5.162,0.534
		c1.542,0,2.995-0.134,4.361-0.4c1.365-0.268,2.55-0.547,3.561-0.846c1.008-0.296,1.839-0.593,2.491-0.89
		c0.652-0.296,1.037-0.503,1.157-0.623l4.984,9.968c-0.477,0.298-1.262,0.712-2.359,1.246s-2.477,1.068-4.138,1.603
		c-1.662,0.533-3.605,0.992-5.831,1.379c-2.224,0.386-4.671,0.579-7.341,0.579c-3.324,0-6.439-0.534-9.346-1.603
		c-2.907-1.068-5.443-2.625-7.608-4.672c-2.167-2.048-3.872-4.554-5.12-7.521c-1.244-2.967-1.867-6.349-1.867-10.146
		c0-3.56,0.623-6.823,1.867-9.79c1.248-2.966,2.968-5.487,5.164-7.565c2.193-2.076,4.774-3.694,7.743-4.851
		c2.968-1.157,6.17-1.735,9.611-1.735c3.204,0,6.081,0.431,8.633,1.29c2.552,0.861,4.702,2.033,6.452,3.516
		c1.75,1.484,3.085,3.175,4.007,5.073c0.919,1.899,1.379,3.857,1.379,5.875c0,2.195-0.388,4.169-1.157,5.918
		c-0.772,1.751-2.152,3.234-4.138,4.449c-1.989,1.218-4.689,2.152-8.101,2.805c-3.412,0.652-7.758,0.979-13.038,0.979H535.69z
		 M534.979,83.059c3.976,0,7.062-0.147,9.257-0.445c2.193-0.296,3.826-0.681,4.895-1.156c1.068-0.475,1.72-1.009,1.958-1.603
		c0.237-0.592,0.356-1.187,0.356-1.78c0-1.245-0.565-2.327-1.691-3.249c-1.128-0.918-2.819-1.378-5.073-1.378
		c-1.602,0-2.997,0.282-4.183,0.845c-1.188,0.565-2.181,1.292-2.982,2.181c-0.801,0.89-1.41,1.913-1.824,3.07
		C535.274,80.7,535.038,81.873,534.979,83.059"/>
	<path clip-path="url(#SVGID_2_)" fill="#8A8C8E" d="M568.743,80.567c0-2.906,0.49-5.487,1.47-7.743
		c0.979-2.254,2.328-4.153,4.051-5.696c1.718-1.542,3.794-2.714,6.228-3.516c2.434-0.8,5.104-1.201,8.012-1.201
		c3.559,0,6.333,0.386,8.32,1.157c1.987,0.772,3.428,1.602,4.316,2.492c0.535,0.594,0.949,1.217,1.247,1.869
		c0.295,0.654,0.444,1.424,0.444,2.314c0,0.89-0.134,1.721-0.399,2.492c-0.269,0.772-0.595,1.455-0.98,2.047
		c-0.387,0.594-0.757,1.099-1.111,1.513c-0.357,0.416-0.623,0.713-0.802,0.891c-1.01-0.475-2.226-0.919-3.648-1.335
		c-1.424-0.414-2.998-0.623-4.717-0.623c-2.256,0-4.169,0.653-5.743,1.958c-1.571,1.306-2.357,3.471-2.357,6.497v25.364h-14.329
		V80.567z"/>
	<path clip-path="url(#SVGID_2_)" fill="#8A8C8E" d="M608.49,91.603c0.355,0.297,1.157,0.756,2.403,1.379
		c1.245,0.623,2.818,1.246,4.717,1.87c1.899,0.623,4.095,1.187,6.586,1.69c2.492,0.505,5.19,0.757,8.101,0.757
		c2.372,0,4.271-0.163,5.694-0.489c1.426-0.326,2.521-0.757,3.294-1.291c0.769-0.534,1.274-1.142,1.514-1.825
		c0.235-0.681,0.354-1.379,0.354-2.091c0-1.424-0.578-2.595-1.734-3.516c-1.158-0.919-3.309-1.646-6.452-2.181l-9.08-1.602
		c-2.374-0.414-4.748-1.008-7.119-1.78c-2.374-0.771-4.494-1.839-6.363-3.204c-1.869-1.364-3.396-3.115-4.584-5.251
		c-1.187-2.136-1.778-4.776-1.778-7.921c0-2.729,0.503-5.296,1.511-7.699c1.009-2.403,2.552-4.494,4.629-6.274
		c2.077-1.78,4.703-3.189,7.877-4.228c3.173-1.037,6.897-1.557,11.169-1.557c3.085,0,5.784,0.164,8.1,0.489
		c2.313,0.327,4.302,0.728,5.963,1.202c1.66,0.476,3.012,0.95,4.05,1.424c1.038,0.475,1.794,0.861,2.269,1.157
		c1.009,0.594,1.973,1.41,2.894,2.447c0.919,1.039,1.38,2.27,1.38,3.694c0,1.009-0.179,1.973-0.536,2.892
		c-0.355,0.921-0.786,1.766-1.289,2.537c-0.504,0.772-1.054,1.439-1.646,2.002c-0.595,0.565-1.099,0.994-1.514,1.291
		c-0.594-0.592-1.483-1.26-2.67-2.003c-1.188-0.741-2.611-1.408-4.271-2.002c-1.661-0.592-3.561-1.097-5.695-1.513
		c-2.136-0.415-4.421-0.623-6.854-0.623c-2.313,0-4.152,0.193-5.519,0.578c-1.364,0.387-2.388,0.861-3.069,1.424
		c-0.682,0.565-1.128,1.202-1.335,1.914c-0.209,0.712-0.311,1.365-0.311,1.958c0,0.534,0.072,1.039,0.222,1.513
		c0.148,0.476,0.503,0.935,1.068,1.379c0.563,0.445,1.363,0.861,2.402,1.246c1.037,0.387,2.447,0.757,4.229,1.113l9.433,1.869
		c3.322,0.653,6.244,1.468,8.767,2.447c2.521,0.979,4.643,2.182,6.363,3.605c1.722,1.424,3.012,3.146,3.872,5.162
		c0.858,2.018,1.29,4.421,1.29,7.209c0,6.229-2.329,11.096-6.986,14.596c-4.657,3.502-11.229,5.251-19.713,5.251
		c-3.857,0-7.401-0.326-10.636-0.979c-3.233-0.652-6.067-1.409-8.5-2.27s-4.405-1.676-5.918-2.448
		c-1.513-0.77-2.419-1.304-2.715-1.602L608.49,91.603z"/>
	<path clip-path="url(#SVGID_2_)" fill="#8A8C8E" d="M660.929,51.464c0-2.255,0.757-4.153,2.271-5.696
		c1.512-1.542,3.395-2.314,5.65-2.314c2.254,0,4.152,0.772,5.696,2.314c1.542,1.543,2.313,3.441,2.313,5.696
		c0,2.255-0.771,4.138-2.313,5.651c-1.544,1.513-3.442,2.27-5.696,2.27c-2.256,0-4.139-0.757-5.65-2.27
		C661.686,55.602,660.929,53.719,660.929,51.464 M661.729,69.976c0-2.314,0.683-3.945,2.047-4.895
		c1.364-0.949,3.175-1.424,5.431-1.424c1.601,0,3.054,0.193,4.359,0.578c1.306,0.387,2.138,0.638,2.492,0.757v44.055h-14.329V69.976
		z"/>
	<path clip-path="url(#SVGID_2_)" fill="#8A8C8E" d="M688.277,113.497c0.178,0.119,0.653,0.326,1.424,0.625
		c0.771,0.294,1.765,0.606,2.982,0.933c1.216,0.326,2.639,0.623,4.271,0.891c1.632,0.267,3.397,0.4,5.296,0.4
		c1.899,0,3.663-0.209,5.296-0.623c1.631-0.416,3.025-1.112,4.184-2.092c1.156-0.979,2.06-2.225,2.714-3.737
		c0.653-1.514,0.979-3.396,0.979-5.652v-0.979c-0.298,0.298-0.787,0.712-1.469,1.246s-1.572,1.067-2.67,1.602
		s-2.388,1.01-3.871,1.424c-1.483,0.416-3.145,0.623-4.983,0.623c-3.204,0-6.156-0.489-8.856-1.468
		c-2.7-0.979-5.028-2.417-6.986-4.317c-1.958-1.897-3.471-4.228-4.539-6.986c-1.066-2.759-1.602-5.888-1.602-9.389
		c0-3.5,0.623-6.689,1.87-9.568c1.246-2.877,2.965-5.353,5.162-7.431c2.193-2.076,4.818-3.694,7.876-4.851
		c3.055-1.157,6.422-1.735,10.101-1.735c4.094,0,7.877,0.772,11.348,2.314c3.472,1.543,6.333,3.797,8.589,6.764
		c1.425,1.9,2.506,4.124,3.249,6.675c0.74,2.552,1.111,5.784,1.111,9.7v13.262c0,4.628-0.652,8.617-1.958,11.97
		c-1.306,3.352-3.114,6.109-5.429,8.276c-2.314,2.166-5.059,3.769-8.232,4.807c-3.175,1.038-6.631,1.558-10.368,1.558
		c-2.613,0-5.016-0.164-7.21-0.49c-2.195-0.326-4.138-0.711-5.828-1.156c-1.692-0.444-3.086-0.89-4.184-1.335
		c-1.099-0.444-1.825-0.787-2.181-1.023L688.277,113.497z M695.13,85.997c0,3.382,0.948,5.903,2.85,7.564
		c1.896,1.662,4.33,2.492,7.296,2.492c2.908,0,5.326-0.919,7.254-2.759c1.928-1.839,2.893-4.272,2.893-7.298
		c0-3.026-0.965-5.504-2.893-7.433c-1.928-1.927-4.346-2.892-7.254-2.892c-1.483,0-2.847,0.267-4.093,0.801
		c-1.245,0.534-2.314,1.276-3.203,2.225c-0.892,0.949-1.589,2.047-2.092,3.293C695.382,83.237,695.13,84.572,695.13,85.997"/>
	<path clip-path="url(#SVGID_2_)" fill="#8A8C8E" d="M734.627,81.546c0-3.085,0.594-5.83,1.78-8.232
		c1.188-2.404,2.818-4.406,4.896-6.008c2.075-1.602,4.478-2.818,7.209-3.649c2.728-0.83,5.665-1.246,8.81-1.246
		c3.085,0,6.008,0.416,8.767,1.246c2.76,0.831,5.162,2.047,7.209,3.649c2.048,1.602,3.663,3.604,4.851,6.008
		c1.187,2.402,1.781,5.147,1.781,8.232v27.5h-14.329V84.839c0-3.145-0.712-5.475-2.137-6.986c-1.425-1.514-3.472-2.271-6.142-2.271
		c-5.578,0-8.366,3.086-8.366,9.257v24.207h-14.329V81.546z"/>
	<path clip-path="url(#SVGID_2_)" fill="#8A8C8E" d="M267.396,147.06l-2.053-6.479h-7.091l-2.105,6.479h-2.479l6.477-19.807h3.386
		l6.477,19.807H267.396z M262.73,132.558c-0.347-1.066-0.586-2.079-0.8-3.252h-0.266c-0.24,1.173-0.454,2.186-0.8,3.252
		l-1.893,5.785h5.625L262.73,132.558z"/>
	<path clip-path="url(#SVGID_2_)" fill="#8A8C8E" d="M281.724,147.06v-1.146c-1.946,0.985-3.599,1.519-5.092,1.519
		c-3.625,0-4.345-2.506-4.345-5.678v-9.357h2.373v9.357c0,2.665,0.426,3.625,2.479,3.625c1.146,0,2.639-0.453,4.585-1.306v-11.677
		h2.399v14.662H281.724z"/>
	<path clip-path="url(#SVGID_2_)" fill="#8A8C8E" d="M293.497,147.433c-2.666,0-3.625-0.96-3.625-3.732v-9.303l-2.959-0.214v-1.786
		h2.959v-3.812h2.399v3.812h3.918v2h-3.918v9.196c0,1.652,0.133,1.92,1.493,1.92c0.826,0,1.972-0.08,2.425-0.134v1.652
		C295.79,147.166,294.617,147.433,293.497,147.433"/>
	<path clip-path="url(#SVGID_2_)" fill="#8A8C8E" d="M304.573,147.434c-4.106,0-6.238-2.375-6.238-6.639v-2.133
		c0-4.265,2.132-6.638,6.238-6.638c4.132,0,6.264,2.373,6.264,6.638v2.133C310.837,145.059,308.705,147.434,304.573,147.434
		 M308.438,138.663c0-3.172-1.173-4.531-3.865-4.531c-2.639,0-3.839,1.359-3.839,4.531v2.133c0,3.172,1.173,4.531,3.839,4.531
		c2.692,0,3.865-1.359,3.865-4.531V138.663z"/>
	<path clip-path="url(#SVGID_2_)" fill="#8A8C8E" d="M316.585,135.411v11.649h-2.373v-14.662h2.346v1.174
		c1.386-1.094,3.173-1.547,5.225-1.547v2.133C319.864,134.158,317.705,134.691,316.585,135.411"/>
	<path clip-path="url(#SVGID_2_)" fill="#8A8C8E" d="M324.507,126.427h2.426v3.252h-2.426V126.427z M324.507,132.398h2.399v14.662
		h-2.399V132.398z"/>
	<path clip-path="url(#SVGID_2_)" fill="#8A8C8E" d="M336.333,147.433c-2.666,0-3.625-0.96-3.625-3.732v-9.303l-2.959-0.214v-1.786
		h2.959v-3.812h2.398v3.812h3.919v2h-3.919v9.196c0,1.652,0.134,1.92,1.493,1.92c0.827,0,1.973-0.08,2.426-0.134v1.652
		C338.625,147.166,337.453,147.433,336.333,147.433"/>
	<path clip-path="url(#SVGID_2_)" fill="#8A8C8E" d="M343.53,140.609v0.293c0,2.532,0.373,4.452,4.426,4.452
		c1.626,0,3.732-0.187,5.118-0.427v1.919c-1.013,0.267-2.8,0.587-5.225,0.587c-5.199,0-6.718-2.319-6.718-7.064v-1.119
		c0-4.612,2.053-7.225,6.211-7.225c4.319,0,6.291,2.586,6.291,7.518v1.066H343.53z M351.154,138.369
		c0-1.785-0.373-4.265-3.785-4.265c-3.359,0-3.812,2.479-3.812,4.265v0.268h7.597V138.369z M348.462,130.639h-2.399l3.492-4.104
		h2.906L348.462,130.639z"/>
	<path clip-path="url(#SVGID_2_)" fill="#8A8C8E" d="M371.435,147.06v-0.747c-0.986,0.587-2.399,1.12-4.105,1.12
		c-3.439,0-5.465-1.946-5.465-6.265v-2.532c0-5.252,2.639-6.611,6.051-6.611c1.173,0,2.266,0.134,3.439,0.373v-5.971h2.399v20.633
		H371.435z M371.354,134.398c-1.2-0.214-2.479-0.347-3.279-0.347c-2.372,0-3.812,0.666-3.812,4.585v2.532
		c0,2.906,1.067,4.212,3.519,4.212c1.306,0,2.479-0.373,3.572-0.906V134.398z"/>
	<path clip-path="url(#SVGID_2_)" fill="#8A8C8E" d="M379.528,140.609v0.293c0,2.532,0.374,4.452,4.425,4.452
		c1.627,0,3.732-0.187,5.118-0.427v1.919c-1.013,0.267-2.799,0.586-5.225,0.586c-5.198,0-6.716-2.318-6.716-7.063v-1.119
		c0-4.612,2.051-7.225,6.21-7.225c4.319,0,6.291,2.586,6.291,7.518v1.066H379.528z M387.152,138.37c0-1.786-0.373-4.266-3.785-4.266
		c-3.359,0-3.812,2.479-3.812,4.266v0.267h7.597V138.37z"/>
	<path clip-path="url(#SVGID_2_)" fill="#8A8C8E" d="M403.728,147.433c-3.999,0-5.864-2.426-5.864-6.611v-2.212
		c0-4.212,1.865-6.585,5.864-6.585c2.133,0,3.68,0.345,4.186,0.507v1.813c-1.788-0.187-3.066-0.267-3.838-0.267
		c-2.348,0-3.813,0.879-3.813,4.532v2.212c0,3.652,1.466,4.559,3.813,4.559c0.771,0,2.05-0.08,3.838-0.267v1.813
		C407.407,147.086,405.86,147.433,403.728,147.433"/>
	<path clip-path="url(#SVGID_2_)" fill="#8A8C8E" d="M412.693,140.609v0.293c0,2.532,0.373,4.452,4.426,4.452
		c1.626,0,3.731-0.187,5.117-0.427v1.919c-1.013,0.267-2.799,0.586-5.225,0.586c-5.198,0-6.717-2.318-6.717-7.063v-1.119
		c0-4.612,2.052-7.225,6.211-7.225c4.319,0,6.291,2.586,6.291,7.518v1.066H412.693z M420.317,138.37
		c0-1.786-0.373-4.266-3.784-4.266c-3.36,0-3.813,2.479-3.813,4.266v0.267h7.598V138.37z"/>
	<path clip-path="url(#SVGID_2_)" fill="#8A8C8E" d="M428.436,135.411v11.649h-2.372v-14.662h2.347v1.174
		c1.385-1.094,3.171-1.547,5.224-1.547v2.133C431.715,134.158,429.556,134.691,428.436,135.411"/>
	<path clip-path="url(#SVGID_2_)" fill="#8A8C8E" d="M442.188,147.433c-2.666,0-3.626-0.96-3.626-3.732v-9.303l-2.959-0.214v-1.786
		h2.959v-3.812h2.399v3.812h3.919v2h-3.919v9.196c0,1.652,0.134,1.92,1.494,1.92c0.826,0,1.972-0.08,2.425-0.134v1.652
		C444.479,147.166,443.307,147.433,442.188,147.433"/>
	<path clip-path="url(#SVGID_2_)" fill="#8A8C8E" d="M447.799,126.427h2.427v3.252h-2.427V126.427z M447.799,132.398h2.398v14.662
		h-2.398V132.398z"/>
	<path clip-path="url(#SVGID_2_)" fill="#8A8C8E" d="M455.757,147.06v-12.662l-2.799-0.267v-1.733h2.799v-1.76
		c0-2.451,0.319-4.558,3.76-4.558c1.145,0,2.397,0.24,2.851,0.374v1.625c-0.399-0.026-1.626-0.107-2.585-0.107
		c-1.573,0-1.653,0.801-1.653,2.666v1.76h8.691v14.662h-2.4v-12.662h-6.291v12.662H455.757z M464.395,126.427h2.452v3.252h-2.452
		V126.427z"/>
	<path clip-path="url(#SVGID_2_)" fill="#8A8C8E" d="M476.146,147.433c-3.999,0-5.864-2.426-5.864-6.611v-2.212
		c0-4.212,1.865-6.585,5.864-6.585c2.133,0,3.68,0.345,4.186,0.507v1.813c-1.787-0.187-3.066-0.267-3.838-0.267
		c-2.348,0-3.813,0.879-3.813,4.532v2.212c0,3.652,1.466,4.559,3.813,4.559c0.771,0,2.051-0.08,3.838-0.267v1.813
		C479.825,147.086,478.278,147.433,476.146,147.433"/>
	<path clip-path="url(#SVGID_2_)" fill="#8A8C8E" d="M491.982,147.06v-0.986c-0.877,0.613-2.479,1.359-4.664,1.359
		c-2.746,0-4.372-1.227-4.372-4.158v-0.533c0-3.865,2.639-4.531,6.744-4.531h2.186v-1.067c0-2.532-0.506-3.092-3.438-3.092
		c-1.625,0-2.933,0.133-4.531,0.319v-1.706c0.426-0.159,2.452-0.64,4.718-0.64c4.878,0,5.651,1.786,5.651,5.118v9.917H491.982z
		 M491.876,140.022h-2.186c-3.091,0-4.344,0.374-4.344,2.72v0.719c0,1.653,1.012,2.106,2.451,2.106c1.732,0,3.466-0.773,4.078-1.173
		V140.022z"/>
	<path clip-path="url(#SVGID_2_)" fill="#8A8C8E" d="M503.41,147.433c-2.666,0-3.626-0.96-3.626-3.732v-9.303l-2.959-0.214v-1.786
		h2.959v-3.812h2.399v3.812h3.919v2h-3.919v9.196c0,1.652,0.134,1.92,1.494,1.92c0.826,0,1.972-0.08,2.425-0.134v1.652
		C505.702,147.166,504.529,147.433,503.41,147.433"/>
	<path clip-path="url(#SVGID_2_)" fill="#8A8C8E" d="M509.022,126.427h2.426v3.252h-2.426V126.427z M509.022,132.398h2.396v14.662
		h-2.396V132.398z"/>
	<path clip-path="url(#SVGID_2_)" fill="#8A8C8E" d="M521.066,147.434c-4.106,0-6.239-2.375-6.239-6.639v-2.133
		c0-4.265,2.133-6.638,6.239-6.638c4.132,0,6.264,2.373,6.264,6.638v2.133C527.33,145.059,525.198,147.434,521.066,147.434
		 M524.931,138.663c0-3.172-1.173-4.531-3.864-4.531c-2.641,0-3.839,1.359-3.839,4.531v2.133c0,3.172,1.173,4.531,3.839,4.531
		c2.691,0,3.864-1.359,3.864-4.531V138.663z"/>
	<path clip-path="url(#SVGID_2_)" fill="#8A8C8E" d="M540.143,147.06v-9.355c0-2.666-0.427-3.627-2.452-3.627
		c-1.146,0-2.666,0.453-4.611,1.307v11.676h-2.374v-14.662h2.374v1.146c1.706-0.88,3.25-1.52,4.878-1.52
		c3.892,0,4.585,2.106,4.585,5.68v9.355H540.143z"/>
	<path clip-path="url(#SVGID_2_)" fill="#BE1F24" d="M174.333,110.667c0-35.162-28.504-63.667-63.667-63.667
		C75.504,47,47,75.505,47,110.667H0C0,49.547,49.547,0,110.666,0c61.12,0,110.667,49.547,110.667,110.667H174.333z"/>
</g>
</svg>
