<svg xmlns="http://www.w3.org/2000/svg" viewBox="0 0 178.88 90.27"><defs><style>.cls-1{fill:#1d1d1b;}.cls-2{fill:#748b98;}.cls-3{fill:#dc3c46;}.cls-4{fill:#732378;}.cls-5{fill:#323282;}.cls-6{fill:#00a0e1;}.cls-7{fill:#a5be00;}.cls-8{fill:#e67300;}.cls-9{fill:gold;}</style></defs><title>logo-header</title><g id="Calque_2" data-name="Calque 2"><g id="Calque_1-2" data-name="Calque 1"><polygon class="cls-1" points="54.45 56.79 56.34 56.79 56.34 62.06 61 62.06 61 56.79 62.89 56.79 62.89 68.69 61 68.69 61 63.81 56.34 63.81 56.34 68.69 54.45 68.69 54.45 56.79"/><path class="cls-1" d="M68.26,56.79h2.08l4,11.9H72.26l-.91-2.88H67.14l-.93,2.88h-2.1Zm2.6,7.3L69.3,59.36l-1.63,4.73Z"/><path class="cls-1" d="M74.7,56.79h1.89v6.7c0,3.25.84,3.51,2.63,3.51,1.54,0,2.54-.37,2.54-3.51v-6.7h1.9v6.7c0,5.25-2.48,5.28-4.44,5.28-2.21,0-4.52.13-4.52-5.28Z"/><polygon class="cls-1" points="84.84 56.79 93.45 56.79 93.45 58.56 90.05 58.56 90.05 68.69 88.16 68.69 88.16 58.56 84.84 58.56 84.84 56.79"/><path class="cls-1" d="M94.36,59.13a2.12,2.12,0,0,1,2.39-2.34s4.54.16,5.2.26v1.54H97.09c-.85,0-.85.47-.85.91v2.36l5,.16v1.55l-5,.16v2.36c0,.86.54.84,1,.84H102v1.53c-.58.09-5,.28-5,.28-1.07.05-2.55-.19-2.55-2.26Z"/><rect class="cls-1" x="102.62" y="63.14" width="5.11" height="1.66"/><path class="cls-1" d="M112.46,56.66a19.27,19.27,0,0,1,4.4.49v1.48c-.1,0-2.29-.25-4.06-.25-1.94,0-2.31,1.27-2.31,4.33,0,3.28.46,4.26,2.26,4.27a5.54,5.54,0,0,0,2.44-.75V63.7h-2V62.48a8.3,8.3,0,0,1,2.83-.39c.34,0,.71,0,1.1,0v6.57h-1.36l-.49-.8a4.27,4.27,0,0,1-2.75.88c-3.36.1-3.87-2.68-3.87-6.1s.62-6,3.86-6"/><path class="cls-1" d="M122.38,56.79h2.08l4,11.9h-2.06l-.91-2.88h-4.21l-.93,2.88h-2.1Zm2.6,7.3-1.56-4.73-1.63,4.73Z"/><path class="cls-1" d="M129.4,56.79h5.17c1.74,0,3.06.88,3.06,3.66,0,3-1.37,3.31-1.95,3.48L138,68.69h-2.11l-2.17-4.64-2.45-.22v4.86H129.4Zm5,5.51c.78,0,1.3-.15,1.3-1.85s-.59-1.94-1.3-1.94H131.3V62.3Z"/><path class="cls-1" d="M143.4,56.71c2.82,0,4.7.53,4.7,6.11,0,5.25-1.77,5.93-4.7,5.93s-4.73-.51-4.73-5.93c0-5.58,2-6.11,4.73-6.11m0,10.27c2.13,0,2.82-.65,2.82-4.16,0-4.13-.87-4.34-2.82-4.34s-2.84.16-2.84,4.34c0,3.59.62,4.16,2.84,4.16"/><polygon class="cls-1" points="149.6 56.79 151.52 56.79 156.82 65.19 156.82 56.79 158.71 56.79 158.71 68.69 156.82 68.69 151.5 60.33 151.5 68.69 149.6 68.69 149.6 56.79"/><polygon class="cls-1" points="160.41 56.79 162.33 56.79 167.63 65.19 167.63 56.79 169.52 56.79 169.52 68.69 167.63 68.69 162.31 60.33 162.31 68.69 160.41 68.69 160.41 56.79"/><path class="cls-1" d="M171.19,59.13a2.13,2.13,0,0,1,2.39-2.34s4.54.16,5.21.26v1.54h-4.86c-.85,0-.85.47-.85.91v2.36l5,.16v1.55l-5,.16v2.36c0,.86.54.84,1,.84h4.7v1.53c-.59.09-5,.28-5,.28-1.08.05-2.56-.19-2.56-2.26Z"/><path class="cls-2" d="M54.26,74.08A1.69,1.69,0,0,1,56,72.25a2.17,2.17,0,0,1,1.48.78L65,83h0v-8.9a1.77,1.77,0,1,1,3.53,0V87.45a1.7,1.7,0,0,1-1.77,1.84,2.28,2.28,0,0,1-1.48-.78l-7.46-9.84h-.05v8.78a1.77,1.77,0,1,1-3.53,0Z"/><path class="cls-2" d="M70.38,74.08a1.77,1.77,0,1,1,3.53,0V82.3a3.61,3.61,0,0,0,3.62,3.88,3.69,3.69,0,0,0,3.6-3.88V74.08a1.77,1.77,0,1,1,3.53,0v8.4a7.14,7.14,0,0,1-14.28,0Z"/><path class="cls-2" d="M87.85,74.06a2.36,2.36,0,0,1,2.31-1.81,2.51,2.51,0,0,1,2.35,1.69l2.78,9.32h0l2.78-9.32a2.52,2.52,0,0,1,2.35-1.69,2.36,2.36,0,0,1,2.31,1.81L105,87.19a2.82,2.82,0,0,1,0,.4,1.63,1.63,0,0,1-1.69,1.69c-1.2,0-1.67-.54-1.84-1.64l-1.39-9.58h0l-2.83,9.86a2,2,0,0,1-3.76,0l-2.82-9.86h0l-1.39,9.58a1.77,1.77,0,0,1-3.53,0,2.82,2.82,0,0,1,0-.4Z"/><path class="cls-2" d="M106.6,74.44c0-1.18.59-2,1.84-2h5.84A1.57,1.57,0,0,1,116,74a1.6,1.6,0,0,1-1.67,1.63h-4.15v3.43H114a1.6,1.6,0,0,1,1.72,1.63A1.62,1.62,0,0,1,114,82.32h-3.86V85.9h4.36a1.56,1.56,0,0,1,1.67,1.62,1.59,1.59,0,0,1-1.67,1.62h-6.07a1.72,1.72,0,0,1-1.82-1.76Z"/><path class="cls-2" d="M117.5,74.22a1.66,1.66,0,0,1,1.81-1.83h4.14c3.62,0,5.86,1.62,5.86,5.32,0,2.59-2,4.07-4.36,4.44l4,4.29a1.49,1.49,0,0,1,.46,1,1.78,1.78,0,0,1-3.12,1.2l-5.23-6.33h0v5.11a1.77,1.77,0,1,1-3.53,0ZM121,79.8h2.42a2,2,0,0,0,2.19-2.09,2,2,0,0,0-2.19-2.07H121Z"/><path class="cls-2" d="M130.58,74.08a1.77,1.77,0,1,1,3.53,0V87.45a1.77,1.77,0,1,1-3.53,0Z"/><path class="cls-2" d="M147.8,88.39a8.22,8.22,0,0,1-4.14,1c-4.78,0-8.09-3.79-8.09-8.66s3.29-8.66,8.09-8.66,8.1,3.88,8.1,8.66a9.44,9.44,0,0,1-1.58,5.43l1.34,1.16a1.82,1.82,0,0,1,.82,1.43,1.62,1.62,0,0,1-1.62,1.48,2.37,2.37,0,0,1-1.58-.75Zm-.28-4.61a7.38,7.38,0,0,0,.56-3c0-2.8-1.48-5.41-4.42-5.41s-4.42,2.56-4.42,5.41,1.43,5.41,4.42,5.41a7.27,7.27,0,0,0,1.51-.17l-.85-.82a1.37,1.37,0,0,1-.45-.94,1.61,1.61,0,0,1,1.6-1.69,1.54,1.54,0,0,1,.89.3Z"/><path class="cls-2" d="M153.07,74.08a1.77,1.77,0,1,1,3.53,0V82.3a3.61,3.61,0,0,0,3.62,3.88,3.7,3.7,0,0,0,3.6-3.88V74.08a1.77,1.77,0,1,1,3.53,0v8.4a7.14,7.14,0,0,1-14.28,0Z"/><path class="cls-2" d="M169.33,74.44c0-1.18.59-2,1.83-2H177A1.56,1.56,0,0,1,178.67,74,1.6,1.6,0,0,1,177,75.64h-4.14v3.43h3.85a1.59,1.59,0,0,1,1.72,1.63,1.61,1.61,0,0,1-1.72,1.62h-3.85V85.9h4.35a1.56,1.56,0,0,1,1.67,1.62,1.59,1.59,0,0,1-1.67,1.62h-6.07a1.71,1.71,0,0,1-1.81-1.76Z"/><path class="cls-2" d="M111.73,69.11a2.63,2.63,0,0,1,.9-.24,1.5,1.5,0,0,1,1.27,1.46,1.34,1.34,0,0,1-1,1.39l-2.63,1c-.69.24-.47.24-.94.24-.71,0-1.25-.89-1.25-1.72a1.15,1.15,0,0,1,.66-.94l.19-.09Z"/><rect class="cls-3" x="6.87" y="73.63" width="5.38" height="1.39" transform="translate(-60.29 47.18) rotate(-61.43)"/><rect class="cls-3" x="4.26" y="76.84" width="1.39" height="2.2" transform="translate(-73.14 78.06) rotate(-86.45)"/><rect class="cls-3" x="1.46" y="79.56" width="1.39" height="5.77"/><rect class="cls-3" x="6.18" y="83.96" width="1.39" height="6.31" transform="translate(-80.36 92.3) rotate(-88.89)"/><rect class="cls-3" x="17.65" y="74.59" width="1.39" height="5.64" transform="translate(-60.91 84.23) rotate(-81.59)"/><rect class="cls-3" x="12.08" y="71.96" width="1.39" height="3.53" transform="translate(-25.69 9.55) rotate(-21.1)"/><rect class="cls-3" x="8.86" y="79.15" width="1.39" height="5.92" transform="translate(-36.4 13.4) rotate(-27.14)"/><rect class="cls-3" x="10.25" y="80.81" width="6.23" height="1.39" transform="translate(-69.21 83.6) rotate(-82.15)"/><rect class="cls-4" x="70.09" y="22.55" width="2.58" height="1.39" transform="translate(0.98 49.31) rotate(-38.35)"/><rect class="cls-4" x="70.3" y="14.71" width="1.39" height="5.67" transform="translate(0.51 37.04) rotate(-29.34)"/><rect class="cls-4" x="64.91" y="2.9" width="1.39" height="10.11" transform="translate(4.51 33.15) rotate(-29.33)"/><polygon class="cls-4" points="53.74 4.78 53.43 3.42 60.47 1.81 60.78 3.16 53.74 4.78"/><rect class="cls-4" x="52.57" y="5.93" width="1.39" height="2.08" transform="translate(1.77 22.28) rotate(-24.01)"/><rect class="cls-4" x="46.61" y="11.65" width="7.04" height="1.39" transform="translate(3.16 33.77) rotate(-38.35)"/><rect class="cls-4" x="61.58" y="3.82" width="1.39" height="10.71" transform="translate(-0.12 0.85) rotate(-0.78)"/><rect class="cls-4" x="57.59" y="8.99" width="1.39" height="7.23" transform="translate(10.68 48.51) rotate(-49.23)"/><polygon class="cls-4" points="54.02 20.08 53.61 10.98 55 10.91 55.41 20.02 54.02 20.08"/><rect class="cls-4" x="63.88" y="14.46" width="3.63" height="1.39" transform="translate(-0.61 27.38) rotate(-23.44)"/><rect class="cls-5" x="43.93" y="10.87" width="1.39" height="2.96" transform="matrix(0.96, -0.27, 0.27, 0.96, -1.68, 12.66)"/><rect class="cls-5" x="33.96" y="9.74" width="8.29" height="1.39" transform="matrix(0.98, -0.17, 0.17, 0.98, -1.23, 6.77)"/><rect class="cls-5" x="35.54" y="11.51" width="1.39" height="8.75" transform="translate(-1.64 27.33) rotate(-40.49)"/><rect class="cls-5" x="65.4" y="17.51" width="1.39" height="6.59" transform="translate(1.39 45.6) rotate(-38.43)"/><rect class="cls-5" x="57.34" y="18.81" width="3.67" height="1.39" transform="translate(3.11 46.68) rotate(-44.11)"/><rect class="cls-5" x="49.02" y="15.94" width="1.39" height="6.73" transform="translate(1.42 41.92) rotate(-46.31)"/><rect class="cls-5" x="62.63" y="20.43" width="1.39" height="8.09" transform="translate(34.76 86.06) rotate(-86.25)"/><rect class="cls-5" x="72.77" y="23.95" width="1.39" height="7.77" transform="translate(8.08 71.39) rotate(-54.42)"/><rect class="cls-5" x="81.73" y="30.21" width="1.39" height="8.07" transform="translate(6.6 81.33) rotate(-54.4)"/><rect class="cls-5" x="64.13" y="27.93" width="5.49" height="1.39" transform="translate(7.28 70.35) rotate(-58.17)"/><rect class="cls-5" x="38.13" y="8.48" width="1.39" height="10.5" transform="translate(12.8 45.64) rotate(-70.27)"/><rect class="cls-5" x="40.94" y="17.57" width="4.03" height="1.39" transform="translate(-1.8 31.53) rotate(-39.56)"/><rect class="cls-5" x="72.58" y="34.28" width="5.72" height="1.39" transform="matrix(0.53, -0.85, 0.85, 0.53, 6.04, 80.77)"/><rect class="cls-6" x="41.69" y="21.12" width="1.39" height="4" transform="translate(-4.93 32.75) rotate(-40.12)"/><rect class="cls-6" x="35.3" y="27.79" width="8.22" height="1.39" transform="translate(-8.26 18.91) rotate(-24.5)"/><rect class="cls-6" x="45.94" y="24.26" width="5.2" height="1.39" transform="translate(-4.97 14.22) rotate(-15.87)"/><rect class="cls-6" x="47.61" y="29.13" width="6.55" height="1.39" transform="translate(-2.53 54.83) rotate(-55.46)"/><rect class="cls-6" x="39.7" y="28.24" width="1.39" height="9.14" transform="translate(-2.08 62.88) rotate(-74.38)"/><polygon class="cls-6" points="80.41 43.05 79.72 41.84 80.82 41.2 85.62 38.24 86.35 39.42 81.53 42.4 80.41 43.05"/><rect class="cls-6" x="66.06" y="46.32" width="12.12" height="1.39" transform="translate(-13.84 42.18) rotate(-29.88)"/><polygon class="cls-6" points="58.01 39.55 54.67 27.97 56.01 27.58 59.35 39.17 58.01 39.55"/><rect class="cls-6" x="75.21" y="38.8" width="1.39" height="3.89" transform="translate(-2.53 76.38) rotate(-52.66)"/><rect class="cls-6" x="68.16" y="31.69" width="1.39" height="7.34" transform="translate(-1.04 68.61) rotate(-52.63)"/><polygon class="cls-6" points="63.06 31.8 57.33 27.43 58.17 26.33 63.9 30.7 63.06 31.8"/><rect class="cls-6" x="61.57" y="39.22" width="9.99" height="1.39" transform="translate(-5.77 11.78) rotate(-9.69)"/><rect class="cls-6" x="58.91" y="35.74" width="6.3" height="1.39" transform="translate(-2.27 68.69) rotate(-57.05)"/><polygon class="cls-6" points="57.5 40.75 50.05 36.95 50.69 35.71 58.13 39.51 57.5 40.75"/><rect class="cls-6" x="63.52" y="43.99" width="11.12" height="1.39" transform="translate(-7.66 74.34) rotate(-54.02)"/><rect class="cls-7" x="29.69" y="35.34" width="6.89" height="1.39" transform="translate(-10.14 58.93) rotate(-75.29)"/><rect class="cls-7" x="25.52" y="35.54" width="1.39" height="8.34" transform="translate(-18.01 57.26) rotate(-78.21)"/><rect class="cls-7" x="11.1" y="42.71" width="9.97" height="1.39" transform="translate(-27.41 27.57) rotate(-49.66)"/><rect class="cls-7" x="39.95" y="41.02" width="8.64" height="1.39" transform="translate(-13.6 60.46) rotate(-61.24)"/><rect class="cls-7" x="35.62" y="40.13" width="1.39" height="7.6" transform="translate(-20.16 51.59) rotate(-58.15)"/><rect class="cls-7" x="21.01" y="40.2" width="1.39" height="6.46" transform="translate(-11.28 7.8) rotate(-16.23)"/><polygon class="cls-7" points="63.64 50.84 52.75 47.49 53.15 46.16 64.05 49.52 63.64 50.84"/><rect class="cls-7" x="51.52" y="47.78" width="1.39" height="3.63" transform="translate(-8.98 11.63) rotate(-11.71)"/><rect class="cls-7" x="52.49" y="43.41" width="5.86" height="1.39" transform="translate(-14.75 34.47) rotate(-30.7)"/><polygon class="cls-7" points="43.78 47.83 43.65 46.44 49.8 45.86 49.92 47.25 43.78 47.83"/><rect class="cls-7" x="61.62" y="42.62" width="1.39" height="7.38" transform="translate(-15.24 42.7) rotate(-33.95)"/><rect class="cls-7" x="23.38" y="43.68" width="8.16" height="1.39" transform="translate(-21.61 26.61) rotate(-38.35)"/><rect class="cls-7" x="33.17" y="37.65" width="12.02" height="1.39" transform="translate(-11.04 16.36) rotate(-20.74)"/><rect class="cls-7" x="49.08" y="37.76" width="1.39" height="7.25" transform="translate(-10.89 18.8) rotate(-19.33)"/><rect class="cls-8" x="7.07" y="58.21" width="1.39" height="11.82" transform="translate(-30.47 12.07) rotate(-29.39)"/><rect class="cls-8" x="7.64" y="55.55" width="1.39" height="5.68" transform="translate(-50.58 55.65) rotate(-79.21)"/><rect class="cls-8" x="17.42" y="60.6" width="1.39" height="4.77" transform="translate(-41.31 35.34) rotate(-49.01)"/><rect class="cls-8" x="25.53" y="62.76" width="1.39" height="7.55" transform="translate(-44.21 78.93) rotate(-78.46)"/><rect class="cls-8" x="22.23" y="72.23" width="10.27" height="1.39" transform="translate(-46.12 47.08) rotate(-50.05)"/><rect class="cls-8" x="19.24" y="59.11" width="10.46" height="1.39" transform="translate(-39.6 51.44) rotate(-60.31)"/><rect class="cls-8" x="12.52" y="70.58" width="10.02" height="1.39" transform="translate(-51.94 47.59) rotate(-57.36)"/><rect class="cls-8" x="16.83" y="55.61" width="9.74" height="1.39" transform="translate(-19.6 12.31) rotate(-22.11)"/><rect class="cls-8" x="31.08" y="62.03" width="1.39" height="3.89"/><polygon class="cls-8" points="22 76.18 20.54 67.3 21.91 67.08 23.37 75.96 22 76.18"/><rect class="cls-8" x="9.12" y="64.87" width="7.19" height="1.39" transform="translate(-54.03 63.07) rotate(-76.88)"/><polygon class="cls-9" points="11.51 49.88 10.44 48.99 10.46 48.98 11.51 49.88"/><polygon class="cls-9" points="5.58 56.88 4.53 55.98 10.44 48.99 11.5 49.89 5.58 56.88"/><rect class="cls-9" x="24.78" y="48.83" width="1.39" height="4.11" transform="translate(-26.56 27.86) rotate(-39.54)"/><rect class="cls-9" x="32.26" y="56.57" width="7.26" height="1.39" transform="translate(-27.71 34.41) rotate(-38.16)"/><rect class="cls-9" x="44.76" y="56.18" width="7.73" height="1.39" transform="translate(-25.8 49.11) rotate(-43.52)"/><rect class="cls-9" x="41.59" y="55.14" width="1.39" height="4.45" transform="translate(-24.74 33.15) rotate(-33.74)"/><rect class="cls-9" x="46.21" y="46.02" width="1.39" height="8.99" transform="translate(-18.17 73.25) rotate(-66.38)"/><rect class="cls-9" x="28.24" y="49.52" width="11.78" height="1.39" transform="translate(-18.26 19.53) rotate(-25.44)"/><rect class="cls-9" x="12.38" y="50" width="1.39" height="6.11" transform="translate(-10.84 3.93) rotate(-12.11)"/><rect class="cls-9" x="13.77" y="47.37" width="7.83" height="1.39" transform="translate(-0.93 0.35) rotate(-1.12)"/><rect class="cls-9" x="29.14" y="54.84" width="1.39" height="4.63" transform="matrix(0.86, -0.5, 0.5, 0.86, -24.68, 22.73)"/><rect class="cls-9" x="38.7" y="50.25" width="3.57" height="1.39" transform="translate(-15.76 83.66) rotate(-81.71)"/><path class="cls-4" d="M62.32,15.39a1.38,1.38,0,1,1-1.38,1.38,1.38,1.38,0,0,1,1.38-1.38m0-1.22a2.6,2.6,0,1,0,2.6,2.6,2.61,2.61,0,0,0-2.6-2.6"/><path class="cls-5" d="M45.77,14.28a1.38,1.38,0,1,1-1.38,1.38,1.38,1.38,0,0,1,1.38-1.38m0-1.22a2.6,2.6,0,1,0,2.6,2.6,2.61,2.61,0,0,0-2.6-2.6"/><path class="cls-6" d="M47.65,32.73a2.37,2.37,0,1,1-2.37,2.36,2.36,2.36,0,0,1,2.37-2.36m0-1.39a3.76,3.76,0,1,0,3.75,3.75,3.76,3.76,0,0,0-3.75-3.75"/><path class="cls-6" d="M59.71,39.8a1.38,1.38,0,1,1-1.38,1.37,1.37,1.37,0,0,1,1.38-1.37m0-1.4a2.77,2.77,0,1,0,2.77,2.77,2.78,2.78,0,0,0-2.77-2.77"/><path class="cls-5" d="M55.09,20.85A3.16,3.16,0,1,1,51.94,24a3.15,3.15,0,0,1,3.15-3.16m0-1.39A4.55,4.55,0,1,0,59.63,24a4.55,4.55,0,0,0-4.54-4.55"/><path class="cls-7" d="M41.33,45.87A1.38,1.38,0,1,1,40,47.25a1.38,1.38,0,0,1,1.38-1.38m0-1.22a2.6,2.6,0,1,0,2.6,2.6,2.61,2.61,0,0,0-2.6-2.6"/><path class="cls-8" d="M14.25,56.68A2.37,2.37,0,1,1,11.88,59a2.36,2.36,0,0,1,2.37-2.36m0-1.39A3.76,3.76,0,1,0,18,59a3.75,3.75,0,0,0-3.76-3.75"/><path class="cls-4" d="M73.33,20.44a.88.88,0,0,1,0,1.76.88.88,0,1,1,0-1.76m0-1.39a2.27,2.27,0,1,0,2.27,2.27,2.27,2.27,0,0,0-2.27-2.27"/><path class="cls-4" d="M68.74,12.94a.88.88,0,1,1-.88.87.88.88,0,0,1,.88-.87m0-1.4A2.28,2.28,0,1,0,71,13.81a2.27,2.27,0,0,0-2.27-2.27"/><path class="cls-4" d="M62.2,1.39a.88.88,0,1,1-.88.88.88.88,0,0,1,.88-.88M62.2,0a2.27,2.27,0,1,0,2.27,2.27A2.27,2.27,0,0,0,62.2,0"/><path class="cls-4" d="M52.19,3.76a.88.88,0,1,1,0,1.76.88.88,0,0,1,0-1.76m0-1.39a2.27,2.27,0,1,0,2.27,2.27,2.27,2.27,0,0,0-2.27-2.27"/><path class="cls-4" d="M54.28,8.49a.88.88,0,1,1-.88.87.88.88,0,0,1,.88-.87m0-1.4a2.28,2.28,0,1,0,2.27,2.27,2.27,2.27,0,0,0-2.27-2.27"/><path class="cls-5" d="M40.09,19.45a.88.88,0,1,1-.88.88.88.88,0,0,1,.88-.88m0-1.39a2.27,2.27,0,1,0,2.27,2.27,2.27,2.27,0,0,0-2.27-2.27"/><path class="cls-6" d="M44.54,25.16a.88.88,0,1,1-.88.87.87.87,0,0,1,.88-.87m0-1.4A2.28,2.28,0,1,0,46.81,26a2.27,2.27,0,0,0-2.27-2.27"/><path class="cls-6" d="M34.53,30.3a.88.88,0,1,1-.88.88.87.87,0,0,1,.88-.88m0-1.39a2.27,2.27,0,1,0,2.27,2.27,2.27,2.27,0,0,0-2.27-2.27"/><path class="cls-6" d="M73.05,37.79a.88.88,0,1,1-.88.88.88.88,0,0,1,.88-.88m0-1.39a2.27,2.27,0,1,0,2.27,2.27,2.26,2.26,0,0,0-2.27-2.27"/><path class="cls-6" d="M64.65,31.44a.88.88,0,1,1-.88.87.87.87,0,0,1,.88-.87m0-1.4a2.28,2.28,0,1,0,2.27,2.27A2.27,2.27,0,0,0,64.65,30"/><path class="cls-6" d="M78.61,42.12a.88.88,0,1,1-.88.88.88.88,0,0,1,.88-.88m0-1.39A2.27,2.27,0,1,0,80.88,43a2.27,2.27,0,0,0-2.27-2.27"/><path class="cls-7" d="M65.4,49.77a.88.88,0,1,1-.88.88.88.88,0,0,1,.88-.88m0-1.4a2.28,2.28,0,1,0,2.27,2.28,2.28,2.28,0,0,0-2.27-2.28"/><path class="cls-7" d="M51.49,45.46a.88.88,0,1,1-.87.88.87.87,0,0,1,.87-.88m0-1.4a2.28,2.28,0,1,0,2.28,2.28,2.28,2.28,0,0,0-2.28-2.28"/><path class="cls-9" d="M52.47,52.13a.88.88,0,1,1-.88.88.88.88,0,0,1,.88-.88m0-1.39A2.27,2.27,0,1,0,54.74,53a2.26,2.26,0,0,0-2.27-2.27"/><path class="cls-9" d="M44.54,59.5a.88.88,0,1,1-.88.88.87.87,0,0,1,.88-.88m0-1.39a2.27,2.27,0,1,0,2.27,2.27,2.27,2.27,0,0,0-2.27-2.27"/><path class="cls-9" d="M40.09,53.29a.88.88,0,1,1,0,1.76.88.88,0,1,1,0-1.76m0-1.39a2.27,2.27,0,1,0,2.27,2.27,2.27,2.27,0,0,0-2.27-2.27"/><path class="cls-9" d="M31.89,59.64a.88.88,0,1,1-.88.88.88.88,0,0,1,.88-.88m0-1.39a2.27,2.27,0,1,0,2.27,2.27,2.27,2.27,0,0,0-2.27-2.27"/><path class="cls-9" d="M27.72,52.94a.88.88,0,0,1,0,1.76.88.88,0,1,1,0-1.76m0-1.39A2.27,2.27,0,1,0,30,53.82a2.27,2.27,0,0,0-2.27-2.27"/><path class="cls-9" d="M12.28,47.68a.88.88,0,1,1-.88.88.87.87,0,0,1,.88-.88m0-1.39a2.27,2.27,0,1,0,2.27,2.27,2.27,2.27,0,0,0-2.27-2.27"/><path class="cls-8" d="M4.08,56.72a.88.88,0,1,1-.88.88.88.88,0,0,1,.88-.88m0-1.39A2.27,2.27,0,1,0,6.35,57.6a2.27,2.27,0,0,0-2.27-2.27"/><path class="cls-8" d="M11.59,69.65a.88.88,0,1,1-.88.88.88.88,0,0,1,.88-.88m0-1.39a2.27,2.27,0,1,0,2.27,2.27,2.26,2.26,0,0,0-2.27-2.27"/><path class="cls-8" d="M31.47,66.73a.88.88,0,1,1-.88.88.87.87,0,0,1,.88-.88m0-1.39a2.27,2.27,0,1,0,2.27,2.27,2.27,2.27,0,0,0-2.27-2.27"/><path class="cls-3" d="M22.71,76.74a.88.88,0,1,1-.88.88.88.88,0,0,1,.88-.88m0-1.39A2.27,2.27,0,1,0,25,77.62a2.27,2.27,0,0,0-2.27-2.27"/><path class="cls-3" d="M14.09,75.91a.88.88,0,1,1-.88.88.87.87,0,0,1,.88-.88m0-1.39a2.27,2.27,0,1,0,2.27,2.27,2.27,2.27,0,0,0-2.27-2.27"/><path class="cls-3" d="M7.69,77.16a.88.88,0,1,1,0,1.76.88.88,0,0,1,0-1.76m0-1.39A2.27,2.27,0,1,0,10,78a2.27,2.27,0,0,0-2.27-2.27"/><path class="cls-3" d="M2.41,77a.88.88,0,1,1-.88.88A.87.87,0,0,1,2.41,77m0-1.39A2.27,2.27,0,1,0,4.68,77.9a2.27,2.27,0,0,0-2.27-2.27"/><path class="cls-3" d="M2.27,86.06a.88.88,0,1,1,0,1.76.88.88,0,0,1,0-1.76m0-1.39a2.27,2.27,0,1,0,2.27,2.27,2.27,2.27,0,0,0-2.27-2.27"/><path class="cls-8" d="M21.09,64.74a.88.88,0,1,1-.88.88.88.88,0,0,1,.88-.88m0-1.39a2.27,2.27,0,1,0,2.27,2.27,2.27,2.27,0,0,0-2.27-2.27"/><path class="cls-7" d="M31.89,40a.88.88,0,0,1,0,1.76.88.88,0,1,1,0-1.76m0-1.39a2.27,2.27,0,1,0,2.27,2.27,2.27,2.27,0,0,0-2.27-2.27"/><path class="cls-9" d="M23.17,47.19a.88.88,0,1,1-.88.88.88.88,0,0,1,.88-.88m0-1.39a2.27,2.27,0,1,0,2.27,2.27,2.27,2.27,0,0,0-2.27-2.27"/><path class="cls-7" d="M20.63,38a.88.88,0,1,1-.88.88.87.87,0,0,1,.88-.88m0-1.39a2.27,2.27,0,1,0,2.27,2.27,2.27,2.27,0,0,0-2.27-2.27"/><path class="cls-5" d="M43.72,8.59a.88.88,0,0,1,0,1.76.88.88,0,0,1,0-1.76m0-1.39A2.27,2.27,0,1,0,46,9.47,2.27,2.27,0,0,0,43.72,7.2"/><path class="cls-5" d="M69,23.89a.88.88,0,0,1,0,1.76.88.88,0,1,1,0-1.76m0-1.39a2.27,2.27,0,1,0,2.28,2.27A2.27,2.27,0,0,0,69,22.5"/><path class="cls-5" d="M77.78,30.29a.88.88,0,1,1-.88.87.87.87,0,0,1,.88-.87m0-1.4a2.28,2.28,0,1,0,2.28,2.27,2.27,2.27,0,0,0-2.28-2.27"/><path class="cls-5" d="M87,36.68a.88.88,0,1,1-.88.88.88.88,0,0,1,.88-.88m0-1.39a2.27,2.27,0,1,0,2.27,2.27A2.27,2.27,0,0,0,87,35.29"/><path class="cls-3" d="M12.05,85.08a1.38,1.38,0,1,1-1.38,1.38,1.38,1.38,0,0,1,1.38-1.38m0-1.39a2.77,2.77,0,1,0,2.77,2.77,2.77,2.77,0,0,0-2.77-2.77"/><path class="cls-5" d="M32.44,10.56a.88.88,0,1,1-.87.87.87.87,0,0,1,.87-.87m0-1.4a2.28,2.28,0,1,0,2.28,2.27,2.27,2.27,0,0,0-2.28-2.27"/></g></g></svg>