<?xml version="1.0" encoding="UTF-8"?>
<!-- Generator: Adobe Illustrator 27.2.0, SVG Export Plug-In . SVG Version: 6.00 Build 0)  -->
<svg xmlns="http://www.w3.org/2000/svg" xmlns:xlink="http://www.w3.org/1999/xlink" version="1.1" id="master-artboard" x="0px" y="0px" viewBox="0 0 895 478.5" style="enable-background:new 0 0 895 478.5;" xml:space="preserve">
<style type="text/css">
	.st0{fill:#243D70;}
	.st1{fill:#EB6608;}
</style>
<g>
	<polygon class="st0" points="330.9,351.3 328.7,105.8 282.1,105.8 227.7,297.3 173,105.8 126.4,105.8 124.2,351.3 154.9,351.3    156.7,149.6 208.1,325.8 246.9,325.8 298.3,149.6 300.2,351.3  "></polygon>
	<path class="st0" d="M851.4,294.6c0-5.3,1.3-9.3,4-12c2.6-2.7,6.1-4.1,10.4-4.1c4.4,0,8,1.4,10.7,4.1c2.7,2.7,4.1,6.9,4.1,12.6v7.6   h-29.2V294.6z M837,323.4c0,10.1,2.4,17.6,7.2,22.5c4.8,4.9,12.9,7.4,24.3,7.4c3.3,0,7-0.3,11.3-1c4.2-0.7,8.2-1.4,12-2l0.7-12.7   c-1.5,0.3-3.2,0.7-5.2,1c-2,0.3-4.1,0.7-6.3,0.9s-4.4,0.5-6.5,0.8c-2.2,0.2-4.1,0.3-5.9,0.3c-6,0-10.3-1.3-13.1-3.8   c-2.7-2.5-4.1-6.7-4.1-12.5v-10H895v-17.5c0-9.9-2.5-17.5-7.4-22.6c-4.9-5.1-12.2-7.7-21.8-7.7c-9.8,0-17.1,2.6-21.8,7.8   c-4.7,5.2-7,12.7-7,22.6V323.4z M812.4,235.4H798v115.9h14.4V235.4z M773.4,297.3c0-9.6-2.4-17.2-7.1-22.6   c-4.7-5.5-12.3-8.2-22.7-8.2c-10.4,0-18,2.7-22.7,8.2c-4.7,5.5-7.1,13-7.1,22.6v25.1c0,9.6,2.4,17.2,7.1,22.6   c4.8,5.5,12.3,8.2,22.7,8.2c10.4,0,18-2.7,22.7-8.2c4.7-5.5,7.1-13,7.1-22.6V297.3z M759,323.6c0,5.8-1.4,10.1-4.1,13.1   c-2.7,3-6.5,4.5-11.4,4.5c-4.9,0-8.6-1.5-11.4-4.5c-2.7-3-4.1-7.4-4.1-13.1v-27.5c0-5.8,1.4-10.2,4.1-13.1c2.7-3,6.5-4.5,11.4-4.5   c4.9,0,8.7,1.5,11.4,4.4c2.7,2.9,4.1,7.3,4.1,13.1V323.6z M672.5,283.2c2,2.6,3,7.1,3,13.6v26.1c0,11.8-4.6,17.6-13.9,17.6   c-2.4,0-5-0.5-7.8-1.6c-2.8-1.1-5.5-2.6-8-4.5v-41.6c2.5-4.3,5.4-7.6,8.7-10c3.3-2.4,6.6-3.6,9.9-3.6   C667.8,279.3,670.5,280.6,672.5,283.2 M645.9,382.6v-35.3c2.5,1.5,5.4,2.8,8.8,4.1c3.4,1.2,6.7,1.9,9.8,1.9c7.8,0,14-2.5,18.6-7.5   c4.6-5,6.9-11.9,6.9-20.9v-30.2c0-9.4-2-16.5-5.9-21.2c-4-4.7-9.5-7.1-16.6-7.1c-4.4,0-8.5,1.2-12.3,3.6   c-3.8,2.4-7.2,5.9-10.1,10.4v-12h-13.6v114.1H645.9z M606.8,297.3c0-9.6-2.4-17.2-7.1-22.6c-4.7-5.5-12.3-8.2-22.7-8.2   c-10.4,0-18,2.7-22.7,8.2c-4.7,5.5-7.1,13-7.1,22.6v25.1c0,9.6,2.4,17.2,7.1,22.6c4.7,5.5,12.3,8.2,22.7,8.2   c10.4,0,18-2.7,22.7-8.2c4.7-5.5,7.1-13,7.1-22.6V297.3z M592.4,323.6c0,5.8-1.4,10.1-4.1,13.1c-2.7,3-6.5,4.5-11.4,4.5   c-4.9,0-8.7-1.5-11.4-4.5c-2.7-3-4.1-7.4-4.1-13.1v-27.5c0-5.8,1.4-10.2,4.1-13.1c2.7-3,6.5-4.5,11.4-4.5c4.9,0,8.6,1.5,11.4,4.4   c2.7,2.9,4.1,7.3,4.1,13.1V323.6z M507.3,351.3v-56.8c2.5-4.2,5.3-7.2,8.6-9.1c3.2-1.9,6.6-2.8,10.3-2.8c1.6,0,2.8,0,3.8,0.1   c1,0.1,1.9,0.2,2.8,0.4v-16.3c-0.9-0.2-2.1-0.3-3.7-0.3c-4.4,0-8.5,1.2-12.4,3.7c-3.9,2.5-7.2,6-10.2,10.7v-12.4h-13.6v82.8H507.3z    M436.4,327.7c0,9.2,2.1,15.7,6.3,19.7c4.2,4,10.7,5.9,19.7,5.9c2.6,0,5-0.2,7.3-0.5c2.3-0.3,4.4-0.7,6.3-1.2v-12   c-1.7,0.3-3.9,0.7-6.5,0.9c-2.7,0.3-5.2,0.4-7.7,0.4c-3.6,0-6.3-0.9-8.1-2.8c-1.8-1.9-2.7-4.9-2.7-9.2v-48.5h22v-11.9h-22v-22.1   h-11.7l-2.7,22.1h-11.9v11.9h11.9V327.7z M398.4,235.1H384l-12.9,23.6h11.2L398.4,235.1z M369,294.6c0-5.3,1.3-9.3,4-12   c2.6-2.7,6.1-4.1,10.4-4.1c4.4,0,8,1.4,10.7,4.1c2.7,2.7,4.1,6.9,4.1,12.6v7.6H369V294.6z M354.6,323.4c0,10.1,2.4,17.6,7.2,22.5   c4.8,4.9,12.9,7.4,24.3,7.4c3.3,0,7-0.3,11.3-1c4.2-0.7,8.2-1.4,12-2l0.7-12.7c-1.5,0.3-3.2,0.7-5.2,1c-2,0.3-4.1,0.7-6.3,0.9   c-2.2,0.3-4.4,0.5-6.5,0.8c-2.2,0.2-4.1,0.3-5.9,0.3c-6,0-10.3-1.3-13.1-3.8c-2.7-2.5-4.1-6.7-4.1-12.5v-10h43.6v-17.5   c0-9.9-2.5-17.5-7.4-22.6c-4.9-5.1-12.2-7.7-21.8-7.7c-9.8,0-17.1,2.6-21.8,7.8c-4.7,5.2-7,12.7-7,22.6V323.4z"></path>
	<path class="st0" d="M875.7,177.5c2.3,0.9,4,2.1,5,3.7c1,1.5,1.5,3.5,1.5,5.8v2.1c0,3.1-0.9,5.3-2.7,6.6c-1.8,1.4-5.5,2.1-11,2.1   c-6.2,0-12.6-0.8-19.1-2.4l-0.3,11.4c7.1,1.6,13.6,2.4,19.4,2.4c9.7,0,16.5-1.8,20.5-5.4c4-3.6,6-8.9,6-15.9v-3.7   c0-3.8-1.2-7.2-3.5-10.4c-2.3-3.2-5.7-5.6-10.2-7.5l-14.3-5.9c-2.6-1.1-4.5-2.2-5.5-3.4c-1-1.1-1.5-2.7-1.5-4.7v-1.2   c0-3,0.9-5.3,2.8-6.8c1.8-1.5,5.4-2.2,10.8-2.2c4.7,0,9.7,0.6,15.1,1.8l0.3-11c-3.4-0.7-6.3-1.2-8.8-1.4c-2.5-0.3-4.9-0.4-7.2-0.4   c-9.4,0-16,1.8-19.9,5.3c-3.9,3.6-5.9,8.9-5.9,15.9v2c0,3.9,1.1,7.3,3.4,10.3c2.3,3,5.7,5.4,10.3,7.1L875.7,177.5z M792.7,156.4   c0-4.8,1.2-8.4,3.6-10.8c2.4-2.4,5.5-3.7,9.4-3.7c4,0,7.2,1.2,9.6,3.7c2.4,2.4,3.7,6.2,3.7,11.3v6.9h-26.2V156.4z M779.7,182.4   c0,9,2.2,15.8,6.5,20.2c4.3,4.4,11.6,6.6,21.9,6.6c2.9,0,6.3-0.3,10.1-0.9c3.8-0.6,7.4-1.2,10.8-1.8l0.6-11.4   c-1.3,0.3-2.9,0.6-4.7,0.9c-1.8,0.3-3.7,0.6-5.6,0.8c-2,0.3-3.9,0.5-5.9,0.7c-1.9,0.2-3.7,0.3-5.3,0.3c-5.4,0-9.3-1.1-11.7-3.4   c-2.4-2.3-3.7-6-3.7-11.2v-9h39.2v-15.7c0-8.9-2.2-15.7-6.6-20.4c-4.4-4.6-11-6.9-19.6-6.9c-8.9,0-15.4,2.3-19.6,7   c-4.2,4.7-6.3,11.4-6.3,20.3V182.4z M715.9,154.6c0-4.2,1.1-7.3,3.4-9.5c2.3-2.1,5.6-3.2,9.8-3.2c2.2,0,4.4,0.2,6.5,0.6   c2.1,0.4,3.7,0.9,4.8,1.4c0.5,1.4,0.9,3.1,1.3,4.9c0.4,1.8,0.5,3.9,0.5,6.3v4.6c0,4.2-1.1,7.4-3.4,9.6c-2.3,2.2-5.8,3.4-10.6,3.4   c-2.5,0-4.6-0.2-6.2-0.5c-1.6-0.4-2.8-1-3.7-1.9c-0.9-0.9-1.6-2.2-1.9-3.9c-0.4-1.7-0.5-3.9-0.5-6.6V154.6z M705.4,234.7   c3.7,0.8,7.5,1.5,11.7,2c4.1,0.5,7.7,0.8,10.6,0.8c6.4,0,11.6-0.4,15.6-1.3c4-0.9,7.2-2.1,9.5-3.7c2.3-1.6,3.9-3.6,4.7-5.9   c0.9-2.4,1.3-5.1,1.3-8.2v-5.6c0-4.8-1.4-8.7-4.4-11.7c-2.9-3-6.7-4.8-11.4-5.2l-22.7-1.7c-3-0.2-4.9-0.8-5.9-1.7   c-1-0.9-1.5-2.1-1.5-3.5V188c0-2.1,1.1-4.2,3.3-6.1c3.4,1,7.7,1.5,13,1.5c4.3,0,8-0.6,11.2-1.8c3.2-1.2,5.9-2.9,8.2-5.1   c2.2-2.2,3.9-4.8,5-7.9c1.1-3,1.7-6.3,1.7-9.9v-3.4c0-2-0.2-4.1-0.7-6.1c-0.5-2-1.2-3.9-2.4-5.5l13,0.5v-11.4l-23.8,0.3   c-1.7-0.6-3.6-1.1-5.6-1.4c-2-0.4-4.2-0.5-6.6-0.5c-8.9,0-15.4,2.2-19.8,6.6c-4.3,4.4-6.5,10.1-6.5,17.2v3.4   c0,4.3,0.4,7.9,1.1,10.9c0.8,3,2,5.5,3.7,7.6c-4.6,3.5-6.9,7.5-6.9,12.2v3c0,4.1,1.3,7.3,3.8,9.8c2.5,2.5,6.3,3.9,11.1,4.2   l22.9,1.5c4.9,0.3,7.3,2.8,7.3,7.6v1.4c0,1.9-0.2,3.5-0.6,4.8c-0.4,1.3-1.3,2.3-2.6,3.1c-1.3,0.8-3.2,1.3-5.6,1.7   c-2.4,0.4-5.6,0.5-9.6,0.5c-3.5,0-7.3-0.3-11.5-1c-4.2-0.7-8-1.6-11.2-2.7L705.4,234.7z M684.2,158.9c0-8.6-2.1-15.4-6.4-20.4   c-4.3-4.9-11.1-7.4-20.4-7.4c-9.4,0-16.2,2.5-20.4,7.4c-4.3,4.9-6.4,11.7-6.4,20.4v22.6c0,8.6,2.1,15.4,6.4,20.4   c4.3,4.9,11.1,7.4,20.4,7.4c9.4,0,16.2-2.5,20.4-7.4c4.3-4.9,6.4-11.7,6.4-20.4V158.9z M671.3,182.5c0,5.2-1.2,9.1-3.7,11.8   c-2.4,2.7-5.8,4-10.2,4c-4.4,0-7.8-1.4-10.2-4c-2.4-2.7-3.7-6.6-3.7-11.8v-24.7c0-5.2,1.2-9.1,3.7-11.8c2.4-2.7,5.9-4,10.2-4   c4.4,0,7.8,1.3,10.2,4c2.4,2.6,3.7,6.6,3.7,11.7V182.5z M531.1,207.4v-51.7c2.2-3.9,4.9-6.9,7.9-9.2c3-2.2,5.9-3.4,8.8-3.4   c2.8,0,5.1,1.2,6.9,3.5c1.7,2.3,2.6,6.3,2.6,11.7v49h13v-51.7c2.2-3.9,4.9-6.9,7.9-9.2c3-2.2,5.9-3.4,8.8-3.4   c2.8,0,5.1,1.2,6.9,3.5c1.7,2.3,2.6,6.3,2.6,11.7v49h13v-50.8c0-8.2-1.7-14.5-5.1-18.9c-3.4-4.4-8.3-6.6-14.7-6.6   c-4.1,0-7.9,1.2-11.4,3.6c-3.5,2.4-6.6,5.9-9.4,10.5c-2.8-9.4-8.9-14-18.3-14c-3.9,0-7.5,1.1-10.9,3.4c-3.4,2.2-6.4,5.4-9.1,9.6   v-11.1h-12.2v74.4H531.1z M496.4,108.4c0-4.7-2.8-7-8.5-7c-5.6,0-8.4,2.3-8.4,7v4.4c0,4.6,2.8,6.9,8.4,6.9c5.7,0,8.5-2.3,8.5-6.9   V108.4z M494.5,132.9h-13v74.4h13V132.9z M465.5,207.4v-11.4h-39.7v-88.5h-13v99.9H465.5z"></path>
	<path class="st1" d="M160.8,467.6c-4,0.8-10.3,1.7-15.8,1.7c-17.1,0-20.9-10.4-20.9-29.2c0-19.3,3.7-29.5,20.9-29.5   c5.9,0,12.1,1.1,15.8,1.8l-0.2,5.4c-3.7-0.7-10.4-1.5-14.8-1.5c-12.7,0-14.9,7.6-14.9,23.8c0,15.9,2.1,23.5,15.1,23.5   c4.6,0,10.7-0.7,14.7-1.5L160.8,467.6z"></path>
	<path class="st1" d="M204.4,447.4c0,15-3.7,21.9-17.7,21.9c-13.9,0-17.7-6.9-17.7-21.9c0-14.2,4.6-21,17.7-21   C199.9,426.4,204.4,433.2,204.4,447.4z M198.1,447.4c0-11.5-2.5-15.6-11.3-15.6c-8.7,0-11.3,4.1-11.3,15.6   c0,11.7,1.6,16.6,11.3,16.6C196.6,464,198.1,459.1,198.1,447.4z"></path>
	<path class="st1" d="M216.1,468.5v-41.2h6.1v2.9c0,0,6.2-3.7,12-3.7c5.5,0,8.6,1.2,10.7,4.2c0,0,7.3-4.2,14.7-4.2   c11.2,0,13.9,5.4,13.9,20.3v21.8h-6.2v-21.6c0-10.9-1.2-14.9-8.7-14.9c-6.1,0-11.6,3.1-11.6,3.1c0.7,1.9,1.1,7.1,1.1,12v21.4H242   v-21.3c0-11.4-1.2-15.3-8.7-15.3c-5.9,0-11.1,3.1-11.1,3.1v33.5H216.1z"></path>
	<path class="st1" d="M286.8,468.5v-41.2h6.1v2.9c0,0,6.2-3.7,12-3.7c5.5,0,8.6,1.2,10.7,4.2c0,0,7.3-4.2,14.7-4.2   c11.2,0,13.9,5.4,13.9,20.3v21.8h-6.2v-21.6c0-10.9-1.2-14.9-8.7-14.9c-6.1,0-11.6,3.1-11.6,3.1c0.7,1.9,1.1,7.1,1.1,12v21.4h-6.2   v-21.3c0-11.4-1.2-15.3-8.7-15.3c-5.9,0-11.1,3.1-11.1,3.1v33.5H286.8z"></path>
	<path class="st1" d="M389.3,427.3v41.2h-6.2v-2.9c0,0-6.2,3.7-12.2,3.7c-11.5,0-13.9-5.4-13.9-20.5v-21.5h6.2v21.4   c0,11.4,1,15.1,8.7,15.1c6.1,0,11.3-3.1,11.3-3.1v-33.5H389.3z"></path>
	<path class="st1" d="M402.8,468.5v-41.2h6.1v2.9c0,0,6.7-3.7,12.8-3.7c11.4,0,13.9,5.6,13.9,20.3v21.8h-6.1v-21.6   c0-10.9-1.2-14.9-8.9-14.9c-5.9,0-11.6,3.1-11.6,3.1v33.5H402.8z"></path>
	<path class="st1" d="M477.9,460.8c0.2,2.4,2.1,3.3,4.8,3.6l-0.2,4.9c-4.4,0-7.3-0.8-9.8-3.3c0,0-7.4,3.3-14.8,3.3   c-7.5,0-11.6-4.3-11.6-12.6c0-7.9,4.1-11.4,12.6-12.2l13-1.2v-3.5c0-5.8-2.5-7.8-7.4-7.8c-5.8,0-15.6,1.1-15.6,1.1l-0.2-4.7   c0,0,9.1-1.8,16.2-1.8c9.3,0,13.3,4.3,13.3,13.3V460.8z M459.5,449.1c-5,0.5-7,2.9-7,7.4c0,4.8,2.1,7.6,6.3,7.6   c6.1,0,13-2.6,13-2.6V448L459.5,449.1z"></path>
	<path class="st1" d="M523.7,427.3v41.2h-6.2v-2.9c0,0-6.2,3.7-12.2,3.7c-11.5,0-13.9-5.4-13.9-20.5v-21.5h6.2v21.4   c0,11.4,1,15.1,8.7,15.1c6.1,0,11.3-3.1,11.3-3.1v-33.5H523.7z"></path>
	<path class="st1" d="M545.4,432.6v19.7c0,9,0.6,11.5,5.9,11.5c2.3,0,7.3-0.5,7.3-0.5l0.4,5.1c0,0-5.5,0.9-8.4,0.9   c-8.5,0-11.4-3.2-11.4-15.1v-21.7h-5.9v-5.4h5.9v-12.6h6.1v12.6h13.1v5.4H545.4z"></path>
	<path class="st1" d="M598.2,463.2l0.2,4.9c0,0-9.4,1.3-16.1,1.3c-12.3,0-16.3-7.2-16.3-21.2c0-15.7,6.8-21.7,17.2-21.7   c11,0,16.6,5.8,16.6,19.3l-0.3,4.7h-27.2c0,8.8,2.7,13.4,10.8,13.4C589.2,463.9,598.2,463.2,598.2,463.2z M593.6,445.5   c0-10.2-3.1-13.9-10.4-13.9c-7,0-11,3.9-11.1,13.9H593.6z M591.6,407.5l2.1,5.3l-18.2,7l-1.7-4.2L591.6,407.5z"></path>
	<path class="st1" d="M662.8,427.3v41.2h-6.2v-2.9c0,0-6.2,3.7-12.2,3.7c-11.5,0-13.9-5.4-13.9-20.5v-21.5h6.2v21.4   c0,11.4,1,15.1,8.7,15.1c6.1,0,11.3-3.1,11.3-3.1v-33.5H662.8z"></path>
	<path class="st1" d="M676.3,427.3h6.1v5.6c0,0,7.2-4.9,15.1-6.5v6.3c-7.8,1.6-15,5.6-15,5.6v30.3h-6.2V427.3z"></path>
	<path class="st1" d="M739.8,447.2c0,16.4-4.5,22.1-19.5,22.1c-4.9,0-13.8-0.9-13.8-0.9v-59.1h6.1v20c0,0,6.3-2.9,12.1-2.9   C736,426.4,739.8,432.4,739.8,447.2z M733.5,447.2c0-10.6-2.1-15.3-9.4-15.3c-5.7,0-11.5,2.4-11.5,2.4v29c0,0,5.4,0.4,7.6,0.4   C731.5,463.8,733.5,458.8,733.5,447.2z"></path>
	<path class="st1" d="M780.7,460.8c0.2,2.4,2.1,3.3,4.8,3.6l-0.2,4.9c-4.4,0-7.3-0.8-9.8-3.3c0,0-7.4,3.3-14.8,3.3   c-7.5,0-11.6-4.3-11.6-12.6c0-7.9,4.1-11.4,12.6-12.2l13-1.2v-3.5c0-5.8-2.5-7.8-7.4-7.8c-5.8,0-15.6,1.1-15.6,1.1l-0.2-4.7   c0,0,9.1-1.8,16.2-1.8c9.3,0,13.3,4.3,13.3,13.3V460.8z M762.3,449.1c-5,0.5-7,2.9-7,7.4c0,4.8,2.1,7.6,6.3,7.6   c6.1,0,13-2.6,13-2.6V448L762.3,449.1z"></path>
	<path class="st1" d="M794.5,410.8h6.2v7.2h-6.2V410.8z M794.5,427.3h6.2v41.2h-6.2V427.3z"></path>
	<path class="st1" d="M814.3,468.5v-41.2h6.1v2.9c0,0,6.7-3.7,12.8-3.7c11.4,0,13.9,5.6,13.9,20.3v21.8H841v-21.6   c0-10.9-1.2-14.9-8.9-14.9c-5.9,0-11.6,3.1-11.6,3.1v33.5H814.3z"></path>
	<path class="st1" d="M890.6,463.2l0.2,4.9c0,0-9.4,1.3-16.1,1.3c-12.3,0-16.3-7.2-16.3-21.2c0-15.7,6.8-21.7,17.2-21.7   c11,0,16.6,5.8,16.6,19.3l-0.3,4.7h-27.2c0,8.8,2.7,13.4,10.8,13.4C881.7,463.9,890.6,463.2,890.6,463.2z M886,445.5   c0-10.2-3.1-13.9-10.4-13.9c-7,0-11,3.9-11.1,13.9H886z"></path>
	<g>
		<circle class="st1" cx="116.9" cy="335.4" r="42.8"></circle>
		<circle class="st1" cx="50.9" cy="266" r="35"></circle>
		<circle class="st1" cx="28.3" cy="192.7" r="28.3"></circle>
		<circle class="st1" cx="33.6" cy="130.3" r="21.2"></circle>
		<circle class="st1" cx="65.3" cy="79" r="16.6"></circle>
		<circle class="st1" cx="106.1" cy="47.2" r="13.8"></circle>
		<circle class="st1" cx="151.6" cy="26.2" r="12.3"></circle>
		<circle class="st1" cx="194.8" cy="18.6" r="9.5"></circle>
		<circle class="st1" cx="235.2" cy="18.7" r="8.7"></circle>
		<circle class="st1" cx="268.2" cy="28.5" r="6.6"></circle>
		<circle class="st1" cx="299.5" cy="43.8" r="7.1"></circle>
		<circle class="st1" cx="328.5" cy="67" r="10.5"></circle>
		<circle class="st1" cx="349.3" cy="99.8" r="11.3"></circle>
		<circle class="st1" cx="366.1" cy="139.9" r="13.5"></circle>
		<circle class="st1" cx="373.2" cy="189.7" r="17.3"></circle>
	</g>
</g>
</svg>
