<?xml version="1.0" encoding="UTF-8" standalone="no"?>
<svg
   xmlns:dc="http://purl.org/dc/elements/1.1/"
   xmlns:cc="http://creativecommons.org/ns#"
   xmlns:rdf="http://www.w3.org/1999/02/22-rdf-syntax-ns#"
   xmlns:svg="http://www.w3.org/2000/svg"
   xmlns="http://www.w3.org/2000/svg"
   xmlns:sodipodi="http://sodipodi.sourceforge.net/DTD/sodipodi-0.dtd"
   xmlns:inkscape="http://www.inkscape.org/namespaces/inkscape"
   version="1.1"
   id="svg833"
   xml:space="preserve"
   width="600"
   height="343.56052"
   viewBox="0 0 600 343.56051"
   sodipodi:docname="Logo Orle패ans Me패tropole.svg"
   inkscape:version="1.0.1 (c497b03c, 2020-09-10)"><metadata
     id="metadata839"><rdf:RDF><cc:Work
         rdf:about=""><dc:format>image/svg+xml</dc:format><dc:type
           rdf:resource="http://purl.org/dc/dcmitype/StillImage" /><dc:title></dc:title></cc:Work></rdf:RDF></metadata><defs
     id="defs837" /><sodipodi:namedview
     pagecolor="#ffffff"
     bordercolor="#666666"
     borderopacity="1"
     objecttolerance="10"
     gridtolerance="10"
     guidetolerance="10"
     inkscape:pageopacity="0"
     inkscape:pageshadow="2"
     inkscape:window-width="1920"
     inkscape:window-height="1080"
     id="namedview835"
     showgrid="false"
     inkscape:zoom="0.66992124"
     inkscape:cx="235.53608"
     inkscape:cy="-17.591688"
     inkscape:window-x="0"
     inkscape:window-y="0"
     inkscape:window-maximized="0"
     inkscape:current-layer="g841" /><g
     id="g841"
     inkscape:groupmode="layer"
     inkscape:label="Logo Orle패ans Me패tropole"
     transform="matrix(1.3333333,0,0,-1.3333333,-586.73775,119.73787)"><g
       id="g1455"
       style="fill:#000000"><path
         d="m 473.74823,54.517079 c -9.8532,0 -18.96491,-7.842716 -18.96491,-23.945001 0,-15.154224 5.93184,-25.0074199 18.75464,-25.0074199 9.32199,0 19.28216,7.2045269 19.28216,24.3692309 0,15.895703 -6.78029,24.58319 -19.07189,24.58319 m -1.16571,-61.4542864 c -21.82754,0 -32.5292,13.8778454 -32.5292,36.0226364 0,23.63144 15.78873,37.830225 34.9676,37.830225 19.07189,0 32.5292,-11.443136 32.5292,-35.923035 0,-23.6277513 -15.57477,-37.9298264 -34.9676,-37.9298264"
         style="fill:#000000;fill-opacity:1;fill-rule:nonzero;stroke:none;stroke-width:1"
         id="path897" /><path
         d="m 542.94379,54.940202 c -2.01417,0 -4.02465,-0.10698 -5.40432,-0.31725 V 33.96112 c 0.95544,-0.10698 2.86263,-0.213959 4.98009,-0.213959 8.26695,0 13.35033,4.238608 13.35033,10.915615 0,6.887277 -4.23861,10.277426 -12.9261,10.277426 M 557.99103,-5.7762935 538.07068,23.786985 h -0.53121 V -5.7762935 H 523.76492 V 65.748838 c 5.61459,0.31725 12.29159,0.424229 20.55485,0.424229 15.78872,0 25.96286,-5.511297 25.96286,-20.130622 0,-10.598365 -7.41849,-18.227122 -18.22712,-19.924041 2.01417,-2.648669 4.02833,-5.400629 5.82854,-7.839028 l 17.16471,-24.0556695 z"
         style="fill:#000000;fill-opacity:1;fill-rule:nonzero;stroke:none;stroke-width:1"
         id="path901" /><path
         d="m 589.86913,-5.77408 v 71.521442 h 13.77455 V 6.3035557 h 23.20721 V -5.77408 Z"
         style="fill:#000000;fill-opacity:1;fill-rule:nonzero;stroke:none;stroke-width:1"
         id="path905" /><path
         d="m 655.14148,70.410569 -4.66284,7.732048 18.54437,11.660784 5.61459,-9.325676 z M 640.62545,-5.7737111 V 65.747731 H 679.5144 V 54.197616 H 654.4 V 36.608683 h 23.84171 V 25.379506 H 654.4 V 5.9866746 h 25.1144 V -5.7737111 Z"
         style="fill:#000000;fill-opacity:1;fill-rule:nonzero;stroke:none;stroke-width:1"
         id="path909" /><path
         d="m 725.80856,38.516241 c -1.37598,3.921358 -2.4384,7.418487 -3.28686,11.443136 h -0.10329 c -0.84846,-3.707399 -2.01417,-7.839028 -3.39015,-11.970656 l -6.46305,-18.227123 h 19.92036 z m 15.25751,-44.2895829 -4.98008,14.623014 h -27.0179 l -4.98378,-14.623014 H 690.20646 L 715.21388,65.7481 h 15.57477 l 25.53494,-71.5214419 z"
         style="fill:#000000;fill-opacity:1;fill-rule:nonzero;stroke:none;stroke-width:1"
         id="path913" /><path
         d="m 810.58036,-5.77408 -20.98277,36.133305 c -3.17619,5.404318 -5.61459,10.701656 -7.73205,15.364494 0.42423,-6.145797 0.6345,-17.378663 0.6345,-25.962859 V -5.77408 h -13.35032 v 71.521442 h 17.90618 l 19.92035,-34.119136 c 3.28686,-5.507609 6.1458,-11.443136 8.79447,-16.847454 -0.52752,7.208217 -0.74148,19.924041 -0.74148,28.714819 v 22.251771 h 13.35032 V -5.77408 Z"
         style="fill:#000000;fill-opacity:1;fill-rule:nonzero;stroke:none;stroke-width:1"
         id="path917" /><path
         d="m 861.76275,-6.9394206 c -5.08707,0 -10.17414,0.5275204 -14.62301,1.6932299 l 0.84846,12.8228045 c 4.02833,-1.3796688 9.7499,-2.5416894 14.94026,-2.5416894 6.99057,0 12.39857,2.8589394 12.39857,9.4289666 0,13.667575 -29.9875,7.418487 -29.9875,30.939258 0,12.715825 10.06346,21.510291 27.23186,21.510291 4.02464,0 8.68748,-0.531209 12.92609,-1.272689 L 884.756,53.563116 c -4.02834,1.165709 -8.47722,1.907189 -12.81911,1.907189 -7.9497,0 -11.97435,-3.604108 -11.97435,-8.687487 0,-12.822804 30.0908,-8.052987 30.0908,-30.411738 0,-13.4573042 -10.70166,-23.3105006 -28.29059,-23.3105006"
         style="fill:#000000;fill-opacity:1;fill-rule:nonzero;stroke:none;stroke-width:1"
         id="path921" /></g><g
       id="g1466"><path
         d="m 490.33525,-82.605403 -4.42306,30.677342 c -0.84108,6.112597 -1.26531,9.550702 -1.47558,12.007546 h -0.14018 c -0.42054,-1.755942 -1.19153,-4.352966 -2.24657,-7.440621 l -11.93377,-35.244267 h -5.408 l -11.30296,33.067785 c -1.12144,3.368015 -2.45684,6.949989 -2.94747,9.617103 h -0.0701 c -0.21027,-3.648376 -0.70459,-7.510711 -1.26532,-12.428086 l -3.57828,-30.256802 h -4.70342 l 6.59585,47.391993 h 5.89864 l 11.51323,-33.702284 c 1.19522,-3.508196 2.17648,-6.599539 2.6708,-9.056383 h 0.13649 c 0.70459,3.161434 1.40549,5.123958 2.53062,8.425572 l 11.79359,34.333095 h 6.179 l 6.94999,-47.391993 z"
         style="fill:#000000;fill-opacity:1;fill-rule:nonzero;stroke:none;stroke-width:1"
         id="path925" /><path
         d="m 526.62164,-31.073296 -2.17648,2.456843 8.35548,7.79476 2.7372,-3.091343 z m -9.97124,-51.531 v 47.388305 h 23.38059 v -3.652065 h -18.88376 v -17.481953 h 17.97259 v -3.578286 H 521.14723 V -78.88583 h 18.88376 v -3.718466 z"
         style="fill:#000000;fill-opacity:1;fill-rule:nonzero;stroke:none;stroke-width:1"
         id="path929" /><path
         d="m 576.60254,-38.935564 v -43.669839 h -4.49315 v 43.669839 h -14.67097 v 3.718466 h 33.83878 v -3.718466 z"
         style="fill:#000000;fill-opacity:1;fill-rule:nonzero;stroke:none;stroke-width:1"
         id="path933" /><path
         d="m 618.5098,-38.585113 c -1.82603,0 -3.29792,-0.07009 -4.8436,-0.21027 v -17.832405 c 0.84108,-0.07378 2.31667,-0.14018 4.55955,-0.14018 7.72467,0 12.14773,3.858646 12.14773,9.336743 0,6.599539 -4.28288,8.846112 -11.86368,8.846112 m 13.54953,-44.020289 -18.18286,22.39564 h -0.21027 v -22.39564 h -4.49314 v 47.391993 c 2.87738,0.14018 5.61459,0.206581 10.59836,0.206581 8.56575,0 15.30547,-2.947474 15.30547,-11.653406 0,-8.705931 -7.09017,-13.269167 -16.14655,-13.409348 1.4018,-1.541982 3.01757,-3.371704 4.28288,-4.913687 l 14.81484,-17.622133 z"
         style="fill:#000000;fill-opacity:1;fill-rule:nonzero;stroke:none;stroke-width:1"
         id="path937" /><path
         d="m 727.24541,-38.725294 c -2.17648,0 -3.86233,0 -5.47441,-0.14018 v -20.713478 c 1.4018,-0.21027 3.01388,-0.35045 4.69973,-0.35045 8.14521,0.07009 13.06259,4.423056 13.06259,10.882414 0,6.73972 -4.00621,10.321694 -12.28791,10.321694 m -1.12144,-24.922574 c -1.47558,0 -2.95117,0.0664 -4.35297,0.21027 v -19.167805 h -4.49683 v 47.388304 c 3.23152,0.14387 6.8799,0.21396 10.81232,0.21396 10.46188,0 16.14655,-5.478097 16.14655,-13.269168 0,-9.270342 -8.00134,-15.375561 -18.10907,-15.375561"
         style="fill:#000000;fill-opacity:1;fill-rule:nonzero;stroke:none;stroke-width:1"
         id="path941" /><path
         d="m 781.64494,-38.444195 c -8.84611,0 -16.56709,-7.234039 -16.56709,-20.008887 0,-12.287906 5.40431,-20.853658 16.497,-20.853658 8.77602,0 16.64087,7.16026 16.64087,20.078978 0,13.202766 -6.179,20.783567 -16.57078,20.783567 m -0.63081,-44.721191 c -14.04385,0 -20.78357,9.547014 -20.78357,23.797443 0,15.939971 9.97124,24.712304 21.97879,24.712304 12.98512,0 20.84997,-8.705932 20.84997,-23.797443 0,-15.869881 -9.97124,-24.712304 -22.04519,-24.712304"
         style="fill:#000000;fill-opacity:1;fill-rule:nonzero;stroke:none;stroke-width:1"
         id="path945" /><path
         d="m 823.69127,-82.605403 v 47.391993 h 4.49315 v -43.673527 h 18.11276 v -3.718466 z"
         style="fill:#000000;fill-opacity:1;fill-rule:nonzero;stroke:none;stroke-width:1"
         id="path949" /><path
         d="m 864.05433,-82.605403 v 47.391993 h 23.38059 v -3.652064 h -18.88744 v -17.481954 h 17.97258 v -3.581974 h -17.97258 v -18.957535 h 18.88744 v -3.718466 z"
         style="fill:#000000;fill-opacity:1;fill-rule:nonzero;stroke:none;stroke-width:1"
         id="path953" /><path
         d="m 650.66125,-58.837103 c 0,13.413037 10.59468,24.273318 24.26963,24.273318 13.67864,0 24.26963,-10.860281 24.26963,-24.273318 0,-13.409348 -10.59099,-24.269629 -24.26963,-24.269629 -13.67495,0 -24.26963,10.860281 -24.26963,24.269629"
         style="fill:#b3a57f;fill-opacity:1;fill-rule:nonzero;stroke:none;stroke-width:1"
         id="path957" /></g><path
       d="m 770.19627,-121.50321 1.64896,-0.49063 0.75624,-0.10329 0.39472,0.22134 0.54965,-0.16232 0.71566,-0.2656 0.54596,-0.16232 c 0,0 1.27269,0.3025 1.6047,0.94069 0.24347,0.38734 0.0959,0.9997 0.0959,0.9997 l -0.14387,0.61606 -0.33938,0.44267 -0.54228,0.16232 -0.059,0.47218 c 0,0 1.39442,-0.41316 1.43869,-0.25822 0.048,0.15862 0.5349,2.01048 0.68983,2.53062 0.15494,0.52383 -0.12542,2.49004 -1.27268,3.973 -0.35414,0.78944 -0.57179,0.96651 -0.57179,0.96651 l -0.56441,-0.80051 -3.26104,0.79682 -0.41685,0.17707 -2.39044,0.65663 -0.43899,0.47219 -0.0664,0.24347 -0.36521,0.10698 c 0,0 -0.81894,0.36521 0.26561,0.89642 0.48325,0.0848 1.28007,-0.15494 1.28007,-0.15494 l 0.57916,-0.2324 0.65295,-0.29881 1.0329,-0.30618 1.37598,-0.4685 0.51277,-0.0922 c 0,0 0.44267,-0.048 0.63081,-0.0775 -0.048,0.0406 0.10329,0.13649 0.10329,0.13649 l -0.82264,0.36521 -0.23978,0.29511 -2.41257,0.77099 -0.11805,0.2693 -1.34647,0.5681 -0.85215,0.25453 -1.12513,0.44637 -0.38365,0.28036 -3.49713,0.92961 -3.01756,0.94807 c 0,0 -0.17338,-0.57917 -0.45005,-0.60499 -0.2693,-0.0369 -1.25425,0.20289 -1.25425,0.20289 l -0.0332,0.80419 -3.73322,1.22104 -0.18076,-0.16969 -1.23211,0.3025 -0.16231,0.332 -1.28376,0.38365 c 0,0 -0.15863,-0.12911 -0.25085,-0.21027 -0.0369,-0.0184 -0.0516,-0.0406 -0.0627,-0.0443 0.0111,0.004 0.0258,0.0258 0.0627,0.0443 0.25085,0.21027 -1.15464,0.33939 -1.15464,0.33939 l -0.29143,-0.30987 c 0,0 -0.27667,-0.26192 -0.54596,-0.059 -0.27299,0.18445 -0.18076,0.49801 -0.18076,0.49801 0,0 -4.01359,1.19153 -4.85836,1.27269 -0.82632,0.0738 -2.40151,0.37258 -2.40151,0.37258 l -1.43131,0.48695 -1.85554,0.4316 -0.90011,0.0922 -2.0363,0.265603 -1.63052,0.320939 -1.03291,0.07009 -0.498,-0.129113 -0.73042,-0.24716 -0.44267,-0.154936 0.50907,-0.490633 0.52015,-0.27298 0.30618,-0.0332 -0.0922,-0.31356 -0.4021,-0.0443 c 0,0 -2.28346,0.33569 -2.76303,0.7009 -0.48694,0.37259 -0.0443,0.527522 -0.0443,0.527522 l -0.63819,0.298805 -0.30988,-0.132802 -0.9997,-0.04796 -1.3022,0.276672 -0.64926,-0.379963 c 0,0 -0.26929,-0.258224 -0.55703,-0.118046 -0.29512,0.14018 -0.23241,0.756235 -0.23241,0.756235 l -0.36889,0.332006 -1.6047,-0.0332 -0.39102,-0.232404 -1.71906,0.45743 -0.75992,-0.110669 h -0.59023 l -0.46112,-0.206581 -0.15125,0.154936 -1.37598,0.298805 -0.57917,-0.169692 -1.0993,0.261916 -0.5349,-0.232404 -0.68615,-0.08116 -0.32463,-0.191826 -1.84816,0.667701 -1.85924,-0.02213 -1.26162,-0.02582 -1.53829,0.402096 -0.41316,-0.05165 -0.85215,0.02582 -1.42763,0.01844 -1.14357,0.143869 -0.97389,-0.06271 -0.78943,0.206581 -1.14358,-0.02951 -1.93301,0.132802 -0.65295,-0.04058 -1.32433,-0.02951 -0.0406,-0.202893 -1.29113,-0.01107 -1.5715,0.442675 -0.37996,-0.173381 -1.09562,-0.01476 -0.75992,0.24716 -0.8042,0.118047 -0.8005,-0.147558 -0.72672,-0.140181 -1.7043,0.350451 -0.79313,-0.391029 -0.33569,-0.188137 -1.66372,0.365207 c 0,0 -0.33938,-0.206582 -0.71934,-0.335695 -0.35783,-0.132803 -0.937,-0.09591 -0.937,-0.09591 l -0.88904,0.162314 -0.35045,-0.07747 -0.66032,-0.173381 -0.47588,-0.05165 -1.16939,0.147558 -0.61237,-0.01476 c 0,0 -0.38734,-0.02213 -0.61974,-0.03689 0.61974,0.03689 -0.42423,-0.221338 -0.42423,-0.221338 l -1.62314,0.306183 -0.1697,-0.258226 -0.81157,-0.04796 -0.48694,-0.173381 -1.08086,0.184448 -0.4021,-0.166003 -0.88166,-0.04427 -0.61605,-0.0332 -0.77099,0.154936 -0.33201,-0.269293 -0.43161,-0.350451 -0.44267,-0.114358 -0.28036,0.158625 -0.12543,0.180759 -0.0775,0.0037 -0.39841,-0.05902 -0.50908,0.07009 -0.166,-0.324628 -0.65295,-0.328317 c 0.19552,0.01844 0.40948,0 0.77837,-0.09222 0.32094,0.612367 0.83002,0.549654 1.3723,0.324628 0.21395,-0.08485 0.4316,-0.391029 0.78205,-0.424229 0.16601,-0.01844 0.30619,0.250848 0.47957,0.239782 0.37996,-0.03689 0.62712,-0.269294 1.00339,-0.24716 0.27667,0.02213 0.46112,0.180758 0.69722,0.261915 0.42422,0.129114 0.28773,0.206582 0.82263,0.180759 0.97389,-0.04058 1.9035,-0.560721 1.35385,-1.409177 -0.39841,0.1328 -0.75624,0.402093 -1.11038,0.593918 -0.67139,-0.413158 -0.91486,-0.158625 -1.61207,-0.195514 -0.18076,-0.468494 -0.49063,-0.335694 -0.9001,-0.379964 -0.15494,-0.0184 -0.3689,0.10329 -0.54966,0.0664 -0.14387,-0.0184 -0.35414,-0.28773 -0.49432,-0.36151 -0.46112,0.4316 -0.49801,0.774675 -0.16231,1.272684 -0.4353,-0.180759 -0.81526,0.04427 -1.16571,-0.0664 -0.32463,-0.08854 -0.35783,-0.365206 -0.59392,-0.486942 -0.55335,-0.320942 -1.37967,0.184448 -1.87399,-0.202892 -0.59024,-0.47219 0.21027,-0.83739 0.22871,-1.28376 0.0185,-0.36151 -0.33569,-0.42423 -0.40209,-0.67876 -0.0701,-0.26561 0.21027,-0.43899 -0.0148,-0.71197 -0.59023,0.29512 -0.84846,0.15862 -0.91486,0.70459 -0.0369,0.37996 0.28774,0.4021 0.42792,0.7009 0.26929,0.60499 -0.26192,0.87059 -0.83002,1.368601 -0.004,0 -0.0147,-0.01106 -0.007,-0.01844 l 0.0516,-0.0553 -0.0516,0.0553 -0.12912,0.140181 c 0.048,-0.05165 0.0885,-0.08116 0.13649,-0.121736 -0.0147,0.01844 -0.0147,0.02213 0.004,0.05533 0.0553,0.01107 0.0959,0.01476 0.13649,0.02213 -0.21027,0.05533 -0.37627,0.103291 -0.37627,0.103291 l -0.19182,0.232404 0.048,0.225026 -0.22502,0.350451 -0.3025,0.08854 -0.2324,-0.103291 -0.6013,0.01844 -0.22134,-0.147558 -0.27298,-0.143869 -0.34676,0.01844 -0.69722,0.05902 -0.64187,-0.121736 -1.18416,-0.05902 -0.71934,-0.118047 -1.76332,-0.549656 -1.30221,0.14756 -0.98495,-0.16231 h -0.91117 l -1.39442,-0.35045 -1.25056,0.22133 -4.33083,-0.74885 -3.2721,-0.0812 -0.87797,-0.48325 -1.49034,0.29511 -1.51985,-0.44636 -2.08057,-0.15494 -1.94777,0.0111 c 0,0 -0.64188,-0.28405 -1.41287,-0.32463 -0.77099,-0.0332 -1.67847,-0.25085 -1.67847,-0.25085 l -1.25793,0.0111 -0.91855,-0.54228 -1.33909,0.2029 c 0,0 -2.76672,-0.44637 -2.9733,-0.53859 -0.20289,-0.0922 -0.65295,-0.0627 -0.65295,-0.0627 l -0.62343,-0.059 -2.08426,-0.43529 -1.72274,-0.6013 -1.02184,-0.17707 -0.63819,-0.10329 -0.4353,-0.36152 c 0,0 -0.5681,-0.47219 -1.38704,-0.6677 -0.81895,-0.19552 -1.75963,-0.46112 -1.75963,-0.46112 0,0 -0.80788,0.17338 -1.02553,0.1992 -0.22134,0.0184 -1.02922,-0.2656 -1.02922,-0.2656 0,0 -0.90748,-0.25454 -1.12882,-0.32463 -0.22503,-0.059 -2.63391,-0.59023 -2.80361,-0.63081 -0.15862,-0.0369 -3.31268,-1.01078 -3.47868,-1.06242 -0.17338,-0.0627 -1.6711,-0.4021 -1.6711,-0.4021 l -0.82632,-0.14755 -0.86322,-0.15863 -1.30958,-0.22503 -0.92223,-0.29142 c 0,0 -0.2029,-0.78206 -0.35414,-1.01815 -0.14387,-0.23979 -1.37967,-0.37628 -1.60839,-0.46112 -0.22134,-0.0885 -2.72245,-0.74148 -2.85525,-1.01078 -0.12911,-0.26929 -1.11037,-0.48694 -1.35384,-0.62343 -0.25085,-0.14756 -0.43899,-0.20289 -0.43899,-0.20289 l -1.35754,0.32094 -0.88534,-0.0922 -0.7378,-0.5017 -0.0406,-0.33569 0.0332,-0.4021 c 0,0 -7.69147,-3.44917 -10.11512,-4.87679 -2.43102,-1.41656 -10.00813,-5.73264 -13.89997,-9.10434 0,0 -1.4387,-3.05077 -1.94408,-4.75506 -0.50539,-1.70061 -1.01447,-3.41598 -0.58655,-4.69973 0.42423,-1.28376 1.95884,-3.36433 2.57489,-4.00621 0.61606,-0.64556 2.15804,-1.80389 1.9699,-2.44208 l -0.19182,-0.64557 4.51528,-0.166 c 0,0 2.35724,-0.24347 3.52664,-0.82264 1.17309,-0.57548 2.53062,-0.52014 2.53062,-0.52014 l 1.67848,0.1992 c 0,0 1.61207,-0.0148 2.53431,-0.51645 0.92224,-0.50908 2.1691,0.0443 2.1691,0.0443 l 4.75875,-1.16939 c 0,0 0.68246,0.49063 1.91826,0.12173 1.2358,-0.36889 5.00591,-1.25055 5.00591,-1.25055 0,0 1.05873,0.84477 5.45227,0.23609 l 4.39355,-0.61606 c 0,0 1.05504,-0.0701 2.78516,-0.58654 1.73012,-0.51276 2.84418,-0.38365 2.84418,-0.38365 0,0 2.96961,0.048 4.62964,-0.67508 1.67478,-0.72303 2.92903,0.78575 6.49994,-0.77099 1.6674,-0.72673 2.47528,0.19182 2.47528,0.19182 0,0 2.16911,0.0516 2.84788,-0.37996 0.67876,-0.43161 2.66342,-0.0885 2.66342,-0.0885 0,0 4.93951,-1.46452 5.99455,-1.55305 1.05504,-0.0738 3.58935,-0.59392 3.58935,-0.59392 0,0 5.26414,-1.33172 6.23803,-1.62314 0.99233,-0.29512 4.02833,-0.0406 4.71079,-0.4685 0.67508,-0.43161 10.32538,-2.36462 10.32538,-2.36462 0,0 2.83681,-0.38365 4.63333,-0.68246 1.79652,-0.2988 4.02096,-0.95913 4.02096,-0.95913 l 4.20541,-1.24686 1.41287,-0.65295 1.11037,-0.79681 2.41258,-0.94437 c 0,0 3.88816,-2.31298 5.85437,-3.82176 0.63819,-0.49432 0.57547,-0.27667 0.85952,-0.49432 0.3025,-0.2324 0.8706,-0.19182 0.63082,0.0332 0,0 -1.24687,1.04766 -6.16794,4.62964 -0.87797,0.6345 -2.09901,1.08824 -2.09901,1.08824 l -0.39472,0.31725 c 0,0 -0.89273,0.31725 -0.64188,0.52752 0.26192,0.20658 0.68984,0.5349 0.68984,0.5349 l 0.59023,0.45005 0.41685,-0.17707 c 0,0 -0.2656,-0.66032 -0.12911,-0.87428 0,0 0.0406,-0.52752 0.22502,-0.58286 0.18445,-0.0516 0.56441,0.12174 0.56441,0.12174 l 0.42792,0.56072 0.38365,0.39472 0.50539,-0.32094 0.51646,-0.26929 0.57916,0.17338 0.29881,0.3652 0.92961,-0.90379 1.84817,-0.65663 0.16969,0.33938 -0.23978,0.30249 -0.28774,0.37628 -0.30249,0.0885 -0.18445,0.28036 -0.35783,0.10329 -0.37627,0.34677 -0.17707,0.27667 0.15862,0.29511 0.44268,-0.0775 0.70828,-0.26561 0.48694,-0.14387 0.81157,-0.18445 0.23978,0.15863 0.0406,0.78575 c 0,0 -1.39074,1.55673 -1.56412,1.88505 -0.15862,0.3357 -0.77099,0.52014 -0.77099,0.52014 l -0.15125,0.15863 -0.007,0.62343 0.4353,0.15863 0.39841,-0.004 0.6013,-0.22872 -0.0553,-0.62343 0.45743,-0.24347 0.59393,-0.007 0.34307,0.0738 0.21765,0.27298 0.0627,0.44268 -0.23978,0.0701 -0.0258,0.34676 -0.34307,-0.0148 -0.40209,0.18445 -0.20659,0.22503 -0.0553,0.24716 -0.3357,0.21027 0.14387,0.47587 0.51646,-0.0369 0.26191,0.88904 -0.65294,0.25085 -0.059,0.47219 -0.25453,0.24716 -0.29512,0.31356 -0.16969,0.33938 -0.45374,0.0184 -0.059,0.23978 -0.94806,0.3984 c 0,0 0.22134,1.41656 -0.0479,1.61577 -0.27299,0.19182 -0.74148,0.38734 -0.74148,0.38734 l -0.52015,0.26929 -0.39102,0.2324 -0.12174,0.48695 -0.24347,0.30249 -1.103,0.26929 c 0,0 -0.0516,0.70091 -0.29511,0.82633 -0.21765,0.12911 -1.1362,0.166 -1.49772,0.0517 -0.47956,0.14018 0.0369,1.23948 0.0369,1.23948 l -0.59023,0.2361 -0.33939,-0.24716 -0.30618,-0.35783 -0.1992,-0.23241 c 0,0 -0.34677,-0.0664 -0.54966,0.16232 -0.19182,0.22871 -0.19182,0.45743 -0.19182,0.45743 l 0.20289,0.45005 0.0516,0.61606 -0.32831,0.26929 -1.06611,0.37258 -0.10329,0.31357 -3.11717,1.09562 -0.38734,0.22871 -1.1362,0.45374 -0.26191,0.42054 -0.46481,0.25085 -0.32463,0.21027 -0.39472,0.22503 0.0664,0.21765 -0.9038,0.32094 -0.31356,-0.19552 -0.23609,-0.32463 c 0,0 -0.20658,-0.0516 -0.44637,0.0812 -0.22502,0.11805 -0.44636,0.24347 -0.44636,0.24347 l -0.16231,0.33201 -0.048,0.30249 -0.97388,0.28774 -3.86972,1.19891 c 0,0 -0.87797,0.8337 -1.29851,0.95913 -0.42423,0.12542 -0.79681,0.007 -0.79681,0.007 l -0.37628,-0.11805 -0.33569,0.16231 -0.27667,0.41685 -0.27298,0.19921 -1.09193,0.32094 -0.27299,-0.25823 -0.49801,0.14756 -0.30987,0.25823 -0.13649,0.21395 -9.96386,2.95486 c 0,0 -0.71566,-0.41317 -0.9038,-0.35783 -0.17707,0.0516 -9.79786,2.39413 -11.38042,2.6376 -1.57887,0.23978 -1.97728,0.23978 -1.97728,0.23978 l -1.88137,0.56072 -0.25822,-0.20658 -5.13872,1.41287 -1.54567,0.11436 -0.50908,0.0922 -0.44267,-0.15124 -0.79681,0.40578 v 0.45005 l 0.44267,0.38365 0.64557,0.15494 1.38336,-0.0148 1.02184,0.32463 0.69721,0.14387 0.72672,-0.21396 0.97757,-0.0701 0.90011,0.58655 0.62712,-0.12543 1.38336,-0.0148 0.52383,0.64187 1.08824,-0.32094 0.65664,-0.0295 0.8337,-0.0738 1.72643,0.46481 c 0,0 0.85215,0.42423 1.47189,0.3025 0.63081,-0.13281 1.20998,0.0406 1.20998,0.0406 0,0 0.57917,0.39472 1.06611,0.25085 0.47956,-0.14387 1.3022,-0.27667 1.3022,-0.27667 0,0 3.61517,1.269 6.51838,1.04029 0.65295,-0.0295 0.89642,0.12542 0.89642,0.12542 0,0 1.82234,1.22842 4.99484,0.34307 0.5017,-0.0885 1.87768,0.0701 1.87768,0.0701 l 0.98495,-0.004 0.36521,0.11804 0.50538,0.36152 1.03291,-0.0738 0.28036,0.0295 c 0,0 1.68954,0.35045 3.0397,0.2361 0.3984,-0.004 0.73779,0.23609 0.73779,0.23609 l 1.63789,-0.25454 c 0,0 0.37259,0.57179 2.39414,1.17309 0.55334,0.0553 1.47558,-0.15863 1.77807,-0.25085 0.30618,-0.0885 1.12882,0.0111 1.12882,0.0111 l 0.83739,-0.0775 0.78575,-0.23241 0.43899,-0.0738 1.74856,0.50908 c 0,0 0.67139,-0.14756 0.87059,-0.14387 0.19921,-0.004 0.46481,-0.0258 0.46481,-0.0258 l 0.35783,0.0627 0.23609,0.15863 0.50539,0.3652 0.8669,-0.1992 0.30619,-0.0885 0.99602,0.0443 c 0,0 0.50907,0.36152 0.82632,0.32463 0.31725,-0.0369 1.73381,-0.4021 1.73381,-0.4021 l 0.91117,0.41317 c 0,0 0.81157,0.0443 1.43132,-0.0738 0.63081,-0.13281 1.18415,0.38365 1.18415,0.38365 l 2.10639,-0.45374 1.08824,0.53121 1.60839,-0.36152 0.45743,0.20289 0.88904,-0.0885 1.08824,0.0775 1.18784,-0.23609 1.26162,0.0185 0.39472,0.45374 1.81866,-0.36521 c 0,0 0.62343,0.32463 1.00339,0.5017 0.6345,-0.0775 3.09503,-0.69352 3.09503,-0.69352 0,0 0.28405,0.25453 1.17309,0.16231 0.90011,-0.0959 3.61887,-0.50539 3.61887,-0.50539 0,0 1.70798,0.40948 3.0028,0.30619 1.28745,-0.0922 1.03291,0.15493 1.03291,0.15493 0,0 2.46791,-0.39103 2.81836,-0.55334 0.34307,-0.15494 0.97757,0.166 0.97757,0.166 0,0 1.22474,-0.0738 1.46821,-0.14756 0.24716,-0.0738 1.53829,-0.166 1.78914,-0.19182 0.26192,-0.0221 1.84448,-0.0295 1.84448,-0.0295 0,0 0.47587,0.25085 0.89273,0.12542 0.4316,-0.12911 1.45344,-0.48694 1.45344,-0.48694 0,0 2.4716,-0.10698 3.04339,0.007 0.55334,0.12542 1.3686,-0.29143 1.60838,-0.36152 0.2361,-0.0701 2.05844,-0.66032 2.05844,-0.66032 0,0 1.4018,-0.13649 1.60101,-0.13649 0.1992,-0.007 1.57149,0.38365 1.88874,0.35045 0.32094,-0.0332 4.12794,-0.76731 4.72924,-1.0034 0.58654,-0.2324 4.09474,-0.47587 4.09474,-0.47587 0,0 2.93272,0.10329 3.59304,0.30618 0,0 5.13134,-1.18047 5.58508,-1.42763 0.45374,-0.25085 1.8039,0.49063 2.11746,0.45006 0.31725,-0.0369 4.25336,-1.02922 5.03173,-1.32065 0.40579,-0.17707 0.70459,0.35783 0.70459,0.35783 l 2.45315,-0.61237 2.23551,-0.49063 c 0,0 0.70828,0.12911 1.1362,0.004 0.42423,-0.12542 1.36122,-0.0553 1.36122,-0.0553 l 0.62713,0.0922 c 0,0 2.00679,-0.36152 2.32404,-0.39841 0.31356,-0.0443 0.90379,0.35414 0.90379,0.35414 l 0.81526,0.0996 0.43161,-0.12911 0.0738,-0.41685 0.64556,-0.25085 c 0,0 0.21027,0.048 0.57179,0.11436 0.34676,0.0664 0.71197,0.18813 0.71197,0.18813 0,0 0.15125,0.0701 0.34676,0.0664 0.20289,0 1.11038,-0.26561 1.11038,-0.26561 0,0 0.85214,0.42423 0.98126,0.61974 0.12542,0.18445 -0.11436,0.71197 -0.11436,0.71197 l -0.30618,0.32463 -0.2693,0.19183 -0.62343,0.35783 0.30618,0.12911 0.71197,-0.0332 0.56441,-0.10698 0.47219,0.48325 0.0811,0.71566 0.32832,1.32802 -0.0443,0.52752 -0.87797,0.37259 c 0,0 -0.0738,0.42054 -0.31356,0.49063 -0.24716,0.0738 -0.98864,0.23978 -0.98864,0.23978 l -1.19153,0.0111 -0.60499,0.18076 -0.7341,0.21764 -0.42054,0.12543 -0.4685,0.19182 -0.35045,0.16232 0.21027,0.28036 z"
       style="fill:#b3a57f;fill-opacity:1;fill-rule:nonzero;stroke:none;stroke-width:1"
       id="path961" /></g></svg>
