<svg aria-hidden="true" focusable="false" xmlns="http://www.w3.org/2000/svg" width="397" viewBox="0 0 637.8 283.46" style="background-color: #C10230;">
<g fill="#ffcd00">
<path d="m159.91 68.13c-3.15 0-5.7 2.55-5.7 5.71v135.96c0 3.15 2.55 5.71 5.7 5.71s5.7-2.56 5.7-5.71v-135.96c.01-3.15-2.55-5.71-5.7-5.71z"></path>
<path d="m184.99 78.07c-3.15 0-5.7 2.55-5.7 5.71v116.1c0 3.15 2.55 5.71 5.7 5.71s5.7-2.56 5.7-5.71v-116.11c.01-3.15-2.55-5.7-5.7-5.7z"></path>
<path d="m210.07 99.92c-3.15 0-5.7 2.55-5.7 5.71v72.31c0 3.15 2.55 5.71 5.7 5.71s5.7-2.55 5.7-5.71v-72.31c0-3.15-2.55-5.71-5.7-5.71z"></path>
<ellipse cx="235.51" cy="141.73" rx="8.98" ry="8.97" transform="matrix(.00142562 -1 1 .00142562 93.4422 377.0401)"></ellipse>
<path d="m149.7 52.94c1.06-1.47 1.69-3.27 1.69-5.23 0-4.96-4.02-8.98-8.97-8.98s-8.97 4.02-8.97 8.98c0 2.32.89 4.43 2.33 6.02-7.72 9.35-17.86 15.03-21.78 17-1.37-3.2-4.55-5.44-8.25-5.44-4.96 0-8.97 4.02-8.97 8.98s4.02 8.98 8.97 8.98c2.03 0 3.89-.68 5.39-1.82 9.91 15.27 12.71 33.33 13.5 42.36-9.05-.78-27.12-3.56-42.39-13.49 1.08-1.48 1.72-3.3 1.72-5.27 0-4.96-4.02-8.98-8.97-8.98-4.96 0-8.97 4.02-8.97 8.98 0 3.73 2.27 6.92 5.5 8.28-2.25 4.5-8.69 16.19-17.67 22.27-1.64-1.75-3.96-2.84-6.54-2.84-4.96 0-8.97 4.02-8.97 8.98s4.02 8.98 8.97 8.98c2.59 0 4.91-1.1 6.55-2.86 8.98 6.08 15.41 17.79 17.66 22.28-3.23 1.36-5.5 4.55-5.5 8.28 0 4.96 4.02 8.98 8.97 8.98 4.96 0 8.97-4.02 8.97-8.98 0-1.97-.64-3.79-1.72-5.27 15.28-9.94 33.36-12.72 42.4-13.49-.78 9.02-3.56 27.04-13.51 42.36-1.5-1.13-3.37-1.82-5.39-1.82-4.96 0-8.97 4.02-8.97 8.98s4.02 8.98 8.97 8.98c3.7 0 6.88-2.24 8.25-5.44 3.92 1.96 14.04 7.61 21.78 17-1.45 1.59-2.34 3.7-2.34 6.03 0 4.96 4.02 8.98 8.97 8.98s8.97-4.02 8.97-8.98c0-1.95-.63-3.75-1.69-5.23-7.71-13.23-20.09-21.7-27.32-25.79 13.6-23.32 13.57-49.72 13.56-50.91l-.04-5.41-5.4-.05c-1.2-.01-27.58-.08-50.89 13.51-3.04-5.5-8.4-13.88-15.7-20.15 7.3-6.26 12.66-14.63 15.7-20.13 23.31 13.59 49.7 13.52 50.9 13.51l5.4-.05.04-5.41c.01-1.19.04-27.59-13.56-50.91 7.24-4.07 19.62-12.53 27.32-25.77z"></path>
</g>
<g fill="#fff">
<path d="m293.75 167.39c-14.3 0-25.51-10.72-25.51-24.4 0-13.83 10.97-24.26 25.51-24.26 14.3 0 25.51 10.66 25.51 24.26 0 13.69-11.2 24.4-25.51 24.4zm.07-41.8c-9.79 0-17.75 7.81-17.75 17.41 0 9.67 7.96 17.54 17.75 17.54 9.67 0 17.54-7.87 17.54-17.54.01-9.76-7.7-17.41-17.54-17.41z"></path>
<path d="m344.19 167.32c-10.81 0-18.36-7.58-18.36-18.43 0-10.93 7.55-18.56 18.36-18.56 6.37 0 11.53 2 14.94 5.79l-4.05 4.76c-2.68-2.65-6.22-4.05-10.26-4.05h-.27c-6.61 0-11.23 4.96-11.23 12.06s4.62 12.06 11.23 12.06c4.61 0 8.37-1.49 10.91-4.33l4.09 4.09c-3.39 4.33-8.69 6.61-15.36 6.61z"></path>
<path d="m383.17 167.32c-10.81 0-18.36-7.58-18.36-18.43 0-10.93 7.55-18.56 18.36-18.56 6.37 0 11.53 2 14.94 5.79l-4.05 4.76c-2.68-2.65-6.22-4.05-10.26-4.05h-.27c-6.61 0-11.23 4.96-11.23 12.06s4.62 12.06 11.23 12.06c4.61 0 8.37-1.49 10.91-4.33l4.09 4.09c-3.39 4.33-8.69 6.61-15.36 6.61z"></path>
<path d="m407.45 167.05v-36.43h7.41v36.43zm3.7-42.71c-2.51 0-4.4-1.95-4.4-4.54 0-2.63 1.89-4.61 4.4-4.61s4.4 1.98 4.4 4.61c0 2.59-1.89 4.54-4.4 4.54z"></path>
<path d="m439.99 167.39c-2.37 0-10.09-.76-10.09-10.51v-19.42h-5.21v-5.46h5.21v-10.14h7.41v10.14h10.9v5.46h-10.9v17.96c0 3.63 1.3 5.25 4.21 5.25 1.54 0 3.22-.46 5.4-1.5l1.86 5.64c-2.92 1.72-5.87 2.58-8.79 2.58z"></path>
<path d="m467.65 167.39c-7.5 0-12.73-4.61-12.73-11.2 0-6.63 5.25-10.79 13.71-10.86h11.43v-1.37c0-4.95-3.22-7.68-9.07-7.68-3.55 0-7.19 1.22-10.82 3.64l-3-5.1c5.15-3.04 8.84-4.49 15.55-4.49 9.26 0 14.61 4.64 14.68 12.74l.07 23.98h-7.34v-4.65l-1.64 1.48c-2.54 2.3-6.29 3.51-10.84 3.51zm2.16-16.73c-5.46 0-7.89 1.6-7.89 5.18 0 3.49 2.91 5.74 7.41 5.74 5.79 0 10.31-3.05 10.74-7.24v-3.68z"></path>
<path d="m527.3 167.05v-20.51c0-5.68-3.5-9.21-9.14-9.21-6.02.07-10.13 4.02-10.74 10.3v19.42h-7.48v-36.43h7.48v7.23l1.76-2.33c2.6-3.44 6.67-5.18 12.1-5.18 8.32 0 13.49 5.36 13.49 13.98v22.73z"></path>
<path d="m547.26 167.05v-36.43h7.41v36.43zm3.7-42.71c-2.51 0-4.4-1.95-4.4-4.54 0-2.63 1.89-4.61 4.4-4.61s4.4 1.98 4.4 4.61c0 2.59-1.89 4.54-4.4 4.54z"></path>
<path d="m583.41 167.32c-11.15 0-18.63-7.4-18.63-18.43 0-10.86 7.58-18.49 18.43-18.56 5.56 0 9.85 1.58 12.75 4.69 3.36 3.61 4.81 9.2 4.31 16.61h-28.05l.37 1.25c1.54 5.24 5.93 8.49 11.47 8.49 3.99 0 7.67-1.49 10.41-4.19l3.89 4.15c-3.69 3.92-8.85 5.99-14.95 5.99zm-.14-31.11c-5.65 0-9.73 3.33-10.92 8.91l-.25 1.18h21.76l-.11-1.08c-.6-5.64-4.51-9.01-10.48-9.01z"></path>
<path d="m268.24 104.87.08-26.58 4.88.08-.08 22.03 11.38.08-.08 4.39z"></path>
<path d="m293.91 105.06c-4.22 0-7.17-2.61-7.17-6.35 0-3.82 2.88-6.13 7.69-6.16h5.73l.08-.4c0-2.48-1.57-3.79-4.54-3.79-1.88 0-3.81.67-5.74 1.98l-.25.17-1.93-3.45.21-.03c2.88-1.71 4.91-2.53 8.64-2.53 5.18 0 8.18 2.61 8.22 7.17l.04 13.29-4.69-.08.08-1.9v-.19l-.13.13c-1.44 1.39-3.6 2.14-6.24 2.14zm1.16-8.99c-2.77 0-3.9.71-3.9 2.45 0 1.69 1.4 2.75 3.64 2.75 2.93 0 5.22-1.51 5.43-3.59v-1.53z"></path>
<path d="m320.03 104.87.08-26.58 10.79.08c6.81 0 10.71 3.32 10.71 9.11 0 4.06-1.85 7.08-5.22 8.52l5.84 8.87h-5.53l-4.7-7.85c-.4-.02-.75-.02-1.11-.02h-5.91l-.08 7.95zm4.87-12.3 5.99.08c4.07 0 6.14-1.7 6.14-5.06 0-3.23-2.07-4.87-6.14-4.87h-5.99z"></path>
<path d="m355.28 105.02c-6.19 0-10.34-4.11-10.34-10.23 0-6.03 4.21-10.27 10.23-10.3 3.09 0 5.47.88 7.09 2.62 1.89 2.03 2.69 5.16 2.39 9.3l-.02.26-14.81-.07c.67 2.85 2.92 4.56 5.8 4.56 2.1 0 4.03-.8 5.45-2.25l.2-.21 2.54 2.82-.17.08c-2.06 2.24-4.94 3.42-8.36 3.42zm-.08-16.71c-2.87 0-5 1.78-5.56 4.65l10.79.09c-.18-2.99-2.16-4.74-5.23-4.74zm-3.15-6.11 4.31-6.01 4.94 2.16-4.99 3.85z"></path>
<path d="m377.23 112.22c-2.95 0-5.76-.89-8.35-2.64l-.22-.15 2.14-3.48.13.21c1.98 1.47 3.87 2.12 6.11 2.12 3.66 0 6.03-2.13 6.03-5.43v-1.85l-.14.18c-1.42 1.78-3.57 2.73-6.22 2.73-5.47 0-9.15-3.93-9.15-9.78 0-5.72 3.62-9.59 9-9.63 2.76 0 4.9.92 6.37 2.74l.14.17v-2.85l4.73.08-.08 18.1c0 5.75-4.12 9.48-10.49 9.48zm.33-23.87c-3.25 0-5.54 2.42-5.58 5.88.04 3.54 2.28 5.91 5.58 5.91 3.24 0 5.51-2.43 5.51-5.92 0-3.45-2.27-5.87-5.51-5.87z"></path>
<path d="m393.2 104.87.08-20.31 4.73.08-.08 20.23zm2.41-22.93c-1.54 0-2.7-1.19-2.7-2.77 0-1.6 1.16-2.81 2.7-2.81s2.7 1.21 2.7 2.81c-.01 1.58-1.17 2.77-2.7 2.77z"></path>
<path d="m412.57 105.02c-6.22 0-10.57-4.22-10.57-10.27 0-6.14 4.25-10.27 10.57-10.27 6.2 0 10.53 4.22 10.53 10.27s-4.33 10.27-10.53 10.27zm0-16.44c-3.46 0-5.88 2.56-5.88 6.22 0 3.74 2.36 6.25 5.88 6.25 3.44 0 5.84-2.57 5.84-6.25 0-3.67-2.4-6.22-5.84-6.22z"></path>
<path d="m427.09 104.87.08-20.31 4.76.08-.08 2.99v.26l.15-.21c1.45-2.11 3.8-3.19 6.96-3.19 4.68 0 7.58 3.01 7.58 7.84v12.54h-4.76l.08-11.35c0-2.89-1.71-4.61-4.57-4.61-3.04.04-5.12 2.04-5.43 5.23v10.81z"></path>
<path d="m276.58 180.19c4.89 0 7.69 2.42 7.69 6.64 0 4.39-2.81 6.94-7.69 6.94h-4.47v5.86h-3.28v-19.44zm-4.47 10.63h4.33c3 0 4.69-1.28 4.69-3.92 0-2.56-1.69-3.78-4.69-3.78h-4.33z"></path>
<path d="m293.82 201.66c-.92 2.33-2.58 3.5-4.8 3.5-1.33 0-2.39-.39-3.42-1.25l1.36-2.47c.69.5 1.25.72 1.92.72.97 0 1.75-.53 2.25-1.64l.5-1.11-6.11-14.55h3.3l4.42 11.19 4.11-11.19h3.19z"></path>
<path d="m306.12 187.8c1-2 2.78-3.05 5.11-3.05v3.05c-2.97-.17-4.86 1.58-5.11 4.11v7.72h-3.19v-14.78h3.19z"></path>
<path d="m326.87 193.46h-11.17c.5 2.28 2.25 3.69 4.58 3.69 1.61 0 3.08-.61 4.17-1.72l1.69 1.81c-1.44 1.58-3.56 2.5-6.11 2.5-4.56 0-7.55-3.03-7.55-7.47 0-4.47 3.08-7.5 7.47-7.53 5.2 0 7.31 3.39 6.92 8.72zm-2.78-2.33c-.11-2.39-1.69-3.83-4.11-3.83-2.33 0-3.97 1.47-4.33 3.83zm-6.16-8.39 2.94-4.11 3.28 1.39-3.39 2.72z"></path>
<path d="m344.34 190.43v9.19h-3.19v-8.3c0-2.22-1.33-3.58-3.56-3.58-2.44.03-3.97 1.72-4.19 4.03v7.86h-3.19v-14.78h3.19v2.83c1.06-2.05 2.94-2.94 5.44-2.94 3.44 0 5.5 2.17 5.5 5.69z"></path>
<path d="m361.61 193.46h-11.17c.5 2.28 2.25 3.69 4.58 3.69 1.61 0 3.08-.61 4.17-1.72l1.69 1.81c-1.44 1.58-3.56 2.5-6.11 2.5-4.56 0-7.55-3.03-7.55-7.47 0-4.47 3.08-7.5 7.47-7.53 5.2 0 7.31 3.39 6.92 8.72zm-2.78-2.33c-.11-2.39-1.69-3.83-4.11-3.83-2.33 0-3.97 1.47-4.33 3.83zm-6.16-8.39 2.94-4.11 3.28 1.39-3.39 2.72z"></path>
<path d="m377.94 193.46h-11.17c.5 2.28 2.25 3.69 4.58 3.69 1.61 0 3.08-.61 4.17-1.72l1.69 1.81c-1.44 1.58-3.56 2.5-6.11 2.5-4.56 0-7.55-3.03-7.55-7.47 0-4.47 3.08-7.5 7.47-7.53 5.2 0 7.31 3.39 6.92 8.72zm-2.78-2.33c-.11-2.39-1.69-3.83-4.11-3.83-2.33 0-3.97 1.47-4.33 3.83z"></path>
<path d="m390.85 186.21-1.17 2.36c-1.31-.81-2.94-1.31-4.25-1.31-1.25 0-2.17.42-2.17 1.47 0 2.72 7.86 1.25 7.83 6.61 0 3.03-2.69 4.39-5.67 4.39-2.17 0-4.47-.72-5.94-2.06l1.14-2.28c1.28 1.14 3.33 1.83 4.94 1.83 1.36 0 2.42-.47 2.42-1.58 0-3.03-7.78-1.33-7.75-6.67 0-3 2.61-4.28 5.44-4.28 1.87.02 3.85.58 5.18 1.52z"></path>
<path d="m400.82 192.27v-2.19h6.83v2.19z"></path>
<path d="m436.59 199.63-.03-14.53-6.14 12.5h-2.14l-6.14-12.5v14.53h-3.08v-19.44h3.89l6.42 12.92 6.39-12.92h3.86v19.44z"></path>
<path d="m457.55 193.46h-11.17c.5 2.28 2.25 3.69 4.58 3.69 1.61 0 3.08-.61 4.17-1.72l1.69 1.81c-1.44 1.58-3.56 2.5-6.11 2.5-4.56 0-7.55-3.03-7.55-7.47 0-4.47 3.08-7.5 7.47-7.53 5.2 0 7.31 3.39 6.92 8.72zm-2.78-2.33c-.11-2.39-1.69-3.83-4.11-3.83-2.33 0-3.97 1.47-4.33 3.83zm-6.16-8.39 2.94-4.11 3.28 1.39-3.39 2.72z"></path>
<path d="m474.96 199.63h-3.19v-2.53c-1.06 1.72-2.83 2.67-5.19 2.67-4.25 0-7.08-3.08-7.08-7.58 0-4.44 2.86-7.47 7.03-7.47 2.39 0 4.17.97 5.25 2.69v-8.39h3.19v20.61zm-3.19-7.33c0-2.86-1.86-4.86-4.53-4.86s-4.53 2.03-4.56 4.86c.03 2.81 1.86 4.8 4.56 4.8 2.67 0 4.53-2 4.53-4.8z"></path>
<path d="m483.26 180.63c0 1.11-.81 1.92-1.86 1.92-1.06 0-1.86-.81-1.86-1.92 0-1.14.81-1.94 1.86-1.94 1.06 0 1.86.8 1.86 1.94zm-3.44 19v-14.78h3.17v14.78z"></path>
<path d="m496.07 198.68c-1.17.69-2.39 1.08-3.64 1.08-2.22 0-4.14-1.28-4.14-4.3v-7.67h-2.08v-2.39h2.08v-4.05h3.17v4.05h4.36v2.39h-4.36v7.08c0 1.53.58 2 1.58 2 .67 0 1.36-.22 2.22-.64z"></path>
<path d="m511.84 193.46h-11.17c.5 2.28 2.25 3.69 4.58 3.69 1.61 0 3.08-.61 4.17-1.72l1.69 1.81c-1.44 1.58-3.56 2.5-6.11 2.5-4.56 0-7.55-3.03-7.55-7.47 0-4.47 3.08-7.5 7.47-7.53 5.2 0 7.31 3.39 6.92 8.72zm-2.78-2.33c-.11-2.39-1.69-3.83-4.11-3.83-2.33 0-3.97 1.47-4.33 3.83z"></path>
<path d="m518.36 187.8c1-2 2.78-3.05 5.11-3.05v3.05c-2.97-.17-4.86 1.58-5.11 4.11v7.72h-3.19v-14.78h3.19z"></path>
<path d="m529.31 187.8c1-2 2.78-3.05 5.11-3.05v3.05c-2.97-.17-4.86 1.58-5.11 4.11v7.72h-3.19v-14.78h3.19z"></path>
<path d="m545.33 197.82c-1.05 1.31-2.75 1.94-4.89 1.94-3.19 0-5.19-1.97-5.19-4.58 0-2.69 2.03-4.42 5.58-4.44h4.47v-.44c0-1.86-1.19-2.97-3.53-2.97-1.42 0-2.89.5-4.36 1.5l-1.31-2.22c2.05-1.22 3.56-1.86 6.36-1.86 3.81 0 5.94 1.94 5.97 5.19l.03 9.69h-3.14v-1.81zm-.03-3.39v-1.36h-4c-2.08 0-3.05.56-3.05 1.97 0 1.33 1.08 2.19 2.86 2.19 2.28.01 4.03-1.18 4.19-2.8z"></path>
<path d="m566.88 190.43v9.19h-3.19v-8.3c0-2.22-1.33-3.58-3.56-3.58-2.44.03-3.97 1.72-4.19 4.03v7.86h-3.19v-14.78h3.19v2.83c1.06-2.05 2.94-2.94 5.44-2.94 3.44 0 5.5 2.17 5.5 5.69z"></path>
<path d="m584.15 193.46h-11.17c.5 2.28 2.25 3.69 4.58 3.69 1.61 0 3.08-.61 4.17-1.72l1.69 1.81c-1.44 1.58-3.56 2.5-6.11 2.5-4.56 0-7.55-3.03-7.55-7.47 0-4.47 3.08-7.5 7.47-7.53 5.2 0 7.31 3.39 6.92 8.72zm-2.78-2.33c-.11-2.39-1.69-3.83-4.11-3.83-2.33 0-3.97 1.47-4.33 3.83zm-6.16-8.39 2.94-4.11 3.28 1.39-3.39 2.72z"></path>
<path d="m600.48 193.46h-11.17c.5 2.28 2.25 3.69 4.58 3.69 1.61 0 3.08-.61 4.17-1.72l1.69 1.81c-1.44 1.58-3.56 2.5-6.11 2.5-4.56 0-7.55-3.03-7.55-7.47 0-4.47 3.08-7.5 7.47-7.53 5.2 0 7.31 3.39 6.92 8.72zm-2.78-2.33c-.11-2.39-1.69-3.83-4.11-3.83-2.33 0-3.97 1.47-4.33 3.83z"></path>
</g>
</svg>
