<svg width="114" height="115" xmlns="http://www.w3.org/2000/svg"
  xmlns:xlink="http://www.w3.org/1999/xlink" xml:space="preserve" overflow="hidden"><defs><clipPath id="clip0"><rect x="1004" y="482" width="114" height="115"/></clipPath><clipPath id="clip1"><rect x="1004" y="482" width="114" height="115"/></clipPath><clipPath id="clip2"><rect x="1005" y="483" width="113" height="114"/></clipPath><clipPath id="clip3"><rect x="1005" y="483" width="113" height="114"/></clipPath><clipPath id="clip4"><rect x="1005" y="483" width="113" height="114"/></clipPath></defs><g clip-path="url(#clip0)" transform="translate(-1004 -482)"><g clip-path="url(#clip1)"><g clip-path="url(#clip2)"><g clip-path="url(#clip3)"><g clip-path="url(#clip4)"><path d="M744.593 100.179C743.479 93.2965 740.816 86.7572 736.804 81.0547L743.639 72.4664 734.47 63.2885 725.93 70.0802C720.276 66.0069 713.769 63.2717 706.903 62.0814L705.658 51.1644 692.686 51.1644 691.453 62.0114C684.572 63.1196 678.034 65.7795 672.333 69.7893L663.739 62.9541 654.57 72.132 661.362 80.6674C657.286 86.327 654.55 92.8396 653.363 99.7123L642.441 100.957 642.441 113.922 653.288 115.156C654.404 122.039 657.067 128.578 661.078 134.28L654.243 142.869 663.412 152.046 671.952 145.255C677.61 149.326 684.118 152.06 690.986 153.249L692.23 164.166 705.196 164.166 706.441 153.319C713.321 152.208 719.859 149.549 725.56 145.541L734.155 152.376 743.323 143.198 736.532 134.663C740.606 129.007 743.342 122.498 744.53 115.629L755.452 114.384 755.452 101.423ZM698.94 138.684C681.811 138.685 667.925 124.8 667.923 107.671 667.921 90.5416 681.808 76.655 698.936 76.654 716.065 76.6532 729.951 90.5384 729.953 107.667 729.953 107.669 729.953 107.67 729.953 107.671 729.951 124.799 716.068 138.683 698.94 138.684Z" fill="#65D5C5" fill-rule="nonzero" fill-opacity="1" transform="matrix(1 0 0 1.00885 362.56 431.379)"/><path d="M62.139 31.0695C62.139 48.2287 48.2287 62.139 31.0695 62.139 13.9103 62.139-6.64613e-07 48.2287-6.64613e-07 31.0695-6.64613e-07 13.9103 13.9103-6.64613e-07 31.0695-6.64613e-07 48.2287-6.64613e-07 62.139 13.9103 62.139 31.0695Z" fill="#FEFEFE" fill-rule="nonzero" fill-opacity="1" transform="matrix(1 0 0 1.00885 1030.53 508.677)"/><path d="M6.30941 3.1547C6.30941 4.897 4.897 6.30941 3.1547 6.30941 1.41241 6.30941 1.80988e-07 4.897 1.80988e-07 3.1547 1.80988e-07 1.41241 1.41241 1.80988e-07 3.1547 1.80988e-07 4.897 1.80988e-07 6.30941 1.41241 6.30941 3.1547Z" fill="#FEFEFE" fill-rule="nonzero" fill-opacity="1" transform="matrix(1 0 0 1.00885 1012.38 536.818)"/><path d="M6.30941 3.1547C6.30941 4.897 4.897 6.30941 3.1547 6.30941 1.41241 6.30941 1.80988e-07 4.897 1.80988e-07 3.1547 1.80988e-07 1.41241 1.41241 1.80988e-07 3.1547 1.80988e-07 4.897 1.80988e-07 6.30941 1.41241 6.30941 3.1547Z" fill="#FEFEFE" fill-rule="nonzero" fill-opacity="1" transform="matrix(1 0 0 1.00885 1103.48 536.818)"/><path d="M6.30941 3.1547C6.30941 4.897 4.897 6.30941 3.1547 6.30941 1.41241 6.30941 1.80988e-07 4.897 1.80988e-07 3.1547 1.80988e-07 1.41241 1.41241 1.80988e-07 3.1547 1.80988e-07 4.897 1.80988e-07 6.30941 1.41241 6.30941 3.1547Z" fill="#FEFEFE" fill-rule="nonzero" fill-opacity="1" transform="matrix(1 0 0 1.00885 1057.93 490.865)"/><path d="M6.30941 3.1547C6.30941 4.897 4.897 6.30941 3.1547 6.30941 1.41241 6.30941 1.80988e-07 4.897 1.80988e-07 3.1547 1.80988e-07 1.41241 1.41241 1.80988e-07 3.1547 1.80988e-07 4.897 1.80988e-07 6.30941 1.41241 6.30941 3.1547Z" fill="#FEFEFE" fill-rule="nonzero" fill-opacity="1" transform="matrix(1 0 0 1.00885 1057.93 582.77)"/><path d="M6.30941 3.1547C6.30941 4.897 4.897 6.30941 3.1547 6.30941 1.41241 6.30941 1.80988e-07 4.897 1.80988e-07 3.1547 1.80988e-07 1.41241 1.41241 1.80988e-07 3.1547 1.80988e-07 4.897 1.80988e-07 6.30941 1.41241 6.30941 3.1547Z" fill="#FEFEFE" fill-rule="nonzero" fill-opacity="1" transform="matrix(1 0 0 1.00885 1025.72 504.323)"/><path d="M6.30941 3.1547C6.30941 4.897 4.897 6.30941 3.1547 6.30941 1.41241 6.30941 1.80988e-07 4.897 1.80988e-07 3.1547 1.80988e-07 1.41241 1.41241 1.80988e-07 3.1547 1.80988e-07 4.897 1.80988e-07 6.30941 1.41241 6.30941 3.1547Z" fill="#FEFEFE" fill-rule="nonzero" fill-opacity="1" transform="matrix(1 0 0 1.00885 1090.14 569.311)"/><path d="M6.30941 3.1547C6.30941 4.897 4.897 6.30941 3.1547 6.30941 1.41241 6.30941 1.80988e-07 4.897 1.80988e-07 3.1547 1.80988e-07 1.41241 1.41241 1.80988e-07 3.1547 1.80988e-07 4.897 1.80988e-07 6.30941 1.41241 6.30941 3.1547Z" fill="#FEFEFE" fill-rule="nonzero" fill-opacity="1" transform="matrix(1 0 0 1.00885 1090.14 504.323)"/><path d="M6.30941 3.1547C6.30941 4.897 4.897 6.30941 3.1547 6.30941 1.41241 6.30941 1.80988e-07 4.897 1.80988e-07 3.1547 1.80988e-07 1.41241 1.41241 1.80988e-07 3.1547 1.80988e-07 4.897 1.80988e-07 6.30941 1.41241 6.30941 3.1547Z" fill="#FEFEFE" fill-rule="nonzero" fill-opacity="1" transform="matrix(1 0 0 1.00885 1025.72 569.311)"/><path d="M680.021 81.5121 673.921 81.5121 673.921 72.8475C673.917 69.3501 671.082 66.516 667.585 66.5117L667.484 66.5117C663.987 66.516 661.153 69.3501 661.148 72.8475L661.148 81.5121 655.052 81.5121 655.052 72.8475C655.052 65.9783 660.618 60.4081 667.487 60.4029L667.589 60.4029C674.458 60.4081 680.024 65.9783 680.024 72.8475Z" fill="#313566" fill-rule="nonzero" fill-opacity="1" transform="matrix(1 0 0 1.00885 393.437 454.197)"/><path d="M659.907 61.1123C662.776 62.3168 664.995 64.6853 666.011 67.6255" stroke="#FFFFFF" stroke-width="0.253559" stroke-linecap="round" stroke-linejoin="miter" stroke-miterlimit="10" stroke-opacity="1" fill="none" fill-rule="nonzero" transform="matrix(1 0 0 1.00885 405.332 455.938)"/><path d="M33.7311 0C34.3075 -1.72703e-16 34.7749 0.467321 34.7749 1.04379L34.7749 27.1292C34.7749 27.7057 34.3075 28.173 33.7311 28.173L1.04379 28.173C0.467321 28.173 5.93404e-09 27.7057 5.93404e-09 27.1292L5.93404e-09 1.04379C5.93404e-09 0.467322 0.467321 8.40409e-07 1.04379 8.40409e-07Z" fill="#65D5C5" fill-rule="nonzero" fill-opacity="1" transform="matrix(1 0 0 1.00885 1043.58 532.011)"/><path d="M685.563 75.8731 685.563 69.0597C685.563 67.2598 684.107 65.7991 682.307 65.793L657.367 65.793C655.567 65.7991 654.111 67.2598 654.111 69.0597L654.111 84.6434Z" fill="#5bc0b1" fill-rule="nonzero" fill-opacity="1" transform="matrix(1 0 0 1.00885 391.136 467.513)"/><path d="M5.27028 0C5.76428 -1.72703e-16 6.16474 0.400461 6.16474 0.894455L6.16474 10.6355C6.16474 11.1295 5.76428 11.5299 5.27028 11.5299L0.894455 11.5299C0.400461 11.5299-1.85439e-08 11.1295-1.85439e-08 10.6355L-1.85439e-08 0.894455C-1.85439e-08 0.400461 0.400461-2.03983e-07 0.894455-2.03983e-07Z" fill="#FFFFFF" fill-rule="nonzero" fill-opacity="1" transform="matrix(1 0 0 1.00885 1057.89 539.809)"/></g></g></g></g></g></svg>
