<svg width="114" height="113" xmlns="http://www.w3.org/2000/svg" xmlns:xlink="http://www.w3.org/1999/xlink" xml:space="preserve" overflow="hidden"><defs><clipPath id="clip0"><rect x="126" y="156" width="114" height="113"/></clipPath><clipPath id="clip1"><rect x="126" y="156" width="114" height="113"/></clipPath><clipPath id="clip2"><rect x="127" y="156" width="113" height="113"/></clipPath><clipPath id="clip3"><rect x="127" y="156" width="113" height="113"/></clipPath><clipPath id="clip4"><rect x="127" y="156" width="113" height="113"/></clipPath><clipPath id="clip5"><path d="M216.477 216.201C216.477 231.095 204.403 243.168 189.509 243.168 174.615 243.168 162.541 231.095 162.541 216.201 162.541 201.307 174.615 189.233 189.509 189.233 204.403 189.233 216.477 201.307 216.477 216.201Z" fill-rule="nonzero" clip-rule="nonzero"/></clipPath></defs><g clip-path="url(#clip0)" transform="translate(-126 -156)"><g clip-path="url(#clip1)"><g clip-path="url(#clip2)"><g clip-path="url(#clip3)"><g clip-path="url(#clip4)"><path d="M190.535 156.11 183.06 159.408 181.301 169.744 169.869 175.24 169.209 180.736 158.656 178.978 154.702 175.677 152.283 178.535 154.481 188.87 145.689 190.85 140.191 186.23 127 191.066 131.177 199.858 148.545 209.972 157.559 225.142 155.58 253.721 152.721 257.678 164.812 264.273 182.671 264.535 185.478 268.888 194.931 268.888 196.031 260.314 204.605 254.378 221.094 259.875 233.185 253.28 232.306 246.465 227.689 236.13 231.426 231.952 227.469 219.201 222.413 219.422 234.291 202.493 240.006 185.125 216.252 177.437 203.721 168.423 192.729 160.948Z" fill="#00ABA9" fill-rule="nonzero" fill-opacity="1"/><path d="M190.341 156.617 183.405 159.677 181.681 169.805 181.648 170.002 181.468 170.088 170.227 175.493 169.593 180.779 169.545 181.18 169.145 181.113 158.594 179.354 158.491 179.337 158.41 179.27 154.747 176.218 152.698 178.639 154.858 188.787 154.936 189.16 154.565 189.243 145.77 191.222 145.585 191.264 145.439 191.141 140.114 186.668 127.529 191.282 131.474 199.586 148.738 209.639 148.825 209.689 148.876 209.775 157.889 224.944 157.951 225.048 157.943 225.168 155.964 253.747 155.956 253.857 155.891 253.947 153.291 257.549 164.914 263.889 182.677 264.151 182.884 264.154 182.995 264.327 185.688 268.504 194.592 268.504 195.647 260.267 195.67 260.097 195.811 260 204.384 254.063 204.543 253.953 204.727 254.014 221.055 259.457 232.768 253.069 231.929 246.572 227.335 236.291 227.233 236.062 227.4 235.876 230.993 231.862 227.187 219.604 222.428 219.811 221.646 219.844 222.095 219.204 233.935 202.323 239.511 185.377 216.138 177.802 216.08 177.783 216.031 177.748 203.504 168.738 192.516 161.266 192.426 161.205 192.382 161.106 190.341 156.617M190.535 156.11 192.733 160.947 203.724 168.421 216.256 177.435 239.998 185.13 234.283 202.497 222.411 219.425 227.468 219.205 231.425 231.956 227.689 236.133 232.304 246.466 233.183 253.281 221.092 259.876 204.604 254.38 196.03 260.316 194.931 268.89 185.478 268.89 182.671 264.536 164.812 264.273 152.721 257.678 155.58 253.721 157.557 225.141 148.544 209.972 131.176 199.859 127 191.065 140.191 186.229 145.686 190.846 154.48 188.867 152.282 178.534 154.7 175.676 158.657 178.974 169.21 180.733 169.869 175.237 181.301 169.741 183.06 159.408 190.535 156.11Z" fill="#313566" fill-rule="nonzero" fill-opacity="1"/><g clip-path="url(#clip5)"><path d="M176.413 189.233 203.69 189.233 203.69 243.168 176.413 243.168Z" fill="#FEFEFE" fill-rule="nonzero" fill-opacity="1"/><path d="M152.002 189.233 179.28 189.233 179.28 243.168 152.002 243.168Z" fill="#254184" fill-rule="nonzero" fill-opacity="1"/><path d="M200.823 189.233 228.1 189.233 228.1 243.168 200.823 243.168Z" fill="#ED2F0A" fill-rule="nonzero" fill-opacity="1"/></g></g></g></g></g></g></svg>