<svg width="72" height="74" xmlns="http://www.w3.org/2000/svg"
  xmlns:xlink="http://www.w3.org/1999/xlink" xml:space="preserve" overflow="hidden"
  viewBox="10.4 12.4 51 43.8">
  <defs>
    <clipPath id="clip0">
      <rect x="508" y="562" width="72" height="74"/>
    </clipPath>
    <clipPath id="clip1">
      <rect x="508" y="562" width="72" height="74"/>
    </clipPath>
    <clipPath id="clip2">
      <rect x="508" y="563" width="71" height="72"/>
    </clipPath>
    <clipPath id="clip3">
      <rect x="508" y="563" width="71" height="72"/>
    </clipPath>
    <clipPath id="clip4">
      <rect x="508" y="563" width="71" height="72"/>
    </clipPath>
  </defs>

  <g clip-path="url(#clip0)" transform="translate(-508 -562)">
    <g clip-path="url(#clip1)">
      <g clip-path="url(#clip2)">
        <g clip-path="url(#clip3)">
          <g clip-path="url(#clip4)">
            <!-- <path d="M517.511 157.515C537.117 157.515 553.011 173.408 553.011 193.015 553.011
            212.621 537.117 228.515 517.511 228.515 497.904 228.515 482.011 212.621 482.011 193.015
            482.011 173.408 497.904 157.515 517.511 157.515Z" fill="#E7E7EF" fill-rule="nonzero"
            fill-opacity="1" transform="matrix(1 0 0 1.01408 25.9893 403.267)"/> -->
            <path d="M523.625 211.107 515.068 211.107 516.331 202.183 522.138 202.183Z" fill="#313566" fill-rule="nonzero" fill-opacity="1" transform="matrix(1 0 0 1.01408 25.9893 403.267)"/>
            <path d="M40.9374 0C41.5955 -2.62753e-16 42.129 0.533505 42.129 1.19162L42.129 27.8095C42.129 28.4676 41.5955 29.0011 40.9374 29.0011L1.19162 29.0011C0.533506 29.0011 1.37453e-06 28.4676 1.37453e-06 27.8095L1.37453e-06 1.19162C1.37453e-06 0.533504 0.533506-6.0037e-07 1.19162-6.0037e-07Z" fill="#313566" fill-rule="nonzero" fill-opacity="1" transform="matrix(1 0 0 1.01408 524.272 582.115)"/>
            <path d="M38.1258 0C38.7839 -2.62753e-16 39.3174 0.533505 39.3174 1.19162L39.3174 19.3439C39.3174 20.0021 38.7839 20.5356 38.1258 20.5356L1.19162 20.5356C0.533507 20.5356 2.07985e-06 20.0021 2.07985e-06 19.3439L2.07985e-06 1.19162C2.07985e-06 0.533505 0.533507 1.04952e-07 1.19162 1.04952e-07Z" fill="#FFFFFF" fill-rule="nonzero" fill-opacity="1" transform="matrix(1 0 0 1.01408 525.678 583.478)"/>
            <path d="M513.969 210.621 524.725 210.621C525.265 210.621 525.703 211.059 525.703 211.599L512.992 211.599C512.992 211.059 513.429 210.621 513.969 210.621Z" fill="#313566" fill-rule="nonzero" fill-opacity="1" transform="matrix(1 0 0 1.01408 25.9893 403.267)"/>
            <path d="M16.9799 0C17.7145 -2.62756e-16 18.31 0.595499 18.31 1.33008L18.31 21.918C18.31 22.6526 17.7145 23.2481 16.9799 23.2481L1.33008 23.2481C0.595499 23.2481-5.52979e-08 22.6526-5.52979e-08 21.918L-5.52979e-08 1.33008C-5.52979e-08 0.595498 0.595499-7.60629e-07 1.33008-7.60629e-07Z" fill="#313566" fill-rule="nonzero" fill-opacity="1" transform="matrix(0.999987 -0.00507036 0.00499994 1.01407 518.491 594.71)"/>
            <path d="M0 0 15.2863 0 15.2863 19.8871 2.61816e-07 19.8871Z" fill="#FFFFFF" fill-rule="nonzero" fill-opacity="1" transform="matrix(0.999987 -0.00506192 0.00499162 1.01407 519.991 596.37)"/>
            <path d="M7.67392 0C8.44117 -2.62753e-16 9.06315 0.621981 9.06315 1.38923L9.06315 14.8366C9.06315 15.6039 8.44117 16.2259 7.67392 16.2259L1.38923 16.2259C0.621981 16.2259 1.70406e-07 15.6039 1.70406e-07 14.8366L1.70406e-07 1.38923C1.70406e-07 0.621981 0.621981 1.70406e-07 1.38923 1.70406e-07Z" fill="#313566" fill-rule="nonzero" fill-opacity="1" transform="matrix(1 0 0 1.01408 559.448 601.633)"/>
            <path d="M0 0 7.0716 0 7.0716 13.2652-1.98619e-07 13.2652Z" fill="#FFFFFF" fill-rule="nonzero" fill-opacity="1" transform="matrix(1 0 0 1.01408 560.416 602.967)"/>
            <path d="M0.357367 0.178683C0.357367 0.277367 0.277367 0.357367 0.178683 0.357367 0.0799992 0.357367-8.18173e-09 0.277367-8.18173e-09 0.178683-8.18173e-09 0.0799992 0.0799992-8.18173e-09 0.178683-8.18173e-09 0.277367-8.18173e-09 0.357367 0.0799992 0.357367 0.178683Z" fill="#FFFFFF" fill-rule="nonzero" fill-opacity="1" transform="matrix(1 0 0 1.01408 564.024 602.156)"/>
            <path d="M0.357367 0.178683C0.357367 0.277367 0.277367 0.357367 0.178683 0.357367 0.0799992 0.357367-8.18173e-09 0.277367-8.18173e-09 0.178683-8.18173e-09 0.0799992 0.0799992-8.18173e-09 0.178683-8.18173e-09 0.277367-8.18173e-09 0.357367 0.0799992 0.357367 0.178683Z" fill="#FFFFFF" fill-rule="nonzero" fill-opacity="1" transform="matrix(1 0 0 1.01408 530.938 595.221)"/>
            <path d="M537.36 210.598 539.058 210.598C539.263 210.598 539.428 210.763 539.428 210.968 539.427 211.172 539.262 211.337 539.058 211.337L537.36 211.337C537.156 211.337 536.991 211.172 536.99 210.968 536.99 210.763 537.155 210.598 537.36 210.598Z" fill="#FFFFFF" fill-rule="nonzero" fill-opacity="1" transform="matrix(1 0 0 1.01408 25.9893 403.267)"/>
            <path d="M530.252 176.79 517.223 176.79 517.223 170.415 523.731 168.728 530.246 170.415Z" fill="#313566" fill-rule="nonzero" fill-opacity="1" transform="matrix(1 0 0 1.01408 25.9893 403.267)"/>
            <path d="M523.72 192.552 517.59 189.013C516.014 188.103 515.043 186.42 515.043 184.6L515.043 172.098 523.72 169.8 532.396 172.098 532.396 184.6C532.397 186.42 531.427 188.103 529.849 189.013Z" fill="#65D5C5" fill-rule="nonzero" fill-opacity="1" transform="matrix(1 0 0 1.01408 25.9893 403.267)"/>
            <path d="M523.767 171.071 523.722 171.059 516.086 173.081 516.086 184.086C516.087 185.687 516.941 187.167 518.327 187.968L523.722 191.081 523.767 191.055Z" fill="#5bc0b1" fill-rule="nonzero" fill-opacity="1" transform="matrix(1 0 0 1.01408 25.9893 403.267)"/>
            <path d="M522.541 184.421C522.348 184.424 522.162 184.347 522.026 184.209L519.511 181.694C519.221 181.412 519.215 180.949 519.496 180.659 519.765 180.384 520.2 180.364 520.494 180.612L520.512 180.628 520.544 180.661 522.541 182.659 526.612 178.59C526.911 178.318 527.373 178.34 527.645 178.638 527.898 178.918 527.898 179.344 527.645 179.623L523.057 184.211C522.92 184.347 522.734 184.423 522.541 184.421Z" fill="#FFFFFF" fill-rule="nonzero" fill-opacity="1" transform="matrix(1 0 0 1.01408 25.9893 403.267)"/>
          </g>
          </g>
          </g>
          </g>
          </g>
          </svg>
