<svg xmlns="http://www.w3.org/2000/svg" xmlns:xlink="http://www.w3.org/1999/xlink"
  xml:space="preserve" overflow="hidden" viewBox="13 6 46 62">
  <g transform="translate(-837 -564)"><g><g><g><g>
  <path d="M890.103 591.303 856.615 591.303 856.615 574.921 873.359 570.584 890.103 574.921 890.103 591.304Z" fill="#313566" fill-rule="nonzero" fill-opacity="1"/>
  <path d="M873.319 631.83 857.562 622.734C853.51 620.394 851.014 616.071 851.014 611.392L851.014 579.26 873.317 573.354 895.619 579.26 895.619 611.392C895.619 616.071 893.123 620.394 889.071 622.734Z" fill="#65D5C5" fill-rule="nonzero" fill-opacity="1"/>
  <path d="M873.44 576.618 873.321 576.585 853.696 581.782 853.696 610.064C853.696 614.18 855.892 617.984 859.456 620.043L873.32 628.047 873.438 627.977Z" fill="#5bc0b1" fill-rule="nonzero" fill-opacity="1"/>
  <path d="M886.392 599.598C886.079 597.658 885.327 595.814 884.196 594.206L886.123 591.783 883.537 589.198 881.129 591.114C879.534 589.965 877.698 589.192 875.761 588.857L875.406 585.78 871.757 585.78 871.408 588.839C869.467 589.153 867.624 589.904 866.015 591.036L863.592 589.107 861.006 591.692 862.922 594.1C861.773 595.696 861.002 597.53 860.667 599.467L857.59 599.822 857.59 603.478 860.649 603.826C860.963 605.767 861.714 607.611 862.845 609.219L860.919 611.642 863.504 614.228 865.912 612.312C867.508 613.461 869.343 614.232 871.28 614.567L871.635 617.644 875.292 617.644 875.639 614.585C877.581 614.272 879.425 613.52 881.033 612.389L883.455 614.317 886.041 611.73 884.125 609.323C885.274 607.728 886.044 605.892 886.381 603.955L889.457 603.6 889.457 599.953ZM873.519 611.862C867.911 611.861 863.366 607.316 863.367 601.708 863.368 596.1 867.913 591.555 873.521 591.556 879.128 591.557 883.673 596.103 883.673 601.709 883.674 607.317 879.13 611.863 873.522 611.865 873.521 611.865 873.519 611.865 873.518 611.865Z" fill="#FFFFFF" fill-rule="nonzero" fill-opacity="1"/>
  <path d="M872.133 605.186C871.908 605.186 871.693 605.097 871.534 604.939L868.615 602.019C868.273 601.699 868.257 601.161 868.577 600.821 868.898 600.479 869.435 600.461 869.776 600.782 869.789 600.795 869.802 600.806 869.814 600.819L872.132 603.139 876.858 598.414C877.2 598.093 877.736 598.11 878.057 598.452 878.365 598.778 878.363 599.287 878.057 599.614L872.732 604.939C872.573 605.097 872.358 605.186 872.133 605.186Z" fill="#313566" fill-rule="nonzero" fill-opacity="1"/>
  <path d="M861.445 601.713C861.445 602.204 861.047 602.603 860.556 602.603 860.064 602.603 859.666 602.204 859.666 601.713 859.666 601.221 860.064 600.823 860.556 600.823 861.047 600.823 861.445 601.221 861.445 601.713Z" fill="#313566" fill-rule="nonzero" fill-opacity="1"/>
  <path d="M887.136 601.713C887.136 602.204 886.737 602.603 886.246 602.603 885.754 602.603 885.356 602.204 885.356 601.713 885.356 601.221 885.754 600.823 886.246 600.823 886.737 600.823 887.136 601.221 887.136 601.713Z" fill="#313566" fill-rule="nonzero" fill-opacity="1"/>
  <path d="M874.29 588.868C874.29 589.359 873.892 589.758 873.401 589.758 872.909 589.758 872.511 589.359 872.511 588.868 872.511 588.376 872.909 587.978 873.401 587.978 873.892 587.978 874.29 588.376 874.29 588.868Z" fill="#313566" fill-rule="nonzero" fill-opacity="1"/>
  <path d="M874.29 614.557C874.29 615.048 873.892 615.447 873.401 615.447 872.909 615.447 872.511 615.048 872.511 614.557 872.511 614.065 872.909 613.667 873.401 613.667 873.892 613.667 874.29 614.065 874.29 614.557Z" fill="#313566" fill-rule="nonzero" fill-opacity="1"/>
  <path d="M865.207 592.63C865.207 593.121 864.809 593.519 864.317 593.519 863.826 593.519 863.427 593.121 863.427 592.63 863.427 592.138 863.826 591.74 864.317 591.74 864.809 591.74 865.207 592.138 865.207 592.63Z" fill="#313566" fill-rule="nonzero" fill-opacity="1"/>
  <path d="M883.373 610.795C883.373 611.286 882.974 611.685 882.483 611.685 881.991 611.685 881.593 611.286 881.593 610.795 881.593 610.303 881.991 609.905 882.483 609.905 882.974 609.905 883.373 610.303 883.373 610.795Z" fill="#313566" fill-rule="nonzero" fill-opacity="1"/>
  <path d="M883.373 592.63C883.373 593.121 882.974 593.519 882.483 593.519 881.991 593.519 881.593 593.121 881.593 592.63 881.593 592.138 881.991 591.74 882.483 591.74 882.974 591.74 883.373 592.138 883.373 592.63Z" fill="#313566" fill-rule="nonzero" fill-opacity="1"/>
  <path d="M865.207 610.795C865.207 611.286 864.809 611.685 864.317 611.685 863.826 611.685 863.427 611.286 863.427 610.795 863.427 610.303 863.826 609.905 864.317 609.905 864.809 609.905 865.207 610.303 865.207 610.795Z" fill="#313566" fill-rule="nonzero" fill-opacity="1"/>
  <path d="M870.288 577.45 859.928 580.1" stroke="#FFFFFF" stroke-width="1.2212" stroke-linecap="round" stroke-linejoin="miter" stroke-miterlimit="10" stroke-opacity="1" fill="none" fill-rule="nonzero"/>
</g></g></g></g></g></svg>
