<?xml version="1.0" encoding="UTF-8"?>
<svg id="Calque_1" data-name="Calque 1" xmlns="http://www.w3.org/2000/svg" version="1.1" viewBox="0 0 122 30">
  <defs>
    <style>
      .cls-1 {
        fill: #ffe7b8;
      }

      .cls-1, .cls-2 {
        stroke-width: 0px;
      }

      .cls-2 {
        fill: #ffbc27;
      }
    </style>
  </defs>
  <path class="cls-2" d="M9,8.1l1.7,3.3,3.7.6c.9.1,1.2,1.2.6,1.9l-2.7,2.6.6,3.7c.1.9-.8,1.6-1.6,1.1l-3.3-1.7-3.3,1.7c-.8.4-1.7-.3-1.6-1.1l.6-3.7-2.7-2.6c-.6-.6-.3-1.7.6-1.9l3.7-.6,1.7-3.3c.4-.8,1.5-.8,1.9,0Z"/>
  <path class="cls-2" d="M34.8,8.1l1.7,3.3,3.7.6c.9.1,1.2,1.2.6,1.9l-2.7,2.6.6,3.7c.1.9-.8,1.6-1.6,1.1l-3.3-1.7-3.3,1.7c-.8.4-1.7-.3-1.6-1.1l.6-3.7-2.7-2.6c-.6-.6-.3-1.7.6-1.9l3.7-.6,1.7-3.3c.4-.8,1.5-.8,1.9,0Z"/>
  <path class="cls-2" d="M60.7,8.1l1.7,3.3,3.7.6c.9.1,1.2,1.2.6,1.9l-2.7,2.6.6,3.7c.1.9-.8,1.6-1.6,1.1l-3.3-1.7-3.3,1.7c-.8.4-1.7-.3-1.6-1.1l.6-3.7-2.7-2.6c-.6-.6-.3-1.7.6-1.9l3.7-.6,1.7-3.3c.4-.8,1.5-.8,1.9,0Z"/>
  <path class="cls-2" d="M86.5,8.1l1.7,3.3,3.7.6c.9.1,1.2,1.2.6,1.9l-2.7,2.6.6,3.7c.1.9-.8,1.6-1.6,1.1l-3.3-1.7-3.3,1.7c-.8.4-1.7-.3-1.6-1.1l.6-3.7-2.7-2.6c-.6-.6-.3-1.7.6-1.9l3.7-.6,1.7-3.3c.4-.8,1.5-.8,1.9,0Z"/>
  <path class="cls-1" d="M112.3,8.1l1.7,3.3,3.7.6c.9.1,1.2,1.2.6,1.9l-2.7,2.6.6,3.7c.1.9-.8,1.6-1.6,1.1l-3.3-1.7-3.3,1.7c-.8.4-1.7-.3-1.6-1.1l.6-3.7-2.7-2.6c-.6-.6-.3-1.7.6-1.9l3.7-.6,1.7-3.3c.4-.8,1.5-.8,1.9,0Z"/>
</svg>