<svg width="547" height="123" viewBox="0 0 547 123" fill="none" xmlns="http://www.w3.org/2000/svg">
  <path
    d="M155.043 0.954834C156.243 0.954834 156.543 1.35483 156.543 2.45483V38.9548C156.543 69.5548 150.543 77.1548 126.743 77.1548C102.943 77.1548 97.0432 69.5548 97.0432 38.9548V2.45483C97.0432 1.35483 97.3432 0.954834 98.5432 0.954834H105.643C106.843 0.954834 107.143 1.35483 107.143 2.45483V38.9548C107.143 62.4548 111.143 68.2548 126.743 68.2548C142.343 68.2548 146.443 62.4548 146.443 38.9548V2.45483C146.443 1.35483 146.743 0.954834 147.943 0.954834H155.043Z"
    fill="#2E3862" />
  <path
    d="M216.643 49.2548C216.643 71.5548 212.643 77.1548 193.743 77.1548C188.743 77.1548 184.843 77.0548 180.543 76.5548V94.9548C180.543 95.9548 180.043 96.4548 179.043 96.4548H172.443C171.443 96.4548 170.943 95.9548 170.943 94.9548V24.8548C170.943 23.7548 171.543 23.3548 172.543 23.1548C181.343 21.7548 185.743 21.4548 193.243 21.4548C212.643 21.4548 216.643 27.1548 216.643 49.2548ZM180.543 29.8548V67.9548C184.543 68.4548 189.243 68.7548 193.143 68.7548C205.543 68.7548 207.043 64.9548 207.043 49.3548C207.043 33.7548 205.643 29.8548 193.343 29.8548H180.543Z"
    fill="#2E3862" />
  <path
    d="M272.943 1.95483C273.943 2.05483 274.343 2.45483 274.343 3.25483V7.85483C274.343 8.85483 273.943 9.35483 273.043 9.35483H250.543C241.743 9.35483 237.443 12.0548 237.443 18.2548V19.9548C237.443 24.9548 238.843 27.6548 244.943 30.1548L266.743 39.1548C275.943 42.9548 278.243 48.6548 278.243 56.5548V59.7548C278.243 74.9548 266.043 77.1548 251.843 77.1548C243.743 77.1548 235.843 76.7548 227.443 75.7548C226.543 75.5548 226.243 75.1548 226.243 74.1548V69.6548C226.243 68.7548 226.743 68.2548 227.643 68.2548H255.043C263.843 68.2548 268.043 65.7548 268.043 59.4548V57.5548C268.043 52.4548 266.643 49.2548 260.443 46.7548L236.743 37.1548C228.943 34.1548 227.343 27.7548 227.343 20.1548V17.7548C227.343 2.55483 239.243 0.454834 253.543 0.454834C261.843 0.454834 264.843 0.954834 272.943 1.95483Z"
    fill="#2E3862" />
  <path
    d="M299.843 5.95479C299.843 9.75479 297.843 11.8548 293.943 11.8548C290.043 11.8548 288.043 9.75479 288.043 5.95479C288.043 2.15479 290.143 0.154785 293.943 0.154785C297.743 0.154785 299.843 2.15479 299.843 5.95479ZM297.243 21.9548C298.243 21.9548 298.743 22.4548 298.743 23.4548V75.1548C298.743 76.1548 298.243 76.6548 297.243 76.6548H290.643C289.643 76.6548 289.143 76.1548 289.143 75.1548V23.4548C289.143 22.4548 289.643 21.9548 290.643 21.9548H297.243Z"
    fill="#2E3862" />
  <path
    d="M354.943 23.1548C355.943 23.2548 356.543 23.7548 356.543 24.8548V71.6548C356.443 91.2548 352.643 96.9548 333.443 96.9548C329.543 96.9548 324.143 96.7548 318.943 96.0548C318.043 95.9548 317.643 95.3548 317.643 94.4548V90.1548C317.643 89.1548 318.043 88.6548 319.043 88.6548H333.243C344.443 88.6548 346.943 85.9548 346.943 76.9548V76.3548C342.643 77.0548 338.743 77.1548 333.743 77.1548C314.843 77.1548 310.843 71.5548 310.843 49.1548C310.843 26.7548 314.943 21.4548 334.243 21.4548C343.743 21.4548 350.643 22.2548 354.943 23.1548ZM334.143 29.8548C321.843 29.8548 320.443 33.7548 320.443 49.2548C320.443 64.7548 321.943 68.7548 334.343 68.7548C338.243 68.7548 342.943 68.5548 346.943 68.0548V29.8548H334.143Z"
    fill="#2E3862" />
  <path
    d="M415.643 44.8548V75.1548C415.643 76.1548 414.943 76.6548 413.943 76.6548H407.543C406.543 76.6548 406.043 76.1548 406.043 75.1548V45.6548C406.043 30.3548 403.043 29.8548 393.443 29.8548H379.743V75.1548C379.743 76.1548 379.243 76.6548 378.243 76.6548H371.643C370.643 76.6548 370.143 76.1548 370.143 75.1548V24.6548C370.143 23.3548 370.643 23.2548 371.643 23.0548C379.443 21.5548 387.643 21.4548 392.443 21.4548C410.343 21.4548 415.643 23.6548 415.643 44.8548Z"
    fill="#2E3862" />
  <path
    d="M488.843 38.9548C488.843 68.4548 482.743 77.1548 458.343 77.1548C433.943 77.1548 427.843 68.4548 427.843 38.9548C427.843 9.45483 433.943 0.454834 458.343 0.454834C482.743 0.454834 488.843 9.35483 488.843 38.9548ZM438.043 38.9548C438.043 61.7548 441.043 68.2548 458.343 68.2548C475.643 68.2548 478.643 61.7548 478.643 38.9548C478.643 16.1548 475.643 9.35483 458.343 9.35483C441.043 9.35483 438.043 16.0548 438.043 38.9548Z"
    fill="#2E3862" />
  <path
    d="M546.843 44.8548V75.1548C546.843 76.1548 546.143 76.6548 545.143 76.6548H538.743C537.743 76.6548 537.243 76.1548 537.243 75.1548V45.6548C537.243 30.3548 534.243 29.8548 524.643 29.8548H510.943V75.1548C510.943 76.1548 510.443 76.6548 509.443 76.6548H502.843C501.843 76.6548 501.343 76.1548 501.343 75.1548V24.6548C501.343 23.3548 501.843 23.2548 502.843 23.0548C510.643 21.5548 518.843 21.4548 523.643 21.4548C541.543 21.4548 546.843 23.6548 546.843 44.8548Z"
    fill="#2E3862" />
  <path
    d="M396.523 94.1149C396.763 94.1149 396.913 94.2649 396.913 94.5049V100.305C397.963 100.185 399.353 100.125 401.073 100.125C406.823 100.125 407.883 101.735 407.883 108.315C407.883 114.895 406.863 116.535 401.253 116.535C399.173 116.535 397.913 116.475 395.143 116.055C394.843 116.025 394.723 115.905 394.723 115.605V94.4949C394.723 94.2549 394.873 94.1049 395.113 94.1049H396.533L396.523 94.1149ZM396.913 102.035V114.325C398.483 114.535 399.953 114.625 401.253 114.625C405.233 114.625 405.713 113.345 405.713 108.285C405.713 103.225 405.203 102.035 401.073 102.035H396.913Z"
    fill="#FF6136" />
  <path
    d="M424.453 100.275C424.693 100.275 424.843 100.425 424.843 100.665V115.105C424.813 120.825 423.633 122.365 418.123 122.365C416.433 122.365 415.353 122.305 413.903 122.155C413.663 122.125 413.543 121.975 413.543 121.735V120.815C413.543 120.575 413.663 120.455 413.903 120.455H418.123C421.823 120.455 422.643 119.535 422.643 116.525V116.285C421.043 116.495 419.843 116.525 418.333 116.525C412.733 116.525 411.703 114.885 411.703 108.305V100.655C411.703 100.415 411.823 100.265 412.063 100.265H413.483C413.753 100.265 413.873 100.415 413.873 100.655V108.245C413.873 113.335 414.353 114.615 418.333 114.615C419.603 114.615 421.073 114.555 422.643 114.345V100.655C422.643 100.415 422.793 100.265 423.033 100.265H424.453V100.275Z"
    fill="#FF6136" />
  <path
    d="M448.853 94.4448C449.203 94.5048 449.323 94.6448 449.323 94.9148V96.7248C449.323 97.0448 449.173 97.2248 448.883 97.2248H442.073C439.863 97.2248 438.773 97.9248 438.773 99.4648V99.9348C438.773 101.155 439.183 101.885 440.743 102.525L446.723 104.885C449.493 105.995 450.433 107.505 450.433 110.335V111.235C450.433 115.605 446.953 116.535 442.333 116.535C440.033 116.535 437.703 116.385 435.083 116.015C434.793 115.955 434.673 115.815 434.673 115.495V113.745C434.673 113.425 434.823 113.275 435.143 113.275H443.363C445.543 113.275 446.633 112.635 446.633 111.095V110.595C446.633 109.255 446.133 108.465 444.453 107.795L438.093 105.315C435.703 104.445 434.973 102.695 434.973 99.8948V99.2248C434.973 94.8548 438.243 93.9548 442.933 93.9548C445.383 93.9548 446.523 94.1048 448.853 94.4548V94.4448Z"
    fill="#FF6136" />
  <path
    d="M468.473 94.0948C468.763 94.0948 468.943 94.2449 468.943 94.5349V96.9249C468.943 97.2149 468.763 97.3649 468.473 97.3649H457.573V103.895H467.533C467.823 103.895 467.973 104.045 467.973 104.335V106.635C467.973 106.925 467.823 107.075 467.533 107.075H457.573V113.135H468.473C468.763 113.135 468.943 113.285 468.943 113.575V115.965C468.943 116.255 468.763 116.405 468.473 116.405H454.213C453.923 116.405 453.773 116.255 453.773 115.965V94.5548C453.773 94.2648 453.923 94.1149 454.213 94.1149H468.473V94.0948Z"
    fill="#FF6136" />
  <path
    d="M488.843 101.205C488.843 107.235 486.633 108.195 480.093 108.195H476.413V115.945C476.413 116.295 476.323 116.385 475.973 116.385H473.053C472.703 116.385 472.613 116.295 472.613 115.945V94.5948C472.613 94.2748 472.703 94.2148 473.053 94.1848C475.413 94.0148 478.063 93.9548 480.093 93.9548C486.633 93.9548 488.843 95.2948 488.843 101.205ZM476.403 97.2148V105.195H479.733C483.913 105.195 485.003 104.845 485.003 101.295C485.003 97.7448 483.913 97.2148 479.733 97.2148H476.403Z"
    fill="#FF6136" />
  <path
    d="M507.353 94.0948C507.643 94.0948 507.793 94.2449 507.793 94.5349V96.9249C507.793 97.2149 507.643 97.3649 507.353 97.3649H500.903V115.945C500.903 116.235 500.753 116.385 500.463 116.385H497.573C497.283 116.385 497.133 116.235 497.133 115.945V97.3649H490.713C490.423 97.3649 490.273 97.2149 490.273 96.9249V94.5349C490.273 94.2449 490.423 94.0948 490.713 94.0948H507.363H507.353Z"
    fill="#FF6136" />
  <path
    d="M525.213 94.0948C525.503 94.0948 525.683 94.2449 525.683 94.5349V96.9249C525.683 97.2149 525.503 97.3649 525.213 97.3649H514.313V103.895H524.273C524.563 103.895 524.713 104.045 524.713 104.335V106.635C524.713 106.925 524.563 107.075 524.273 107.075H514.313V113.135H525.213C525.503 113.135 525.683 113.285 525.683 113.575V115.965C525.683 116.255 525.503 116.405 525.213 116.405H510.953C510.663 116.405 510.513 116.255 510.513 115.965V94.5548C510.513 94.2648 510.663 94.1149 510.953 94.1149H525.213V94.0948Z"
    fill="#FF6136" />
  <path
    d="M546.843 105.285C546.843 113.965 544.953 116.525 537.593 116.525C530.233 116.525 528.343 113.965 528.343 105.285C528.343 96.6048 530.263 93.9548 537.593 93.9548C544.923 93.9548 546.843 96.5448 546.843 105.285ZM532.163 105.285C532.163 111.435 532.983 113.265 537.583 113.265C542.183 113.265 543.033 111.435 543.033 105.285C543.033 99.1348 542.183 97.2148 537.583 97.2148C532.983 97.2148 532.163 99.0748 532.163 105.285Z"
    fill="#FF6136" />
  <path
    d="M55.3032 23.7048L2.95325 76.6648H10.3232L59.0532 27.5248C59.1932 27.3848 59.2532 27.1148 59.0532 26.9148L55.9132 23.8448C55.7732 23.5748 55.5032 23.5748 55.3032 23.7048Z"
    fill="#FF6136" />
  <path
    d="M3.91321 38.1047L41.3832 0.224731H34.0132L0.233214 34.3447C0.093214 34.4847 0.033214 34.7547 0.233214 34.9547L3.30321 38.0247C3.50321 38.2247 3.78321 38.2247 3.91321 38.0947V38.1047Z"
    fill="#FF6136" />
  <path
    d="M62.7432 31.2048L17.7732 76.6548H25.1432L66.4332 35.0248C66.5732 34.8248 66.5732 34.5448 66.4332 34.4148L63.3632 31.3448C63.2232 31.0048 62.9532 31.0048 62.7532 31.2048H62.7432Z"
    fill="#FF6136" />
  <path
    d="M70.1832 38.7148L32.6432 76.6648H40.0132L73.9332 42.4748C74.0732 42.2748 74.0732 41.9948 73.9332 41.8648L70.8632 38.7948C70.6632 38.5948 70.3832 38.5948 70.1832 38.7248V38.7148Z"
    fill="#FF6136" />
  <path
    d="M7.67319 42.3948L10.7432 45.4648C10.9432 45.6048 11.2232 45.6048 11.3532 45.4648L56.2632 0.144775H48.8932L7.67319 41.7748C7.47319 41.9748 7.47319 42.2548 7.67319 42.3848V42.3948Z"
    fill="#FF6136" />
  <path
    d="M15.0432 49.9048L18.1132 52.9748C18.3132 53.1148 18.5932 53.1148 18.7232 52.9748L71.0732 0.154785H63.7032L15.0432 49.2948C14.9032 49.4948 14.9032 49.7748 15.0432 49.9048Z"
    fill="#FF6136" />
</svg>
