<svg width="356" height="305" viewBox="0 0 356 305" fill="none" xmlns="http://www.w3.org/2000/svg">
<path d="M275.962 159.69C279.522 159.69 281.012 162.08 281.012 164.36C281.012 166.64 279.932 168.18 276.992 171.1L264.682 183.41H279.992L284.682 178.72C288.042 175.36 291.902 170.68 291.902 164.28C291.902 155.63 285.562 148.81 275.962 148.81H253.982C243.902 148.82 235.732 156.99 235.722 167.07V186.79C235.732 196.87 243.902 205.04 253.982 205.06H288.272V194.17H253.982C249.912 194.17 246.612 190.86 246.612 186.79V167.07C246.612 163 249.912 159.7 253.982 159.7H275.962V159.69Z" fill="white"/>
<path d="M221.022 194.16C216.942 194.16 213.642 190.85 213.642 186.78V159.68H224.362V148.79H213.642V133.85H202.752V186.82C202.762 196.91 210.942 205.08 221.022 205.09H228.472V194.16H221.022Z" fill="white"/>
<path d="M148.152 220.07H137.262V167.1C137.272 157.01 145.442 148.84 155.532 148.83H175.242C185.332 148.84 193.502 157.02 193.512 167.1V186.81C193.502 196.9 185.332 205.07 175.242 205.08H158.932V194.17H175.222C179.302 194.17 182.602 190.86 182.602 186.79V167.08C182.602 163 179.292 159.7 175.222 159.7H155.512C151.432 159.7 148.132 163.01 148.132 167.08L148.152 220.08V220.07Z" fill="white"/>
<path d="M50.352 182.36C53.912 182.36 55.402 184.75 55.402 187.02C55.402 189.29 54.322 190.85 51.382 193.76L1.02196 244.04H16.442L59.072 201.37C62.422 198.01 66.282 193.34 66.282 186.95C66.282 178.3 59.962 171.49 50.362 171.49H15.932C12.682 171.49 10.042 168.86 10.032 165.6C10.032 162.35 12.662 159.71 15.922 159.7H62.172V148.8H15.932C6.68196 149.27 -0.448036 157.15 0.0219641 166.41C0.461964 175.01 7.33196 181.88 15.932 182.32L50.362 182.36H50.352Z" fill="white"/>
<path d="M114.512 159.69C118.082 159.69 119.572 162.08 119.572 164.36C119.572 166.64 118.492 168.18 115.542 171.1L103.242 183.41H118.552L123.242 178.72C126.602 175.36 130.462 170.68 130.462 164.28C130.462 155.63 124.122 148.81 114.512 148.81H92.1121C82.0321 148.82 73.8621 156.99 73.8521 167.07V186.79C73.8621 196.87 82.0321 205.04 92.1121 205.06H126.402V194.17H92.1121C88.0421 194.17 84.7421 190.86 84.7421 186.79V167.07C84.7421 163 88.0421 159.7 92.1121 159.7H114.512V159.69Z" fill="white"/>
<path d="M337.092 205.05H317.372C307.292 205.03 299.122 196.86 299.112 186.78V167.06C299.122 156.98 307.292 148.81 317.372 148.8H337.092C347.172 148.81 355.342 156.98 355.362 167.06V186.78C355.352 196.87 347.182 205.04 337.092 205.05ZM317.372 159.65C313.302 159.65 310.002 162.95 310.002 167.02V186.74C310.002 190.81 313.302 194.12 317.372 194.12H337.092C341.172 194.12 344.472 190.81 344.472 186.74V167.06C344.472 162.99 341.162 159.69 337.092 159.69L317.372 159.65Z" fill="white"/>
<path d="M204.112 34.21L127.192 111.26H138.002L209.582 39.67C209.832 39.43 209.842 39.03 209.602 38.78C209.602 38.78 209.592 38.77 209.582 38.76L205.042 34.21C204.792 33.95 204.382 33.95 204.122 34.2C204.122 34.2 204.122 34.2 204.112 34.21Z" fill="white"/>
<path d="M128.632 55.14L183.632 0H172.822L123.182 49.67C122.932 49.92 122.932 50.33 123.182 50.58L127.732 55.14C127.982 55.39 128.392 55.39 128.642 55.14H128.632Z" fill="white"/>
<path d="M215.022 45.13L149.022 111.26H159.832L220.512 50.58C220.762 50.33 220.762 49.92 220.512 49.67L215.962 45.13C215.732 44.87 215.332 44.85 215.082 45.07C215.062 45.09 215.042 45.11 215.022 45.13Z" fill="white"/>
<path d="M225.942 56.04L170.802 111.26H181.612L231.342 61.53C231.592 61.28 231.592 60.87 231.342 60.62L226.802 56.08C226.562 55.85 226.192 55.83 225.942 56.04Z" fill="white"/>
<path d="M134.092 61.49L138.632 66.03C138.882 66.28 139.292 66.28 139.542 66.03L205.442 0H194.632L134.092 60.54C133.832 60.77 133.802 61.18 134.042 61.44C134.062 61.46 134.072 61.47 134.092 61.49Z" fill="white"/>
<path d="M145.002 72.44L149.542 76.98C149.782 77.23 150.192 77.24 150.442 77C150.442 77 150.452 76.99 150.462 76.98L227.252 0.0100098H216.442L145.002 71.5C144.742 71.75 144.732 72.16 144.982 72.42L145.002 72.44Z" fill="white"/>
<g opacity="0.3">
<path d="M221.612 244.04H133.752V246.04H221.612V244.04Z" fill="white"/>
</g>
<path d="M67.2716 275.26V303.76H62.6016V275.26H67.2716Z" fill="white"/>
<path d="M91.8214 275.26V279.07H84.2414V303.75H79.5714V279.07H71.9414V275.26H91.8214Z" fill="white"/>
<path d="M111.421 303.04C109.891 302.37 108.691 301.42 107.811 300.19C106.931 298.96 106.501 297.52 106.501 295.89H111.501C111.611 297.12 112.091 298.13 112.961 298.92C113.821 299.71 115.031 300.11 116.591 300.11C118.151 300.11 119.461 299.72 120.361 298.94C121.261 298.16 121.711 297.16 121.711 295.93C121.711 294.97 121.431 294.19 120.871 293.59C120.311 292.99 119.611 292.52 118.781 292.2C117.951 291.88 116.791 291.52 115.321 291.13C113.461 290.64 111.951 290.14 110.791 289.63C109.631 289.13 108.641 288.34 107.821 287.27C107.001 286.2 106.591 284.78 106.591 283.01C106.591 281.37 107.001 279.93 107.821 278.71C108.641 277.48 109.791 276.54 111.261 275.88C112.741 275.22 114.441 274.9 116.381 274.9C119.141 274.9 121.401 275.59 123.171 276.97C124.931 278.35 125.911 280.24 126.101 282.65H120.931C120.851 281.61 120.361 280.72 119.451 279.98C118.541 279.24 117.361 278.87 115.881 278.87C114.541 278.87 113.451 279.21 112.601 279.9C111.751 280.58 111.331 281.57 111.331 282.85C111.331 283.73 111.601 284.44 112.131 285C112.661 285.56 113.341 286 114.161 286.33C114.981 286.66 116.101 287.01 117.521 287.4C119.411 287.92 120.941 288.44 122.131 288.96C123.321 289.48 124.331 290.28 125.161 291.36C125.991 292.44 126.411 293.88 126.411 295.69C126.411 297.14 126.021 298.51 125.241 299.79C124.461 301.08 123.331 302.11 121.841 302.89C120.351 303.67 118.591 304.06 116.571 304.06C114.661 304.06 112.941 303.73 111.401 303.06L111.421 303.04Z" fill="white"/>
<path d="M135.981 302.67C134.261 301.7 132.901 300.33 131.921 298.57C130.941 296.81 130.441 294.76 130.441 292.44C130.441 290.12 130.951 288.11 131.961 286.33C132.971 284.55 134.351 283.19 136.101 282.23C137.851 281.27 139.801 280.8 141.961 280.8C144.121 280.8 146.071 281.28 147.821 282.23C149.571 283.19 150.951 284.55 151.961 286.33C152.971 288.11 153.481 290.14 153.481 292.44C153.481 294.74 152.961 296.77 151.921 298.55C150.881 300.33 149.471 301.7 147.681 302.67C145.891 303.64 143.911 304.13 141.761 304.13C139.611 304.13 137.701 303.64 135.981 302.67ZM145.141 299.2C146.191 298.63 147.051 297.76 147.701 296.62C148.361 295.47 148.681 294.08 148.681 292.44C148.681 290.8 148.371 289.41 147.741 288.28C147.111 287.15 146.281 286.29 145.241 285.72C144.201 285.15 143.081 284.86 141.881 284.86C140.681 284.86 139.561 285.15 138.541 285.72C137.521 286.29 136.701 287.15 136.101 288.28C135.501 289.41 135.201 290.8 135.201 292.44C135.201 294.87 135.821 296.75 137.071 298.08C138.311 299.41 139.881 300.07 141.761 300.07C142.961 300.07 144.091 299.78 145.141 299.21V299.2Z" fill="white"/>
<path d="M162.792 273.42V303.76H158.122V273.42H162.792Z" fill="white"/>
<path d="M189.402 281.16V303.75H184.732V301.08C183.992 302.01 183.032 302.74 181.842 303.27C180.652 303.8 179.392 304.07 178.052 304.07C176.272 304.07 174.682 303.7 173.272 302.96C171.862 302.22 170.762 301.13 169.952 299.68C169.142 298.23 168.742 296.48 168.742 294.43V281.15H173.372V293.74C173.372 295.76 173.882 297.31 174.892 298.39C175.902 299.47 177.282 300.01 179.032 300.01C180.782 300.01 182.172 299.47 183.192 298.39C184.222 297.31 184.732 295.76 184.732 293.74V281.15H189.402V281.16Z" fill="white"/>
<path d="M201.012 284.98V297.48C201.012 298.33 201.212 298.94 201.602 299.3C202.002 299.67 202.672 299.85 203.632 299.85H206.502V303.75H202.812C200.702 303.75 199.092 303.26 197.972 302.27C196.852 301.29 196.292 299.69 196.292 297.47V284.97H193.622V281.16H196.292V275.54H201.002V281.16H206.492V284.97H201.002L201.012 284.98Z" fill="white"/>
<path d="M211.051 277.31C210.481 276.74 210.191 276.03 210.191 275.18C210.191 274.33 210.481 273.62 211.051 273.05C211.621 272.48 212.331 272.19 213.181 272.19C214.031 272.19 214.701 272.48 215.271 273.05C215.841 273.62 216.131 274.34 216.131 275.18C216.131 276.02 215.841 276.74 215.271 277.31C214.701 277.88 214.001 278.17 213.181 278.17C212.361 278.17 211.621 277.88 211.051 277.31ZM215.481 281.16V303.75H210.811V281.16H215.481Z" fill="white"/>
<path d="M225.651 302.67C223.931 301.7 222.571 300.33 221.591 298.57C220.611 296.81 220.111 294.76 220.111 292.44C220.111 290.12 220.621 288.11 221.631 286.33C222.641 284.55 224.021 283.19 225.771 282.23C227.521 281.27 229.471 280.8 231.631 280.8C233.791 280.8 235.741 281.28 237.491 282.23C239.241 283.19 240.621 284.55 241.631 286.33C242.641 288.11 243.151 290.14 243.151 292.44C243.151 294.74 242.631 296.77 241.591 298.55C240.551 300.33 239.141 301.7 237.351 302.67C235.561 303.64 233.581 304.13 231.431 304.13C229.281 304.13 227.371 303.64 225.651 302.67ZM234.811 299.2C235.861 298.63 236.721 297.76 237.371 296.62C238.031 295.47 238.351 294.08 238.351 292.44C238.351 290.8 238.041 289.41 237.411 288.28C236.781 287.15 235.951 286.29 234.911 285.72C233.871 285.15 232.751 284.86 231.551 284.86C230.351 284.86 229.231 285.15 228.211 285.72C227.191 286.29 226.371 287.15 225.771 288.28C225.171 289.41 224.871 290.8 224.871 292.44C224.871 294.87 225.491 296.75 226.741 298.08C227.981 299.41 229.551 300.07 231.431 300.07C232.631 300.07 233.761 299.78 234.811 299.21V299.2Z" fill="white"/>
<path d="M263.961 281.9C265.371 282.64 266.472 283.73 267.262 285.18C268.052 286.63 268.451 288.38 268.451 290.43V303.76H263.822V291.13C263.822 289.11 263.311 287.56 262.301 286.48C261.291 285.4 259.911 284.86 258.161 284.86C256.411 284.86 255.021 285.4 254.001 286.48C252.981 287.56 252.461 289.11 252.461 291.13V303.76H247.792V281.17H252.461V283.75C253.221 282.82 254.201 282.1 255.391 281.58C256.581 281.06 257.841 280.8 259.181 280.8C260.961 280.8 262.551 281.17 263.961 281.91V281.9Z" fill="white"/>
<path d="M277.821 303.16C276.411 302.52 275.301 301.64 274.481 300.54C273.661 299.43 273.221 298.2 273.171 296.83H278.011C278.091 297.79 278.551 298.59 279.381 299.23C280.211 299.87 281.261 300.19 282.521 300.19C283.781 300.19 284.851 299.94 285.571 299.43C286.291 298.93 286.661 298.28 286.661 297.48C286.661 296.63 286.261 296 285.451 295.59C284.641 295.18 283.371 294.73 281.621 294.24C279.921 293.78 278.541 293.32 277.481 292.89C276.411 292.45 275.491 291.78 274.711 290.88C273.931 289.98 273.541 288.79 273.541 287.31C273.541 286.11 273.901 285.01 274.611 284.01C275.321 283.01 276.341 282.23 277.661 281.65C278.991 281.08 280.511 280.79 282.231 280.79C284.801 280.79 286.871 281.44 288.441 282.74C290.011 284.04 290.851 285.81 290.961 288.05H286.291C286.211 287.04 285.801 286.23 285.061 285.63C284.321 285.03 283.321 284.73 282.071 284.73C280.821 284.73 279.901 284.96 279.241 285.43C278.581 285.9 278.261 286.51 278.261 287.27C278.261 287.87 278.481 288.38 278.921 288.79C279.361 289.2 279.891 289.52 280.521 289.75C281.151 289.98 282.081 290.28 283.311 290.63C284.951 291.07 286.301 291.51 287.351 291.96C288.401 292.41 289.311 293.07 290.081 293.95C290.841 294.83 291.241 295.99 291.271 297.43C291.271 298.72 290.911 299.86 290.201 300.87C289.491 301.88 288.481 302.67 287.191 303.25C285.891 303.82 284.371 304.11 282.621 304.11C280.871 304.11 279.251 303.79 277.841 303.15L277.821 303.16Z" fill="white"/>
</svg>
