<?xml version="1.0" encoding="UTF-8"?>
<svg id="Calque_1" xmlns="http://www.w3.org/2000/svg" version="1.1" viewBox="0 0 531.2 122.2">
  <!-- Generator: Adobe Illustrator 29.4.0, SVG Export Plug-In . SVG Version: 2.1.0 Build 152)  -->
  <defs>
    <style>
      .st0 {
        isolation: isolate;
      }

      .st1 {
        fill: #2e3862;
      }

      .st2 {
        fill: #ff6136;
      }
    </style>
  </defs>
  <g class="st0">
    <g>
      <path class="st1" d="M154.9.8c1.2,0,1.5.4,1.5,1.5v36.5c0,30.6-6,38.2-29.8,38.2s-29.7-7.6-29.7-38.2V2.3c0-1.1.3-1.5,1.5-1.5h7.1c1.2,0,1.5.4,1.5,1.5v36.5c0,23.5,4,29.3,19.6,29.3s19.7-5.8,19.7-29.3V2.3c0-1.1.3-1.5,1.5-1.5h7.1,0Z"/>
      <path class="st1" d="M216.5,49.1c0,22.3-4,27.9-22.9,27.9s-8.9-.1-13.2-.6v18.4c0,1-.5,1.5-1.5,1.5h-6.6c-1,0-1.5-.5-1.5-1.5V24.7c0-1.1.6-1.5,1.6-1.7,8.8-1.4,13.2-1.7,20.7-1.7,19.4,0,23.4,5.7,23.4,27.8ZM180.4,29.7v38.1c4,.5,8.7.8,12.6.8,12.4,0,13.9-3.8,13.9-19.4s-1.4-19.5-13.7-19.5h-12.8,0Z"/>
      <path class="st1" d="M272.8,1.8c1,0,1.4.5,1.4,1.3v4.6c0,1-.4,1.5-1.3,1.5h-22.5c-8.8,0-13.1,2.7-13.1,8.9v1.7c0,5,1.4,7.7,7.5,10.2l21.8,9c9.2,3.8,11.5,9.5,11.5,17.4v3.2c0,15.2-12.2,17.4-26.4,17.4s-16-.4-24.4-1.4c-.9-.2-1.2-.6-1.2-1.6v-4.5c0-.9.5-1.4,1.4-1.4h27.4c8.8,0,13-2.5,13-8.8v-1.9c0-5.1-1.4-8.3-7.6-10.8l-23.7-9.6c-7.8-3-9.4-9.4-9.4-17v-2.4c0-15.2,11.9-17.3,26.2-17.3s11.3.5,19.4,1.5h0Z"/>
      <path class="st1" d="M299.7,5.8c0,3.8-2,5.9-5.9,5.9s-5.9-2.1-5.9-5.9,2.1-5.8,5.9-5.8,5.9,2,5.9,5.8ZM297.1,21.8c1,0,1.5.5,1.5,1.5v51.7c0,1-.5,1.5-1.5,1.5h-6.6c-1,0-1.5-.5-1.5-1.5V23.3c0-1,.5-1.5,1.5-1.5h6.6Z"/>
      <path class="st1" d="M354.8,23c1,0,1.6.6,1.6,1.7v46.8c-.1,19.6-3.9,25.3-23.1,25.3s-9.3-.2-14.5-.9c-.9-.1-1.3-.7-1.3-1.6v-4.3c0-1,.4-1.5,1.4-1.5h14.2c11.2,0,13.7-2.7,13.7-11.7v-.6c-4.3.7-8.2.8-13.2.8-18.9,0-22.9-5.6-22.9-28s4.1-27.7,23.4-27.7,16.4.8,20.7,1.7h0ZM334,29.7c-12.3,0-13.7,3.9-13.7,19.4s1.5,19.5,13.9,19.5,8.6-.2,12.6-.7V29.7h-12.8Z"/>
      <path class="st1" d="M415.5,44.7v30.3c0,1-.7,1.5-1.7,1.5h-6.4c-1,0-1.5-.5-1.5-1.5v-29.5c0-15.3-3-15.8-12.6-15.8h-13.7v45.3c0,1-.5,1.5-1.5,1.5h-6.6c-1,0-1.5-.5-1.5-1.5V24.5c0-1.3.5-1.4,1.5-1.6,7.8-1.5,16-1.6,20.8-1.6,17.9,0,23.2,2.2,23.2,23.4h0Z"/>
      <path class="st1" d="M473.7,49.2c0,22.3-3.9,27.8-23.2,27.8s-23.3-5.5-23.3-27.8,4-27.9,23.3-27.9,23.2,5.6,23.2,27.9ZM436.8,49.2c0,15.5,1.5,19.4,13.7,19.4s13.6-3.9,13.6-19.4-1.5-19.5-13.6-19.5-13.7,3.9-13.7,19.5h0Z"/>
      <path class="st1" d="M531.2,44.7v30.3c0,1-.7,1.5-1.7,1.5h-6.4c-1,0-1.5-.5-1.5-1.5v-29.5c0-15.3-3-15.8-12.6-15.8h-13.7v45.3c0,1-.5,1.5-1.5,1.5h-6.6c-1,0-1.5-.5-1.5-1.5V24.5c0-1.3.5-1.4,1.5-1.6,7.8-1.5,16-1.6,20.8-1.6,17.9,0,23.2,2.2,23.2,23.4Z"/>
      <g>
        <path class="st2" d="M380.9,94c.2,0,.4.1.4.4v5.8c1-.1,2.4-.2,4.2-.2,5.8,0,6.8,1.6,6.8,8.2s-1,8.2-6.6,8.2-3.3,0-6.1-.5c-.3,0-.4-.1-.4-.4v-21.1c0-.2.1-.4.4-.4h1.4,0ZM381.3,101.9v12.3c1.6.2,3,.3,4.3.3,4,0,4.5-1.3,4.5-6.3s-.5-6.2-4.6-6.2h-4.2,0Z"/>
        <path class="st2" d="M408.8,100.1c.2,0,.4.1.4.4v14.4c0,5.7-1.2,7.3-6.7,7.3s-2.8,0-4.2-.2c-.2,0-.4-.2-.4-.4v-.9c0-.2.1-.4.4-.4h4.2c3.7,0,4.5-.9,4.5-3.9v-.2c-1.6.2-2.8.2-4.3.2-5.6,0-6.6-1.6-6.6-8.2v-7.6c0-.2.1-.4.4-.4h1.4c.3,0,.4.1.4.4v7.6c0,5.1.5,6.4,4.5,6.4s2.7,0,4.3-.3v-13.7c0-.2.1-.4.4-.4h1.4,0Z"/>
        <path class="st2" d="M433.2,94.3c.4,0,.5.2.5.5v1.8c0,.3-.1.5-.4.5h-6.8c-2.2,0-3.3.7-3.3,2.2v.5c0,1.2.4,1.9,2,2.6l6,2.4c2.8,1.1,3.7,2.6,3.7,5.4v.9c0,4.4-3.5,5.3-8.1,5.3s-4.6-.1-7.2-.5c-.3,0-.4-.2-.4-.5v-1.8c0-.3.1-.5.5-.5h8.2c2.2,0,3.3-.6,3.3-2.2v-.5c0-1.3-.5-2.1-2.2-2.8l-6.4-2.5c-2.4-.9-3.1-2.6-3.1-5.4v-.7c0-4.4,3.3-5.3,8-5.3s3.6.1,5.9.5h0Z"/>
        <path class="st2" d="M452.9,93.9c.3,0,.5.1.5.4v2.4c0,.3-.2.4-.5.4h-10.9v6.5h10c.3,0,.4.1.4.4v2.3c0,.3-.2.4-.4.4h-10v6.1h10.9c.3,0,.5.1.5.4v2.4c0,.3-.2.4-.5.4h-14.3c-.3,0-.4-.1-.4-.4v-21.4c0-.3.2-.4.4-.4h14.3Z"/>
        <path class="st2" d="M473.2,101.1c0,6-2.2,7-8.8,7h-3.7v7.8c0,.4,0,.4-.4.4h-2.9c-.3,0-.4,0-.4-.4v-21.4c0-.3,0-.4.4-.4,2.4-.2,5-.2,7-.2,6.5,0,8.8,1.3,8.8,7.2ZM460.8,97.1v8h3.3c4.2,0,5.3-.4,5.3-3.9s-1.1-4.1-5.3-4.1h-3.3Z"/>
        <path class="st2" d="M491.7,93.9c.3,0,.4.1.4.4v2.4c0,.3-.2.4-.4.4h-6.5v18.6c0,.3-.2.4-.4.4h-2.9c-.3,0-.4-.1-.4-.4v-18.6h-6.4c-.3,0-.4-.1-.4-.4v-2.4c0-.3.2-.4.4-.4h16.7,0Z"/>
        <path class="st2" d="M509.6,93.9c.3,0,.5.1.5.4v2.4c0,.3-.2.4-.5.4h-10.9v6.5h10c.3,0,.4.1.4.4v2.3c0,.3-.2.4-.4.4h-10v6.1h10.9c.3,0,.5.1.5.4v2.4c0,.3-.2.4-.5.4h-14.3c-.3,0-.4-.1-.4-.4v-21.4c0-.3.2-.4.4-.4h14.3Z"/>
        <path class="st2" d="M531.2,105.1c0,8.7-1.9,11.2-9.2,11.2s-9.2-2.6-9.2-11.2,1.9-11.3,9.2-11.3,9.2,2.6,9.2,11.3ZM516.6,105.1c0,6.1.8,8,5.4,8s5.5-1.8,5.5-8-.8-8.1-5.5-8.1-5.4,1.9-5.4,8.1Z"/>
      </g>
    </g>
  </g>
  <g>
    <path class="st2" d="M55.2,23.6L2.8,76.5h7.4L58.9,27.4c.1-.1.2-.4,0-.6h0l-3.1-3.1c-.1-.3-.4-.3-.6-.1Z"/>
    <path class="st2" d="M3.8,37.9L41.3,0h-7.4L.1,34.2c-.1.1-.2.4,0,.6H.1l3.1,3.1c.2.2.5.2.6,0h0Z"/>
    <path class="st2" d="M62.6,31.1l-45,45.4h7.4l41.3-41.6c.1-.2.1-.5,0-.6l-3.1-3.1c-.1-.3-.4-.3-.6-.1h0Z"/>
    <path class="st2" d="M70.1,38.6l-37.5,37.9h7.4l33.9-34.2c.1-.2.1-.5,0-.6l-3.1-3.1c-.2-.2-.5-.2-.7,0h0Z"/>
    <path class="st2" d="M7.6,42.2l3.1,3.1c.2.1.5.1.6,0L56.2,0h-7.4L7.6,41.6c-.2.2-.2.5,0,.6h0Z"/>
    <path class="st2" d="M14.9,49.8l3.1,3.1c.2.1.5.1.6,0L71,0h-7.4L14.9,49.1c-.1.2-.1.5,0,.6Z"/>
  </g>
</svg>