<svg xmlns="http://www.w3.org/2000/svg" viewBox="0 0 140 140" preserveAspectRatio="xMidYMid meet">
<circle fill="rgb(0, 171, 169)" cx="70" cy="70" r="70"/>
<svg fill="white" stroke-width="0" x="20" y="20">
<path d="
M50.00,3.00a17 17 0 1 0 0,34a17 17 0 1 0 0,-34Z
M50,7a10 10 0 0 1 0,20a10 10 0 1 1 0,-20Z

M24.63,29.23
A30 30 0 0 0 75.37,29.23
A3.5 3.5 20 1 1 81.95,31.63
A34 34 0 0 1 18.05,31.63
A3.5 3.5 -20 1 1 24.63,29.23Z

M8.65,35.05
A47 47 0 0 0 91.35,35.05
A3.5 3.5 20 1 1 97.92,37.44
A51 51 0 0 1 2.08,37.44
A3.5 3.5 -20 1 1 8.65,35.05Z

M50.00,97.00a10,10 0 0 0 0,-20a10,10 0 0 0 0,20Z"/>
</svg>
</svg>
