<?xml version="1.0" standalone="no"?>
<!DOCTYPE svg PUBLIC "-//W3C//DTD SVG 20010904//EN"
 "http://www.w3.org/TR/2001/REC-SVG-20010904/DTD/svg10.dtd">
<svg version="1.0" xmlns="http://www.w3.org/2000/svg"
 width="1024.000000pt" height="1024.000000pt" viewBox="0 0 1024.000000 1024.000000"
 preserveAspectRatio="xMidYMid meet">
<metadata>
Created by potrace 1.14, written by Peter Selinger 2001-2017
</metadata>
<g transform="translate(0.000000,1024.000000) scale(0.100000,-0.100000)"
fill="#000000" stroke="none">
<path d="M4720 10229 c-985 -84 -1881 -421 -2665 -1004 -371 -275 -764 -668
-1040 -1040 -515 -692 -843 -1481 -964 -2320 -41 -281 -46 -364 -46 -745 0
-381 5 -464 46 -745 172 -1187 770 -2292 1672 -3089 193 -171 328 -274 547
-421 720 -481 1463 -748 2360 -847 157 -17 814 -17 980 0 1060 111 1997 505
2810 1183 151 125 460 432 594 589 614 719 1016 1589 1165 2520 48 297 55 408
56 805 0 387 -5 466 -46 750 -261 1802 -1485 3349 -3179 4018 -434 171 -863
278 -1342 333 -158 18 -788 27 -948 13z m613 -1694 c240 -42 463 -155 638
-322 513 -490 517 -1297 9 -1787 -239 -231 -528 -347 -860 -347 -349 0 -653
130 -895 382 -168 175 -271 376 -326 634 -20 93 -18 353 4 455 55 258 160 454
342 636 183 186 403 302 659 349 101 18 323 18 429 0z m-2177 -1770 c37 -24
60 -50 100 -115 160 -262 390 -498 654 -673 200 -133 476 -252 710 -306 175
-41 289 -54 495 -54 214 -1 337 13 522 58 556 135 1053 495 1347 975 65 107
116 142 212 148 83 6 143 -17 200 -74 51 -51 80 -132 70 -200 -14 -105 -151
-389 -281 -584 -528 -792 -1466 -1216 -2401 -1085 -709 99 -1333 491 -1729
1085 -130 195 -267 479 -281 584 -14 98 48 209 140 253 74 35 173 30 242 -12z
m-1184 -408 c59 -35 77 -57 137 -172 67 -127 192 -317 307 -465 105 -136 410
-445 544 -552 498 -395 1051 -634 1690 -729 173 -26 583 -37 767 -20 685 63
1320 318 1863 749 134 107 439 416 544 552 113 146 237 334 312 475 44 82 70
117 102 142 174 133 421 -5 399 -223 -10 -99 -189 -496 -321 -713 -173 -284
-335 -491 -566 -721 -1206 -1207 -3071 -1437 -4544 -560 -634 377 -1162 964
-1466 1630 -112 244 -134 309 -134 390 -1 65 3 82 27 122 31 53 79 93 134 114
56 21 152 12 205 -19z m3296 -3232 c262 -53 479 -258 553 -520 29 -101 31
-267 6 -365 -53 -203 -200 -386 -382 -476 -363 -178 -797 -31 -976 331 -55
113 -73 189 -73 320 0 290 153 529 419 656 138 66 297 85 453 54z"/>
<path d="M4979 8255 c-143 -29 -269 -96 -374 -200 -145 -144 -216 -314 -217
-520 0 -164 43 -299 136 -428 290 -408 901 -408 1192 -1 93 130 136 265 136
429 -1 206 -72 378 -217 520 -177 173 -419 247 -656 200z"/>
</g>
</svg>
