<svg xmlns="http://www.w3.org/2000/svg" width="407.61" height="407.613" viewBox="0 0 407.61 407.613"><g id="PICTO" transform="translate(-625.489 -437.933)"><path id="Tracé_17533" data-name="Tracé 17533" d="M829.3,437.933c112.558,0,203.8,91.249,203.8,203.807S941.85,845.546,829.3,845.546,625.489,754.3,625.489,641.739,716.738,437.933,829.3,437.933Z" transform="translate(0 0)" fill="#e7e7ef"></path><g id="Groupe_1961" data-name="Groupe 1961" transform="translate(704.844 588.165)"><g id="Groupe_1958" data-name="Groupe 1958" transform="translate(28.846)"><path id="Tracé_17532" data-name="Tracé 17532" d="M722.112,560.411h-42.7l6.3-44.529h28.973Z" transform="translate(-604.997 -402.122)" fill="#313566"></path><rect id="Rectangle_647" data-name="Rectangle 647" width="191.53" height="129.619" rx="0.362" fill="#313566"></rect><rect id="Rectangle_648" data-name="Rectangle 648" width="177.501" height="102.475" rx="0.362" transform="translate(7.014 6.71)" fill="#04bab1"></rect><path id="Rectangle_649" data-name="Rectangle 649" d="M677.351,528.309H738.78a1.006,1.006,0,0,1,1.006,1.006h0v3.874H676.349v-3.874A1,1,0,0,1,677.351,528.309Z" transform="translate(-612.301 -372.462)" fill="#313566"></path></g><rect id="Rectangle_650" data-name="Rectangle 650" width="91.367" height="116.009" rx="0.404" transform="matrix(1, -0.005, 0.005, 1, 0, 46.875)" fill="#313566"></rect><rect id="Rectangle_651" data-name="Rectangle 651" width="76.279" height="99.237" transform="translate(7.48 55.043) rotate(-0.286)" fill="#04bab1"></rect><g id="Groupe_1960" data-name="Groupe 1960" transform="translate(43.413 49.388)"><g id="Groupe_1959" data-name="Groupe 1959" transform="translate(142.265 31.549)"><rect id="Rectangle_652" data-name="Rectangle 652" width="45.225" height="80.967" rx="0.422" fill="#313566"></rect><rect id="Rectangle_653" data-name="Rectangle 653" width="35.286" height="66.197" transform="translate(4.833 6.565)" fill="#04bab1"></rect></g><circle id="Ellipse_95" data-name="Ellipse 95" cx="0.889" cy="0.889" r="0.889" transform="translate(165.101 34.122)" fill="#fff"></circle><circle id="Ellipse_96" data-name="Ellipse 96" cx="0.889" cy="0.889" r="0.889" fill="#fff"></circle><rect id="Rectangle_654" data-name="Rectangle 654" width="12.172" height="3.693" rx="0.112" transform="translate(159.887 106.334)" fill="#fff"></rect></g></g><g id="PICTO-2" data-name="PICTO" transform="translate(806.638 513.921)"><path id="Tracé_17533-2" data-name="Tracé 17533" d="M744.954,460.37a65.979,65.979,0,1,1-65.977,65.98A65.979,65.979,0,0,1,744.954,460.37Z" transform="translate(-678.977 -460.37)" fill="#313566"></path></g><g id="Groupe_2020" data-name="Groupe 2020" transform="translate(836.875 545.16)"><path id="Tracé_17656" data-name="Tracé 17656" d="M747.826,481.456a26.122,26.122,0,0,1-48.359,0,25.108,25.108,0,0,0-11.562,21.15v13.015a53.091,53.091,0,0,0,71.484,0V502.6A25.119,25.119,0,0,0,747.826,481.456Z" transform="translate(-687.905 -441.29)" fill="#fff"></path><g id="Groupe_4" data-name="Groupe 4" transform="translate(13.479)"><path id="Tracé_7" data-name="Tracé 7" d="M714.149,517.249A22.263,22.263,0,0,0,736.427,495v-.017c0-22.264-9.984-25.39-22.278-25.39s-22.264,3.126-22.264,25.39a22.265,22.265,0,0,0,22.264,22.264" transform="translate(-691.885 -469.594)" fill="#fff"></path></g></g><g id="Groupe_2022" data-name="Groupe 2022" transform="translate(902.825 511.163)"><rect id="Rectangle_668" data-name="Rectangle 668" width="54.799" height="45.713" rx="8" fill="#00aba9"></rect><path id="Tracé_17657" data-name="Tracé 17657" d="M710.1,483.407V472.76H720.75" transform="translate(-700.875 -428.041)" fill="#00aba9"></path><g id="Groupe_2021" data-name="Groupe 2021" transform="translate(12.223 6.743)"><path id="Tracé_17658" data-name="Tracé 17658" d="M733.549,485.739a2.419,2.419,0,0,1,1.693,2.113,2.22,2.22,0,0,1-2.259,2.371c-1.636.027-3.271.01-4.907.01-2.435,0-4.87.058-7.3-.017a10.555,10.555,0,0,1-6.073-1.968,1.651,1.651,0,0,1-.762-1.463q.051-5.842.024-11.684A2.125,2.125,0,0,1,715,473.158a16.273,16.273,0,0,0,4.714-5.27c.972-1.588,1.8-3.268,2.635-4.938a2.409,2.409,0,0,1,3.079-1.246A2.16,2.16,0,0,1,727,464.528c-.586,2.059-1.229,4.1-1.859,6.143-.335,1.084.017,1.636,1.141,1.636,2.669.007,5.334-.031,8-.024a3.725,3.725,0,0,1,1.311.217,2.142,2.142,0,0,1,1.307,2.259,2.171,2.171,0,0,1-1.656,1.958c-.149.041-.3.074-.545.135a2.3,2.3,0,0,1,1.639,2.554c-.142.979-.759,1.517-2.069,1.873a2.3,2.3,0,0,1,1.47,2.723A2.261,2.261,0,0,1,733.549,485.739Z" transform="translate(-703.94 -461.547)" fill="#fff"></path><path id="Tracé_17659" data-name="Tracé 17659" d="M719.149,473.02c0,2.046.007,4.088,0,6.133a1.71,1.71,0,0,1-1.9,1.924q-2.189.01-4.379,0A1.694,1.694,0,0,1,711,479.238q-.02-6.248,0-12.5a1.645,1.645,0,0,1,1.842-1.788q2.251-.015,4.5,0a1.649,1.649,0,0,1,1.809,1.819C719.159,468.854,719.149,470.937,719.149,473.02Zm-5.324,4.389a1.257,1.257,0,0,0,1.273,1.246,1.279,1.279,0,0,0,1.263-1.267,1.3,1.3,0,0,0-1.311-1.287A1.281,1.281,0,0,0,713.825,477.409Z" transform="translate(-710.987 -453.443)" fill="#fff"></path></g></g><path id="Tracé_17660" data-name="Tracé 17660" d="M701.543,502.611A17.692,17.692,0,1,1,716.651,475.7l-1.886,1.151a15.481,15.481,0,1,0-7.833,22.579l.769,2.08A17.822,17.822,0,0,1,701.543,502.611Z" transform="translate(139.301 69.917)" fill="#00aba9"></path><g id="Groupe_2023" data-name="Groupe 2023" transform="translate(833.504 548.815)"><circle id="Ellipse_100" data-name="Ellipse 100" cx="2.519" cy="2.519" r="2.519" fill="#00aba9"></circle><circle id="Ellipse_101" data-name="Ellipse 101" cx="2.519" cy="2.519" r="2.519" transform="translate(9.645)" fill="#00aba9"></circle></g><path id="Tracé_17661" data-name="Tracé 17661" d="M663.281,471.111l3.344,6.776,7.478,1.087-5.411,5.274,1.277,7.448-6.688-3.516-6.688,3.516,1.277-7.448-5.411-5.274,7.478-1.087Z" transform="translate(64.37 79.187)" fill="#00aba9"></path><path id="Tracé_17662" data-name="Tracé 17662" d="M671.3,471.111l3.344,6.776,7.478,1.087-5.411,5.274,1.277,7.448-6.688-3.516-6.688,3.516,1.277-7.448-5.411-5.274,7.478-1.087Z" transform="translate(83.51 79.187)" fill="#00aba9"></path><path id="Tracé_17663" data-name="Tracé 17663" d="M679.319,471.111l3.344,6.776,7.478,1.087-5.411,5.274,1.277,7.448-6.688-3.516-6.688,3.516,1.277-7.448-5.411-5.274,7.477-1.087Z" transform="translate(102.65 79.187)" fill="#00aba9"></path><path id="Tracé_17664" data-name="Tracé 17664" d="M686.926,473.25a7.57,7.57,0,0,0,14.424,0Z" transform="translate(146.634 84.292)" fill="#00aba9"></path></g></svg>
