<svg xmlns="http://www.w3.org/2000/svg" width="407.605" height="407.605"
  viewBox="0 0 407.605 407.605">
  <g id="PICTO" transform="translate(-1125.256 -1875.425)">
    <path id="Tracé_17533" data-name="Tracé 17533"
      d="M203.8,0c112.557,0,203.8,91.246,203.8,203.8s-91.246,203.8-203.8,203.8S0,316.36,0,203.8,91.246,0,203.8,0Z"
      transform="translate(1125.256 1875.425)" fill="#e7e7ef"></path>
    <g id="Groupe_1961" data-name="Groupe 1961" transform="translate(1204.609 2025.652)">
      <g id="Groupe_1958" data-name="Groupe 1958" transform="translate(28.845 0)">
        <path id="Tracé_17532" data-name="Tracé 17532" d="M353.128,363.463h-42.7l6.3-44.527h28.973Z"
          transform="translate(-236.018 -205.18)" fill="#313566"></path>
        <rect id="Rectangle_647" data-name="Rectangle 647" width="191.525" height="129.615"
          rx="1.225" fill="#313566"></rect>
        <rect id="Rectangle_648" data-name="Rectangle 648" width="177.496" height="102.472"
          rx="1.225" transform="translate(7.014 6.71)" fill="#04bab1"></rect>
        <path id="Rectangle_649" data-name="Rectangle 649"
          d="M1.005,0H62.43a1.005,1.005,0,0,1,1.005,1.005V4.88a0,0,0,0,1,0,0H0a0,0,0,0,1,0,0V1.005A1.005,1.005,0,0,1,1.005,0Z"
          transform="translate(64.045 155.843)" fill="#313566"></path>
      </g>
      <rect id="Rectangle_650" data-name="Rectangle 650" width="91.364" height="116.006" rx="1.367"
        transform="translate(0 46.874) rotate(-0.279)" fill="#313566"></rect>
      <rect id="Rectangle_651" data-name="Rectangle 651" width="76.276" height="99.233"
        transform="matrix(1, -0.005, 0.005, 1, 7.48, 55.041)" fill="#04bab1"></rect>
      <g id="Groupe_1960" data-name="Groupe 1960" transform="translate(43.412 49.387)">
        <g id="Groupe_1959" data-name="Groupe 1959" transform="translate(142.261 31.548)">
          <rect id="Rectangle_652" data-name="Rectangle 652" width="45.224" height="80.965"
            rx="1.428" fill="#313566"></rect>
          <rect id="Rectangle_653" data-name="Rectangle 653" width="35.285" height="66.195"
            transform="translate(4.833 6.565)" fill="#04bab1"></rect>
        </g>
        <ellipse id="Ellipse_95" data-name="Ellipse 95" cx="0.889" cy="0.889" rx="0.889" ry="0.889"
          transform="translate(165.096 34.121)" fill="#fff"></ellipse>
        <ellipse id="Ellipse_96" data-name="Ellipse 96" cx="0.889" cy="0.889" rx="0.889" ry="0.889"
          fill="#fff"></ellipse>
        <rect id="Rectangle_654" data-name="Rectangle 654" width="12.172" height="3.693" rx="0.38"
          transform="translate(159.882 106.331)" fill="#fff"></rect>
      </g>
    </g>
    <g id="Groupe_1962" data-name="Groupe 1962" transform="translate(1298.182 1936.491)">
      <g id="Groupe_1954" data-name="Groupe 1954" transform="translate(0 0)">
        <path id="Tracé_17457" data-name="Tracé 17457"
          d="M655.374,250.536a12.263,12.263,0,0,1-.417,3.389,6.945,6.945,0,0,1-1.158,2.38,4.636,4.636,0,0,1-1.743,1.4,5.147,5.147,0,0,1-2.172.461,5.091,5.091,0,0,1-2.163-.461,4.632,4.632,0,0,1-1.729-1.4,6.931,6.931,0,0,1-1.144-2.38,14.137,14.137,0,0,1,0-6.784,6.935,6.935,0,0,1,1.144-2.374,4.66,4.66,0,0,1,1.729-1.4,5.124,5.124,0,0,1,2.163-.459,5.18,5.18,0,0,1,2.172.459,4.664,4.664,0,0,1,1.743,1.4,6.95,6.95,0,0,1,1.158,2.374A12.263,12.263,0,0,1,655.374,250.536Zm-2.633,0a12.62,12.62,0,0,0-.236-2.683,5.42,5.42,0,0,0-.635-1.692,2.349,2.349,0,0,0-.913-.883,2.425,2.425,0,0,0-1.073-.252,2.382,2.382,0,0,0-1.06.252,2.326,2.326,0,0,0-.9.883,5.433,5.433,0,0,0-.626,1.692,15.653,15.653,0,0,0,0,5.366,5.433,5.433,0,0,0,.626,1.692,2.293,2.293,0,0,0,.9.883,2.352,2.352,0,0,0,1.06.252,2.4,2.4,0,0,0,1.073-.252,2.316,2.316,0,0,0,.913-.883,5.42,5.42,0,0,0,.635-1.692A12.619,12.619,0,0,0,652.741,250.536Z"
          transform="translate(-644.435 -242.911)" fill="#e6e6e6"></path>
        <path id="Tracé_17458" data-name="Tracé 17458"
          d="M652.144,256.007h3.025v-8.7c0-.337.012-.693.03-1.064l-2.146,1.8a.754.754,0,0,1-.273.156.95.95,0,0,1-.273.041.792.792,0,0,1-.376-.089.707.707,0,0,1-.255-.2l-.8-1.105,4.55-3.869h2.1v13.033H660.4v1.91h-8.256Z"
          transform="translate(-635.85 -242.83)" fill="#e6e6e6"></path>
        <path id="Tracé_17459" data-name="Tracé 17459"
          d="M658.265,256.007h3.023v-8.7c0-.337.011-.693.032-1.064l-2.146,1.8a.774.774,0,0,1-.273.156.975.975,0,0,1-.273.041.807.807,0,0,1-.378-.089.7.7,0,0,1-.252-.2l-.8-1.105,4.552-3.869h2.094v13.033h2.683v1.91h-8.256Z"
          transform="translate(-627.937 -242.83)" fill="#e6e6e6"></path>
        <path id="Tracé_17460" data-name="Tracé 17460"
          d="M673.734,250.536a12.261,12.261,0,0,1-.417,3.389,6.947,6.947,0,0,1-1.158,2.38,4.655,4.655,0,0,1-1.743,1.4,5.147,5.147,0,0,1-2.172.461,5.076,5.076,0,0,1-2.163-.461,4.632,4.632,0,0,1-1.729-1.4,6.974,6.974,0,0,1-1.147-2.38,14.215,14.215,0,0,1,0-6.784,6.978,6.978,0,0,1,1.147-2.374,4.66,4.66,0,0,1,1.729-1.4,5.108,5.108,0,0,1,2.163-.459,5.18,5.18,0,0,1,2.172.459,4.684,4.684,0,0,1,1.743,1.4,6.952,6.952,0,0,1,1.158,2.374A12.261,12.261,0,0,1,673.734,250.536Zm-2.633,0a12.629,12.629,0,0,0-.236-2.683,5.484,5.484,0,0,0-.635-1.692,2.362,2.362,0,0,0-.913-.883,2.424,2.424,0,0,0-1.073-.252,2.383,2.383,0,0,0-1.06.252,2.326,2.326,0,0,0-.9.883,5.377,5.377,0,0,0-.626,1.692,15.653,15.653,0,0,0,0,5.366,5.377,5.377,0,0,0,.626,1.692,2.294,2.294,0,0,0,.9.883,2.353,2.353,0,0,0,1.06.252,2.394,2.394,0,0,0,1.073-.252,2.329,2.329,0,0,0,.913-.883,5.484,5.484,0,0,0,.635-1.692A12.629,12.629,0,0,0,671.1,250.536Z"
          transform="translate(-620.691 -242.911)" fill="#e6e6e6"></path>
        <path id="Tracé_17461" data-name="Tracé 17461"
          d="M679.853,250.536a12.263,12.263,0,0,1-.417,3.389,6.9,6.9,0,0,1-1.156,2.38,4.654,4.654,0,0,1-1.743,1.4,5.165,5.165,0,0,1-2.174.461,5.09,5.09,0,0,1-2.163-.461,4.642,4.642,0,0,1-1.727-1.4,6.933,6.933,0,0,1-1.147-2.38,14.141,14.141,0,0,1,0-6.784,6.937,6.937,0,0,1,1.147-2.374,4.671,4.671,0,0,1,1.727-1.4,5.123,5.123,0,0,1,2.163-.459,5.2,5.2,0,0,1,2.174.459,4.682,4.682,0,0,1,1.743,1.4,6.909,6.909,0,0,1,1.156,2.374A12.263,12.263,0,0,1,679.853,250.536Zm-2.63,0a12.607,12.607,0,0,0-.238-2.683,5.433,5.433,0,0,0-.633-1.692,2.352,2.352,0,0,0-.915-.883,2.425,2.425,0,0,0-1.073-.252,2.366,2.366,0,0,0-1.057.252,2.33,2.33,0,0,0-.9.883,5.376,5.376,0,0,0-.624,1.692,15.653,15.653,0,0,0,0,5.366,5.376,5.376,0,0,0,.624,1.692,2.3,2.3,0,0,0,.9.883,2.336,2.336,0,0,0,1.057.252,2.4,2.4,0,0,0,1.073-.252,2.319,2.319,0,0,0,.915-.883,5.433,5.433,0,0,0,.633-1.692A12.607,12.607,0,0,0,677.223,250.536Z"
          transform="translate(-612.777 -242.911)" fill="#e6e6e6"></path>
        <path id="Tracé_17462" data-name="Tracé 17462"
          d="M676.625,256.007h3.023v-8.7c0-.337.011-.693.032-1.064l-2.146,1.8a.774.774,0,0,1-.273.156.975.975,0,0,1-.273.041.807.807,0,0,1-.378-.089.7.7,0,0,1-.252-.2l-.805-1.105,4.55-3.869h2.1v13.033h2.683v1.91h-8.256Z"
          transform="translate(-604.192 -242.83)" fill="#e6e6e6"></path>
        <path id="Tracé_17463" data-name="Tracé 17463"
          d="M692.093,250.536a12.265,12.265,0,0,1-.417,3.389,6.983,6.983,0,0,1-1.156,2.38,4.66,4.66,0,0,1-1.745,1.4,5.147,5.147,0,0,1-2.172.461,5.091,5.091,0,0,1-2.163-.461,4.669,4.669,0,0,1-1.729-1.4,6.934,6.934,0,0,1-1.144-2.38,14.141,14.141,0,0,1,0-6.784,6.938,6.938,0,0,1,1.144-2.374,4.7,4.7,0,0,1,1.729-1.4,5.124,5.124,0,0,1,2.163-.459,5.18,5.18,0,0,1,2.172.459,4.689,4.689,0,0,1,1.745,1.4,6.988,6.988,0,0,1,1.156,2.374A12.265,12.265,0,0,1,692.093,250.536Zm-2.631,0a12.607,12.607,0,0,0-.238-2.683,5.363,5.363,0,0,0-.635-1.692,2.334,2.334,0,0,0-.913-.883,2.424,2.424,0,0,0-1.073-.252,2.365,2.365,0,0,0-1.057.252,2.315,2.315,0,0,0-.9.883,5.377,5.377,0,0,0-.624,1.692,15.653,15.653,0,0,0,0,5.366,5.377,5.377,0,0,0,.624,1.692,2.283,2.283,0,0,0,.9.883,2.336,2.336,0,0,0,1.057.252,2.394,2.394,0,0,0,1.073-.252,2.3,2.3,0,0,0,.913-.883,5.363,5.363,0,0,0,.635-1.692A12.607,12.607,0,0,0,689.462,250.536Z"
          transform="translate(-596.947 -242.911)" fill="#e6e6e6"></path>
        <path id="Tracé_17464" data-name="Tracé 17464"
          d="M698.213,250.536a12.27,12.27,0,0,1-.417,3.389,6.9,6.9,0,0,1-1.156,2.38,4.66,4.66,0,0,1-1.745,1.4,5.147,5.147,0,0,1-2.172.461,5.091,5.091,0,0,1-2.163-.461,4.667,4.667,0,0,1-1.729-1.4,6.974,6.974,0,0,1-1.144-2.38,14.141,14.141,0,0,1,0-6.784,6.979,6.979,0,0,1,1.144-2.374,4.7,4.7,0,0,1,1.729-1.4,5.123,5.123,0,0,1,2.163-.459,5.18,5.18,0,0,1,2.172.459,4.689,4.689,0,0,1,1.745,1.4,6.9,6.9,0,0,1,1.156,2.374A12.27,12.27,0,0,1,698.213,250.536Zm-2.63,0a12.612,12.612,0,0,0-.238-2.683,5.369,5.369,0,0,0-.635-1.692,2.333,2.333,0,0,0-.913-.883,2.425,2.425,0,0,0-1.073-.252,2.365,2.365,0,0,0-1.057.252,2.314,2.314,0,0,0-.9.883,5.385,5.385,0,0,0-.624,1.692,15.657,15.657,0,0,0,0,5.366,5.385,5.385,0,0,0,.624,1.692,2.282,2.282,0,0,0,.9.883,2.336,2.336,0,0,0,1.057.252,2.4,2.4,0,0,0,1.073-.252,2.3,2.3,0,0,0,.913-.883,5.369,5.369,0,0,0,.635-1.692A12.612,12.612,0,0,0,695.583,250.536Z"
          transform="translate(-589.033 -242.911)" fill="#e6e6e6"></path>
        <path id="Tracé_17465" data-name="Tracé 17465"
          d="M704.333,250.536a12.258,12.258,0,0,1-.417,3.389,6.943,6.943,0,0,1-1.158,2.38,4.637,4.637,0,0,1-1.743,1.4,5.147,5.147,0,0,1-2.172.461,5.091,5.091,0,0,1-2.162-.461,4.632,4.632,0,0,1-1.729-1.4,6.935,6.935,0,0,1-1.144-2.38,14.141,14.141,0,0,1,0-6.784,6.94,6.94,0,0,1,1.144-2.374,4.66,4.66,0,0,1,1.729-1.4,5.124,5.124,0,0,1,2.162-.459,5.18,5.18,0,0,1,2.172.459,4.665,4.665,0,0,1,1.743,1.4,6.947,6.947,0,0,1,1.158,2.374A12.258,12.258,0,0,1,704.333,250.536Zm-2.633,0a12.633,12.633,0,0,0-.236-2.683,5.426,5.426,0,0,0-.635-1.692,2.347,2.347,0,0,0-.913-.883,2.424,2.424,0,0,0-1.073-.252,2.382,2.382,0,0,0-1.06.252,2.326,2.326,0,0,0-.9.883,5.439,5.439,0,0,0-.626,1.692,15.653,15.653,0,0,0,0,5.366,5.439,5.439,0,0,0,.626,1.692,2.294,2.294,0,0,0,.9.883,2.353,2.353,0,0,0,1.06.252,2.394,2.394,0,0,0,1.073-.252,2.314,2.314,0,0,0,.913-.883,5.426,5.426,0,0,0,.635-1.692A12.633,12.633,0,0,0,701.7,250.536Z"
          transform="translate(-581.118 -242.911)" fill="#e6e6e6"></path>
        <path id="Tracé_17466" data-name="Tracé 17466"
          d="M701.1,256.007h3.025v-8.7c0-.337.012-.693.03-1.064l-2.146,1.8a.753.753,0,0,1-.273.156.95.95,0,0,1-.273.041.791.791,0,0,1-.376-.089.7.7,0,0,1-.254-.2l-.8-1.105,4.55-3.869h2.1v13.033h2.681v1.91H701.1Z"
          transform="translate(-572.533 -242.83)" fill="#e6e6e6"></path>
        <path id="Tracé_17467" data-name="Tracé 17467"
          d="M655.374,261.338a12.263,12.263,0,0,1-.417,3.389,6.945,6.945,0,0,1-1.158,2.38,4.634,4.634,0,0,1-1.743,1.4,5.144,5.144,0,0,1-2.172.459,5.088,5.088,0,0,1-2.163-.459,4.63,4.63,0,0,1-1.729-1.4,6.931,6.931,0,0,1-1.144-2.38,14.137,14.137,0,0,1,0-6.784,6.914,6.914,0,0,1,1.144-2.374,4.637,4.637,0,0,1,1.729-1.4,5.09,5.09,0,0,1,2.163-.461,5.146,5.146,0,0,1,2.172.461,4.641,4.641,0,0,1,1.743,1.4,6.928,6.928,0,0,1,1.158,2.374A12.251,12.251,0,0,1,655.374,261.338Zm-2.633,0a12.619,12.619,0,0,0-.236-2.683,5.42,5.42,0,0,0-.635-1.692,2.332,2.332,0,0,0-.913-.883,2.425,2.425,0,0,0-1.073-.252,2.382,2.382,0,0,0-1.06.252,2.309,2.309,0,0,0-.9.883,5.433,5.433,0,0,0-.626,1.692,15.652,15.652,0,0,0,0,5.366,5.434,5.434,0,0,0,.626,1.693,2.309,2.309,0,0,0,.9.883,2.383,2.383,0,0,0,1.06.252,2.426,2.426,0,0,0,1.073-.252,2.331,2.331,0,0,0,.913-.883,5.421,5.421,0,0,0,.635-1.693A12.618,12.618,0,0,0,652.741,261.338Z"
          transform="translate(-644.435 -228.945)" fill="#e6e6e6"></path>
        <path id="Tracé_17468" data-name="Tracé 17468"
          d="M661.494,261.338a12.263,12.263,0,0,1-.417,3.389,6.985,6.985,0,0,1-1.156,2.38,4.661,4.661,0,0,1-1.745,1.4,5.144,5.144,0,0,1-2.172.459,5.088,5.088,0,0,1-2.163-.459,4.666,4.666,0,0,1-1.729-1.4,6.932,6.932,0,0,1-1.144-2.38,14.143,14.143,0,0,1,0-6.784,6.915,6.915,0,0,1,1.144-2.374,4.673,4.673,0,0,1,1.729-1.4A5.09,5.09,0,0,1,656,253.71a5.145,5.145,0,0,1,2.172.461,4.667,4.667,0,0,1,1.745,1.4,6.968,6.968,0,0,1,1.156,2.374A12.251,12.251,0,0,1,661.494,261.338Zm-2.63,0a12.594,12.594,0,0,0-.239-2.683,5.422,5.422,0,0,0-.635-1.692,2.332,2.332,0,0,0-.913-.883,2.425,2.425,0,0,0-1.073-.252,2.365,2.365,0,0,0-1.057.252,2.3,2.3,0,0,0-.9.883,5.375,5.375,0,0,0-.624,1.692,15.507,15.507,0,0,0,0,5.366,5.376,5.376,0,0,0,.624,1.693,2.3,2.3,0,0,0,.9.883,2.365,2.365,0,0,0,1.057.252,2.425,2.425,0,0,0,1.073-.252,2.331,2.331,0,0,0,.913-.883,5.422,5.422,0,0,0,.635-1.693A12.593,12.593,0,0,0,658.864,261.338Z"
          transform="translate(-636.52 -228.945)" fill="#e6e6e6"></path>
        <path id="Tracé_17469" data-name="Tracé 17469"
          d="M658.265,266.808h3.023v-8.7c0-.337.011-.693.032-1.064l-2.146,1.8a.775.775,0,0,1-.273.156.971.971,0,0,1-.273.039.805.805,0,0,1-.378-.087.676.676,0,0,1-.252-.2l-.8-1.1,4.552-3.871h2.094v13.035h2.683v1.91h-8.256Z"
          transform="translate(-627.937 -228.863)" fill="#e6e6e6"></path>
        <path id="Tracé_17470" data-name="Tracé 17470"
          d="M673.734,261.338a12.261,12.261,0,0,1-.417,3.389,6.947,6.947,0,0,1-1.158,2.38,4.654,4.654,0,0,1-1.743,1.4,5.144,5.144,0,0,1-2.172.459,5.073,5.073,0,0,1-2.163-.459,4.631,4.631,0,0,1-1.729-1.4,6.974,6.974,0,0,1-1.147-2.38,14.215,14.215,0,0,1,0-6.784,6.957,6.957,0,0,1,1.147-2.374,4.638,4.638,0,0,1,1.729-1.4,5.075,5.075,0,0,1,2.163-.461,5.146,5.146,0,0,1,2.172.461,4.661,4.661,0,0,1,1.743,1.4,6.931,6.931,0,0,1,1.158,2.374A12.249,12.249,0,0,1,673.734,261.338Zm-2.633,0a12.629,12.629,0,0,0-.236-2.683,5.485,5.485,0,0,0-.635-1.692,2.346,2.346,0,0,0-.913-.883,2.424,2.424,0,0,0-1.073-.252,2.383,2.383,0,0,0-1.06.252,2.31,2.31,0,0,0-.9.883,5.378,5.378,0,0,0-.626,1.692,15.652,15.652,0,0,0,0,5.366,5.378,5.378,0,0,0,.626,1.693,2.309,2.309,0,0,0,.9.883,2.383,2.383,0,0,0,1.06.252,2.424,2.424,0,0,0,1.073-.252,2.345,2.345,0,0,0,.913-.883,5.485,5.485,0,0,0,.635-1.693A12.628,12.628,0,0,0,671.1,261.338Z"
          transform="translate(-620.691 -228.945)" fill="#e6e6e6"></path>
        <path id="Tracé_17471" data-name="Tracé 17471"
          d="M679.853,261.338a12.263,12.263,0,0,1-.417,3.389,6.9,6.9,0,0,1-1.156,2.38,4.653,4.653,0,0,1-1.743,1.4,5.162,5.162,0,0,1-2.174.459,5.087,5.087,0,0,1-2.163-.459,4.641,4.641,0,0,1-1.727-1.4,6.933,6.933,0,0,1-1.147-2.38,14.141,14.141,0,0,1,0-6.784,6.916,6.916,0,0,1,1.147-2.374,4.648,4.648,0,0,1,1.727-1.4,5.089,5.089,0,0,1,2.163-.461,5.164,5.164,0,0,1,2.174.461,4.66,4.66,0,0,1,1.743,1.4,6.888,6.888,0,0,1,1.156,2.374A12.251,12.251,0,0,1,679.853,261.338Zm-2.63,0a12.607,12.607,0,0,0-.238-2.683,5.433,5.433,0,0,0-.633-1.692,2.336,2.336,0,0,0-.915-.883,2.425,2.425,0,0,0-1.073-.252,2.366,2.366,0,0,0-1.057.252,2.314,2.314,0,0,0-.9.883,5.377,5.377,0,0,0-.624,1.692,15.652,15.652,0,0,0,0,5.366,5.377,5.377,0,0,0,.624,1.693,2.313,2.313,0,0,0,.9.883,2.366,2.366,0,0,0,1.057.252,2.425,2.425,0,0,0,1.073-.252,2.335,2.335,0,0,0,.915-.883,5.434,5.434,0,0,0,.633-1.693A12.606,12.606,0,0,0,677.223,261.338Z"
          transform="translate(-612.777 -228.945)" fill="#e6e6e6"></path>
        <path id="Tracé_17472" data-name="Tracé 17472"
          d="M676.625,266.808h3.023v-8.7c0-.337.011-.693.032-1.064l-2.146,1.8a.774.774,0,0,1-.273.156.971.971,0,0,1-.273.039.805.805,0,0,1-.378-.087.675.675,0,0,1-.252-.2l-.805-1.1,4.55-3.871h2.1v13.035h2.683v1.91h-8.256Z"
          transform="translate(-604.192 -228.863)" fill="#e6e6e6"></path>
        <path id="Tracé_17473" data-name="Tracé 17473"
          d="M682.743,266.808h3.025v-8.7c0-.337.012-.693.032-1.064l-2.149,1.8a.755.755,0,0,1-.273.156.95.95,0,0,1-.273.039.789.789,0,0,1-.376-.087.685.685,0,0,1-.255-.2l-.8-1.1,4.55-3.871h2.1v13.035H691v1.91h-8.258Z"
          transform="translate(-596.277 -228.863)" fill="#e6e6e6"></path>
        <path id="Tracé_17474" data-name="Tracé 17474"
          d="M698.213,261.338a12.27,12.27,0,0,1-.417,3.389,6.9,6.9,0,0,1-1.156,2.38,4.659,4.659,0,0,1-1.745,1.4,5.144,5.144,0,0,1-2.172.459,5.088,5.088,0,0,1-2.163-.459,4.665,4.665,0,0,1-1.729-1.4,6.974,6.974,0,0,1-1.144-2.38,14.141,14.141,0,0,1,0-6.784,6.957,6.957,0,0,1,1.144-2.374,4.673,4.673,0,0,1,1.729-1.4,5.09,5.09,0,0,1,2.163-.461,5.146,5.146,0,0,1,2.172.461,4.666,4.666,0,0,1,1.745,1.4,6.883,6.883,0,0,1,1.156,2.374A12.259,12.259,0,0,1,698.213,261.338Zm-2.63,0a12.612,12.612,0,0,0-.238-2.683,5.369,5.369,0,0,0-.635-1.692,2.317,2.317,0,0,0-.913-.883,2.425,2.425,0,0,0-1.073-.252,2.365,2.365,0,0,0-1.057.252,2.3,2.3,0,0,0-.9.883,5.386,5.386,0,0,0-.624,1.692,15.656,15.656,0,0,0,0,5.366,5.386,5.386,0,0,0,.624,1.693,2.3,2.3,0,0,0,.9.883,2.366,2.366,0,0,0,1.057.252,2.425,2.425,0,0,0,1.073-.252,2.316,2.316,0,0,0,.913-.883,5.369,5.369,0,0,0,.635-1.693A12.611,12.611,0,0,0,695.583,261.338Z"
          transform="translate(-589.033 -228.945)" fill="#e6e6e6"></path>
        <path id="Tracé_17475" data-name="Tracé 17475"
          d="M694.984,266.808h3.025v-8.7c0-.337.009-.693.03-1.064l-2.147,1.8a.752.752,0,0,1-.273.156.95.95,0,0,1-.273.039.805.805,0,0,1-.378-.087.675.675,0,0,1-.252-.2l-.8-1.1,4.552-3.871h2.094v13.035h2.683v1.91h-8.256Z"
          transform="translate(-580.449 -228.863)" fill="#e6e6e6"></path>
        <path id="Tracé_17476" data-name="Tracé 17476"
          d="M701.1,266.808h3.025v-8.7c0-.337.012-.693.03-1.064l-2.146,1.8a.754.754,0,0,1-.273.156.948.948,0,0,1-.273.039.79.79,0,0,1-.376-.087.683.683,0,0,1-.254-.2l-.8-1.1,4.55-3.871h2.1v13.035h2.681v1.91H701.1Z"
          transform="translate(-572.533 -228.863)" fill="#e6e6e6"></path>
        <path id="Tracé_17477" data-name="Tracé 17477"
          d="M646.025,277.607h3.025v-8.7c0-.337.009-.693.03-1.064l-2.147,1.8a.754.754,0,0,1-.273.156.95.95,0,0,1-.273.041.835.835,0,0,1-.378-.087.724.724,0,0,1-.252-.2l-.8-1.105,4.552-3.869H651.6v13.033h2.683v1.91h-8.256Z"
          transform="translate(-643.766 -214.895)" fill="#e6e6e6"></path>
        <path id="Tracé_17478" data-name="Tracé 17478"
          d="M652.144,277.607h3.025v-8.7c0-.337.012-.693.03-1.064l-2.146,1.8a.755.755,0,0,1-.273.156.949.949,0,0,1-.273.041.819.819,0,0,1-.376-.087.736.736,0,0,1-.255-.2l-.8-1.105,4.55-3.869h2.1v13.033H660.4v1.91h-8.256Z"
          transform="translate(-635.85 -214.895)" fill="#e6e6e6"></path>
        <path id="Tracé_17479" data-name="Tracé 17479"
          d="M667.614,272.136a12.26,12.26,0,0,1-.417,3.389,6.942,6.942,0,0,1-1.158,2.38,4.654,4.654,0,0,1-1.743,1.4,5.161,5.161,0,0,1-2.172.461,5.075,5.075,0,0,1-2.163-.461,4.631,4.631,0,0,1-1.729-1.4,6.935,6.935,0,0,1-1.147-2.38,14.217,14.217,0,0,1,0-6.784,6.939,6.939,0,0,1,1.147-2.373,4.66,4.66,0,0,1,1.729-1.4,5.108,5.108,0,0,1,2.163-.459,5.2,5.2,0,0,1,2.172.459,4.683,4.683,0,0,1,1.743,1.4,6.947,6.947,0,0,1,1.158,2.373A12.261,12.261,0,0,1,667.614,272.136Zm-2.633,0a12.6,12.6,0,0,0-.236-2.681,5.474,5.474,0,0,0-.635-1.695,2.351,2.351,0,0,0-.915-.883,2.416,2.416,0,0,0-1.071-.252,2.375,2.375,0,0,0-1.06.252,2.31,2.31,0,0,0-.9.883,5.376,5.376,0,0,0-.626,1.695,15.656,15.656,0,0,0,0,5.364,5.362,5.362,0,0,0,.626,1.692,2.279,2.279,0,0,0,.9.883,2.344,2.344,0,0,0,1.06.252,2.385,2.385,0,0,0,1.071-.252,2.318,2.318,0,0,0,.915-.883,5.46,5.46,0,0,0,.635-1.692A12.624,12.624,0,0,0,664.981,272.136Z"
          transform="translate(-628.605 -214.976)" fill="#e6e6e6"></path>
        <path id="Tracé_17480" data-name="Tracé 17480"
          d="M664.385,277.607h3.023v-8.7c0-.337.011-.693.032-1.064l-2.147,1.8a.774.774,0,0,1-.273.156.976.976,0,0,1-.273.041.835.835,0,0,1-.378-.087.722.722,0,0,1-.252-.2l-.8-1.105,4.552-3.869h2.094v13.033h2.683v1.91h-8.256Z"
          transform="translate(-620.022 -214.895)" fill="#e6e6e6"></path>
        <path id="Tracé_17481" data-name="Tracé 17481"
          d="M670.505,277.607h3.023v-8.7c0-.337.011-.693.032-1.064l-2.146,1.8a.775.775,0,0,1-.273.156.976.976,0,0,1-.275.041.825.825,0,0,1-.376-.087.722.722,0,0,1-.252-.2l-.8-1.105,4.55-3.869h2.1v13.033h2.683v1.91h-8.256Z"
          transform="translate(-612.107 -214.895)" fill="#e6e6e6"></path>
        <path id="Tracé_17482" data-name="Tracé 17482"
          d="M676.625,277.607h3.023v-8.7c0-.337.011-.693.032-1.064l-2.146,1.8a.774.774,0,0,1-.273.156.974.974,0,0,1-.273.041.834.834,0,0,1-.378-.087.724.724,0,0,1-.252-.2l-.805-1.105,4.55-3.869h2.1v13.033h2.683v1.91h-8.256Z"
          transform="translate(-604.192 -214.895)" fill="#e6e6e6"></path>
        <path id="Tracé_17483" data-name="Tracé 17483"
          d="M692.093,272.136a12.265,12.265,0,0,1-.417,3.389,6.982,6.982,0,0,1-1.156,2.38,4.66,4.66,0,0,1-1.745,1.4,5.146,5.146,0,0,1-2.172.461,5.09,5.09,0,0,1-2.163-.461,4.668,4.668,0,0,1-1.729-1.4,6.934,6.934,0,0,1-1.144-2.38,14.141,14.141,0,0,1,0-6.784,6.938,6.938,0,0,1,1.144-2.373,4.7,4.7,0,0,1,1.729-1.4,5.124,5.124,0,0,1,2.163-.459,5.18,5.18,0,0,1,2.172.459,4.689,4.689,0,0,1,1.745,1.4,6.987,6.987,0,0,1,1.156,2.373A12.265,12.265,0,0,1,692.093,272.136Zm-2.631,0a12.583,12.583,0,0,0-.238-2.681,5.355,5.355,0,0,0-.635-1.695,2.333,2.333,0,0,0-.913-.883,2.424,2.424,0,0,0-1.073-.252,2.365,2.365,0,0,0-1.057.252,2.314,2.314,0,0,0-.9.883,5.369,5.369,0,0,0-.624,1.695,15.639,15.639,0,0,0,0,5.364,5.355,5.355,0,0,0,.624,1.692,2.282,2.282,0,0,0,.9.883,2.335,2.335,0,0,0,1.057.252,2.393,2.393,0,0,0,1.073-.252,2.3,2.3,0,0,0,.913-.883,5.341,5.341,0,0,0,.635-1.692A12.607,12.607,0,0,0,689.462,272.136Z"
          transform="translate(-596.947 -214.976)" fill="#e6e6e6"></path>
        <path id="Tracé_17484" data-name="Tracé 17484"
          d="M698.213,272.136a12.269,12.269,0,0,1-.417,3.389,6.9,6.9,0,0,1-1.156,2.38,4.66,4.66,0,0,1-1.745,1.4,5.146,5.146,0,0,1-2.172.461,5.09,5.09,0,0,1-2.163-.461,4.666,4.666,0,0,1-1.729-1.4,6.974,6.974,0,0,1-1.144-2.38,14.141,14.141,0,0,1,0-6.784,6.978,6.978,0,0,1,1.144-2.373,4.7,4.7,0,0,1,1.729-1.4,5.124,5.124,0,0,1,2.163-.459,5.18,5.18,0,0,1,2.172.459,4.689,4.689,0,0,1,1.745,1.4,6.9,6.9,0,0,1,1.156,2.373A12.27,12.27,0,0,1,698.213,272.136Zm-2.63,0a12.589,12.589,0,0,0-.238-2.681,5.361,5.361,0,0,0-.635-1.695,2.332,2.332,0,0,0-.913-.883,2.425,2.425,0,0,0-1.073-.252,2.365,2.365,0,0,0-1.057.252,2.313,2.313,0,0,0-.9.883,5.378,5.378,0,0,0-.624,1.695,15.643,15.643,0,0,0,0,5.364,5.364,5.364,0,0,0,.624,1.692,2.281,2.281,0,0,0,.9.883,2.335,2.335,0,0,0,1.057.252,2.394,2.394,0,0,0,1.073-.252,2.3,2.3,0,0,0,.913-.883,5.347,5.347,0,0,0,.635-1.692A12.613,12.613,0,0,0,695.583,272.136Z"
          transform="translate(-589.033 -214.976)" fill="#e6e6e6"></path>
        <path id="Tracé_17485" data-name="Tracé 17485"
          d="M704.333,272.136a12.258,12.258,0,0,1-.417,3.389,6.942,6.942,0,0,1-1.158,2.38,4.636,4.636,0,0,1-1.743,1.4,5.146,5.146,0,0,1-2.172.461,5.09,5.09,0,0,1-2.162-.461,4.631,4.631,0,0,1-1.729-1.4,6.935,6.935,0,0,1-1.144-2.38,14.141,14.141,0,0,1,0-6.784,6.939,6.939,0,0,1,1.144-2.373,4.66,4.66,0,0,1,1.729-1.4,5.124,5.124,0,0,1,2.162-.459,5.18,5.18,0,0,1,2.172.459,4.665,4.665,0,0,1,1.743,1.4,6.947,6.947,0,0,1,1.158,2.373A12.258,12.258,0,0,1,704.333,272.136Zm-2.633,0a12.61,12.61,0,0,0-.236-2.681,5.417,5.417,0,0,0-.635-1.695,2.347,2.347,0,0,0-.913-.883,2.424,2.424,0,0,0-1.073-.252,2.382,2.382,0,0,0-1.06.252,2.326,2.326,0,0,0-.9.883,5.431,5.431,0,0,0-.626,1.695,15.639,15.639,0,0,0,0,5.364,5.417,5.417,0,0,0,.626,1.692,2.294,2.294,0,0,0,.9.883,2.352,2.352,0,0,0,1.06.252,2.393,2.393,0,0,0,1.073-.252,2.314,2.314,0,0,0,.913-.883,5.4,5.4,0,0,0,.635-1.692A12.634,12.634,0,0,0,701.7,272.136Z"
          transform="translate(-581.118 -214.976)" fill="#e6e6e6"></path>
        <path id="Tracé_17486" data-name="Tracé 17486"
          d="M701.1,277.607h3.025v-8.7c0-.337.012-.693.03-1.064l-2.146,1.8a.754.754,0,0,1-.273.156.949.949,0,0,1-.273.041.819.819,0,0,1-.376-.087.732.732,0,0,1-.254-.2l-.8-1.105,4.55-3.869h2.1v13.033h2.681v1.91H701.1Z"
          transform="translate(-572.533 -214.895)" fill="#e6e6e6"></path>
        <path id="Tracé_17487" data-name="Tracé 17487"
          d="M655.374,292.2a12.286,12.286,0,0,1-.417,3.389,6.953,6.953,0,0,1-1.158,2.378,4.664,4.664,0,0,1-1.743,1.4,5.18,5.18,0,0,1-2.172.459,5.124,5.124,0,0,1-2.163-.459,4.66,4.66,0,0,1-1.729-1.4,6.939,6.939,0,0,1-1.144-2.378,14.147,14.147,0,0,1,0-6.786,6.935,6.935,0,0,1,1.144-2.374,4.66,4.66,0,0,1,1.729-1.4,5.124,5.124,0,0,1,2.163-.459,5.18,5.18,0,0,1,2.172.459,4.664,4.664,0,0,1,1.743,1.4,6.95,6.95,0,0,1,1.158,2.374A12.269,12.269,0,0,1,655.374,292.2Zm-2.633,0a12.6,12.6,0,0,0-.236-2.683,5.437,5.437,0,0,0-.635-1.695,2.325,2.325,0,0,0-.913-.881,2.4,2.4,0,0,0-1.073-.255,2.355,2.355,0,0,0-1.06.255,2.3,2.3,0,0,0-.9.881,5.45,5.45,0,0,0-.626,1.695,15.639,15.639,0,0,0,0,5.364,5.39,5.39,0,0,0,.626,1.693,2.292,2.292,0,0,0,.9.883,2.351,2.351,0,0,0,1.06.252,2.394,2.394,0,0,0,1.073-.252,2.315,2.315,0,0,0,.913-.883,5.377,5.377,0,0,0,.635-1.693A12.611,12.611,0,0,0,652.741,292.2Z"
          transform="translate(-644.435 -189.025)" fill="#e6e6e6"></path>
        <path id="Tracé_17488" data-name="Tracé 17488"
          d="M652.144,297.673h3.025v-8.7c0-.337.012-.693.03-1.062l-2.146,1.793a.754.754,0,0,1-.273.156.948.948,0,0,1-.273.041.819.819,0,0,1-.376-.087.736.736,0,0,1-.255-.2l-.8-1.105,4.55-3.869h2.1v13.033H660.4v1.91h-8.256Z"
          transform="translate(-635.85 -188.944)" fill="#e6e6e6"></path>
        <path id="Tracé_17489" data-name="Tracé 17489"
          d="M658.265,297.673h3.023v-8.7c0-.337.011-.693.032-1.062l-2.146,1.793a.774.774,0,0,1-.273.156.973.973,0,0,1-.273.041.835.835,0,0,1-.378-.087.725.725,0,0,1-.252-.2l-.8-1.105,4.552-3.869h2.094v13.033h2.683v1.91h-8.256Z"
          transform="translate(-627.937 -188.944)" fill="#e6e6e6"></path>
        <path id="Tracé_17490" data-name="Tracé 17490"
          d="M673.734,292.2a12.284,12.284,0,0,1-.417,3.389,6.956,6.956,0,0,1-1.158,2.378,4.684,4.684,0,0,1-1.743,1.4,5.18,5.18,0,0,1-2.172.459,5.108,5.108,0,0,1-2.163-.459,4.661,4.661,0,0,1-1.729-1.4,6.982,6.982,0,0,1-1.147-2.378,14.224,14.224,0,0,1,0-6.786,6.979,6.979,0,0,1,1.147-2.374,4.661,4.661,0,0,1,1.729-1.4,5.108,5.108,0,0,1,2.163-.459,5.18,5.18,0,0,1,2.172.459,4.684,4.684,0,0,1,1.743,1.4,6.952,6.952,0,0,1,1.158,2.374A12.266,12.266,0,0,1,673.734,292.2Zm-2.633,0a12.614,12.614,0,0,0-.236-2.683,5.5,5.5,0,0,0-.635-1.695,2.339,2.339,0,0,0-.913-.881,2.4,2.4,0,0,0-1.073-.255,2.356,2.356,0,0,0-1.06.255,2.3,2.3,0,0,0-.9.881,5.394,5.394,0,0,0-.626,1.695,15.639,15.639,0,0,0,0,5.364,5.335,5.335,0,0,0,.626,1.693,2.293,2.293,0,0,0,.9.883,2.352,2.352,0,0,0,1.06.252,2.392,2.392,0,0,0,1.073-.252,2.328,2.328,0,0,0,.913-.883,5.44,5.44,0,0,0,.635-1.693A12.621,12.621,0,0,0,671.1,292.2Z"
          transform="translate(-620.691 -189.025)" fill="#e6e6e6"></path>
        <path id="Tracé_17491" data-name="Tracé 17491"
          d="M679.853,292.2a12.286,12.286,0,0,1-.417,3.389,6.913,6.913,0,0,1-1.156,2.378,4.683,4.683,0,0,1-1.743,1.4,5.2,5.2,0,0,1-2.174.459,5.123,5.123,0,0,1-2.163-.459,4.671,4.671,0,0,1-1.727-1.4,6.941,6.941,0,0,1-1.147-2.378,14.151,14.151,0,0,1,0-6.786,6.938,6.938,0,0,1,1.147-2.374,4.671,4.671,0,0,1,1.727-1.4,5.123,5.123,0,0,1,2.163-.459,5.2,5.2,0,0,1,2.174.459,4.683,4.683,0,0,1,1.743,1.4,6.91,6.91,0,0,1,1.156,2.374A12.269,12.269,0,0,1,679.853,292.2Zm-2.63,0a12.592,12.592,0,0,0-.238-2.683,5.45,5.45,0,0,0-.633-1.695,2.329,2.329,0,0,0-.915-.881,2.4,2.4,0,0,0-1.073-.255,2.339,2.339,0,0,0-1.057.255,2.307,2.307,0,0,0-.9.881,5.393,5.393,0,0,0-.624,1.695,15.639,15.639,0,0,0,0,5.364,5.334,5.334,0,0,0,.624,1.693,2.3,2.3,0,0,0,.9.883,2.335,2.335,0,0,0,1.057.252,2.394,2.394,0,0,0,1.073-.252,2.319,2.319,0,0,0,.915-.883,5.39,5.39,0,0,0,.633-1.693A12.6,12.6,0,0,0,677.223,292.2Z"
          transform="translate(-612.777 -189.025)" fill="#e6e6e6"></path>
        <path id="Tracé_17492" data-name="Tracé 17492"
          d="M676.625,297.673h3.023v-8.7c0-.337.011-.693.032-1.062l-2.146,1.793a.773.773,0,0,1-.273.156.973.973,0,0,1-.273.041.834.834,0,0,1-.378-.087.724.724,0,0,1-.252-.2l-.805-1.105,4.55-3.869h2.1v13.033h2.683v1.91h-8.256Z"
          transform="translate(-604.192 -188.944)" fill="#e6e6e6"></path>
        <path id="Tracé_17493" data-name="Tracé 17493"
          d="M692.093,292.2a12.288,12.288,0,0,1-.417,3.389,6.992,6.992,0,0,1-1.156,2.378,4.689,4.689,0,0,1-1.745,1.4,5.18,5.18,0,0,1-2.172.459,5.124,5.124,0,0,1-2.163-.459,4.7,4.7,0,0,1-1.729-1.4,6.943,6.943,0,0,1-1.144-2.378,14.151,14.151,0,0,1,0-6.786,6.939,6.939,0,0,1,1.144-2.374,4.7,4.7,0,0,1,1.729-1.4,5.124,5.124,0,0,1,2.163-.459,5.18,5.18,0,0,1,2.172.459,4.689,4.689,0,0,1,1.745,1.4,6.988,6.988,0,0,1,1.156,2.374A12.271,12.271,0,0,1,692.093,292.2Zm-2.631,0a12.592,12.592,0,0,0-.238-2.683,5.38,5.38,0,0,0-.635-1.695,2.311,2.311,0,0,0-.913-.881,2.4,2.4,0,0,0-1.073-.255,2.339,2.339,0,0,0-1.057.255,2.292,2.292,0,0,0-.9.881,5.393,5.393,0,0,0-.624,1.695,15.639,15.639,0,0,0,0,5.364,5.335,5.335,0,0,0,.624,1.693,2.282,2.282,0,0,0,.9.883,2.334,2.334,0,0,0,1.057.252,2.393,2.393,0,0,0,1.073-.252,2.3,2.3,0,0,0,.913-.883,5.321,5.321,0,0,0,.635-1.693A12.6,12.6,0,0,0,689.462,292.2Z"
          transform="translate(-596.947 -189.025)" fill="#e6e6e6"></path>
        <path id="Tracé_17494" data-name="Tracé 17494"
          d="M698.213,292.2a12.293,12.293,0,0,1-.417,3.389,6.908,6.908,0,0,1-1.156,2.378,4.689,4.689,0,0,1-1.745,1.4,5.18,5.18,0,0,1-2.172.459,5.123,5.123,0,0,1-2.163-.459,4.7,4.7,0,0,1-1.729-1.4,6.983,6.983,0,0,1-1.144-2.378,14.151,14.151,0,0,1,0-6.786,6.979,6.979,0,0,1,1.144-2.374,4.7,4.7,0,0,1,1.729-1.4,5.124,5.124,0,0,1,2.163-.459,5.18,5.18,0,0,1,2.172.459,4.689,4.689,0,0,1,1.745,1.4,6.9,6.9,0,0,1,1.156,2.374A12.276,12.276,0,0,1,698.213,292.2Zm-2.63,0a12.6,12.6,0,0,0-.238-2.683,5.385,5.385,0,0,0-.635-1.695,2.31,2.31,0,0,0-.913-.881,2.4,2.4,0,0,0-1.073-.255,2.339,2.339,0,0,0-1.057.255,2.291,2.291,0,0,0-.9.881,5.4,5.4,0,0,0-.624,1.695,15.643,15.643,0,0,0,0,5.364,5.343,5.343,0,0,0,.624,1.693,2.281,2.281,0,0,0,.9.883,2.334,2.334,0,0,0,1.057.252,2.393,2.393,0,0,0,1.073-.252,2.3,2.3,0,0,0,.913-.883,5.326,5.326,0,0,0,.635-1.693A12.6,12.6,0,0,0,695.583,292.2Z"
          transform="translate(-589.033 -189.025)" fill="#e6e6e6"></path>
        <path id="Tracé_17495" data-name="Tracé 17495"
          d="M704.333,292.2a12.281,12.281,0,0,1-.417,3.389,6.951,6.951,0,0,1-1.158,2.378,4.665,4.665,0,0,1-1.743,1.4,5.18,5.18,0,0,1-2.172.459,5.124,5.124,0,0,1-2.162-.459,4.66,4.66,0,0,1-1.729-1.4,6.944,6.944,0,0,1-1.144-2.378,14.151,14.151,0,0,1,0-6.786,6.94,6.94,0,0,1,1.144-2.374,4.66,4.66,0,0,1,1.729-1.4,5.124,5.124,0,0,1,2.162-.459,5.18,5.18,0,0,1,2.172.459,4.665,4.665,0,0,1,1.743,1.4,6.948,6.948,0,0,1,1.158,2.374A12.264,12.264,0,0,1,704.333,292.2Zm-2.633,0a12.618,12.618,0,0,0-.236-2.683,5.443,5.443,0,0,0-.635-1.695,2.324,2.324,0,0,0-.913-.881,2.4,2.4,0,0,0-1.073-.255,2.356,2.356,0,0,0-1.06.255,2.3,2.3,0,0,0-.9.881,5.456,5.456,0,0,0-.626,1.695,15.639,15.639,0,0,0,0,5.364,5.4,5.4,0,0,0,.626,1.693,2.293,2.293,0,0,0,.9.883,2.351,2.351,0,0,0,1.06.252,2.393,2.393,0,0,0,1.073-.252,2.314,2.314,0,0,0,.913-.883,5.383,5.383,0,0,0,.635-1.693A12.625,12.625,0,0,0,701.7,292.2Z"
          transform="translate(-581.118 -189.025)" fill="#e6e6e6"></path>
        <path id="Tracé_17496" data-name="Tracé 17496"
          d="M701.1,297.673h3.025v-8.7c0-.337.012-.693.03-1.062l-2.146,1.793a.753.753,0,0,1-.273.156.948.948,0,0,1-.273.041.819.819,0,0,1-.376-.087.733.733,0,0,1-.254-.2l-.8-1.105,4.55-3.869h2.1v13.033h2.681v1.91H701.1Z"
          transform="translate(-572.533 -188.944)" fill="#e6e6e6"></path>
        <path id="Tracé_17497" data-name="Tracé 17497"
          d="M655.374,303a12.263,12.263,0,0,1-.417,3.389,6.944,6.944,0,0,1-1.158,2.38,4.635,4.635,0,0,1-1.743,1.4,5.147,5.147,0,0,1-2.172.461,5.091,5.091,0,0,1-2.163-.461,4.631,4.631,0,0,1-1.729-1.4,6.93,6.93,0,0,1-1.144-2.38,14.137,14.137,0,0,1,0-6.784,6.934,6.934,0,0,1,1.144-2.374,4.66,4.66,0,0,1,1.729-1.4,5.124,5.124,0,0,1,2.163-.459,5.18,5.18,0,0,1,2.172.459,4.664,4.664,0,0,1,1.743,1.4,6.949,6.949,0,0,1,1.158,2.374A12.251,12.251,0,0,1,655.374,303Zm-2.633,0a12.618,12.618,0,0,0-.236-2.683,5.419,5.419,0,0,0-.635-1.692,2.332,2.332,0,0,0-.913-.883,2.426,2.426,0,0,0-1.073-.252,2.383,2.383,0,0,0-1.06.252,2.309,2.309,0,0,0-.9.883,5.432,5.432,0,0,0-.626,1.692,15.652,15.652,0,0,0,0,5.366,5.433,5.433,0,0,0,.626,1.692,2.293,2.293,0,0,0,.9.883,2.352,2.352,0,0,0,1.06.252,2.394,2.394,0,0,0,1.073-.252,2.315,2.315,0,0,0,.913-.883,5.42,5.42,0,0,0,.635-1.692A12.62,12.62,0,0,0,652.741,303Z"
          transform="translate(-644.435 -175.058)" fill="#e6e6e6"></path>
        <path id="Tracé_17498" data-name="Tracé 17498"
          d="M661.494,303a12.263,12.263,0,0,1-.417,3.389,6.984,6.984,0,0,1-1.156,2.38,4.661,4.661,0,0,1-1.745,1.4,5.146,5.146,0,0,1-2.172.461,5.091,5.091,0,0,1-2.163-.461,4.667,4.667,0,0,1-1.729-1.4,6.931,6.931,0,0,1-1.144-2.38,14.143,14.143,0,0,1,0-6.784,6.935,6.935,0,0,1,1.144-2.374,4.7,4.7,0,0,1,1.729-1.4,5.124,5.124,0,0,1,2.163-.459,5.179,5.179,0,0,1,2.172.459,4.69,4.69,0,0,1,1.745,1.4,6.989,6.989,0,0,1,1.156,2.374A12.251,12.251,0,0,1,661.494,303Zm-2.63,0a12.592,12.592,0,0,0-.239-2.683,5.421,5.421,0,0,0-.635-1.692,2.331,2.331,0,0,0-.913-.883,2.426,2.426,0,0,0-1.073-.252,2.366,2.366,0,0,0-1.057.252,2.3,2.3,0,0,0-.9.883,5.374,5.374,0,0,0-.624,1.692,15.507,15.507,0,0,0,0,5.366,5.375,5.375,0,0,0,.624,1.692,2.282,2.282,0,0,0,.9.883,2.335,2.335,0,0,0,1.057.252,2.394,2.394,0,0,0,1.073-.252,2.315,2.315,0,0,0,.913-.883,5.422,5.422,0,0,0,.635-1.692A12.594,12.594,0,0,0,658.864,303Z"
          transform="translate(-636.52 -175.058)" fill="#e6e6e6"></path>
        <path id="Tracé_17499" data-name="Tracé 17499"
          d="M658.265,308.473h3.023v-8.7c0-.337.011-.693.032-1.064l-2.146,1.8a.774.774,0,0,1-.273.156.974.974,0,0,1-.273.041.808.808,0,0,1-.378-.089.7.7,0,0,1-.252-.2l-.8-1.105,4.552-3.869h2.094v13.033h2.683v1.91h-8.256Z"
          transform="translate(-627.937 -174.976)" fill="#e6e6e6"></path>
        <path id="Tracé_17500" data-name="Tracé 17500"
          d="M673.734,303a12.26,12.26,0,0,1-.417,3.389,6.946,6.946,0,0,1-1.158,2.38,4.655,4.655,0,0,1-1.743,1.4,5.147,5.147,0,0,1-2.172.461,5.076,5.076,0,0,1-2.163-.461,4.631,4.631,0,0,1-1.729-1.4,6.973,6.973,0,0,1-1.147-2.38,14.215,14.215,0,0,1,0-6.784,6.977,6.977,0,0,1,1.147-2.374,4.66,4.66,0,0,1,1.729-1.4,5.108,5.108,0,0,1,2.163-.459,5.18,5.18,0,0,1,2.172.459,4.684,4.684,0,0,1,1.743,1.4,6.951,6.951,0,0,1,1.158,2.374A12.249,12.249,0,0,1,673.734,303Zm-2.633,0a12.628,12.628,0,0,0-.236-2.683,5.483,5.483,0,0,0-.635-1.692,2.345,2.345,0,0,0-.913-.883,2.424,2.424,0,0,0-1.073-.252,2.384,2.384,0,0,0-1.06.252,2.309,2.309,0,0,0-.9.883,5.376,5.376,0,0,0-.626,1.692,15.652,15.652,0,0,0,0,5.366,5.377,5.377,0,0,0,.626,1.692,2.293,2.293,0,0,0,.9.883,2.352,2.352,0,0,0,1.06.252,2.393,2.393,0,0,0,1.073-.252,2.328,2.328,0,0,0,.913-.883,5.484,5.484,0,0,0,.635-1.692A12.63,12.63,0,0,0,671.1,303Z"
          transform="translate(-620.691 -175.058)" fill="#e6e6e6"></path>
        <path id="Tracé_17501" data-name="Tracé 17501"
          d="M679.853,303a12.263,12.263,0,0,1-.417,3.389,6.9,6.9,0,0,1-1.156,2.38,4.653,4.653,0,0,1-1.743,1.4,5.165,5.165,0,0,1-2.174.461,5.09,5.09,0,0,1-2.163-.461,4.642,4.642,0,0,1-1.727-1.4,6.932,6.932,0,0,1-1.147-2.38,14.141,14.141,0,0,1,0-6.784,6.936,6.936,0,0,1,1.147-2.374,4.671,4.671,0,0,1,1.727-1.4,5.123,5.123,0,0,1,2.163-.459,5.2,5.2,0,0,1,2.174.459,4.682,4.682,0,0,1,1.743,1.4,6.908,6.908,0,0,1,1.156,2.374A12.251,12.251,0,0,1,679.853,303Zm-2.63,0a12.605,12.605,0,0,0-.238-2.683,5.432,5.432,0,0,0-.633-1.692,2.335,2.335,0,0,0-.915-.883,2.426,2.426,0,0,0-1.073-.252,2.367,2.367,0,0,0-1.057.252,2.314,2.314,0,0,0-.9.883,5.376,5.376,0,0,0-.624,1.692,15.652,15.652,0,0,0,0,5.366,5.376,5.376,0,0,0,.624,1.692,2.3,2.3,0,0,0,.9.883,2.336,2.336,0,0,0,1.057.252,2.394,2.394,0,0,0,1.073-.252,2.319,2.319,0,0,0,.915-.883,5.433,5.433,0,0,0,.633-1.692A12.607,12.607,0,0,0,677.223,303Z"
          transform="translate(-612.777 -175.058)" fill="#e6e6e6"></path>
        <path id="Tracé_17502" data-name="Tracé 17502"
          d="M676.625,308.473h3.023v-8.7c0-.337.011-.693.032-1.064l-2.146,1.8a.773.773,0,0,1-.273.156.974.974,0,0,1-.273.041.808.808,0,0,1-.378-.089.7.7,0,0,1-.252-.2l-.805-1.105,4.55-3.869h2.1v13.033h2.683v1.91h-8.256Z"
          transform="translate(-604.192 -174.976)" fill="#e6e6e6"></path>
        <path id="Tracé_17503" data-name="Tracé 17503"
          d="M682.743,308.473h3.025v-8.7c0-.337.012-.693.032-1.064l-2.149,1.8a.754.754,0,0,1-.273.156.951.951,0,0,1-.273.041.792.792,0,0,1-.376-.089.707.707,0,0,1-.255-.2l-.8-1.105,4.55-3.869h2.1v13.033H691v1.91h-8.258Z"
          transform="translate(-596.277 -174.976)" fill="#e6e6e6"></path>
        <path id="Tracé_17504" data-name="Tracé 17504"
          d="M698.213,303a12.27,12.27,0,0,1-.417,3.389,6.9,6.9,0,0,1-1.156,2.38,4.66,4.66,0,0,1-1.745,1.4,5.147,5.147,0,0,1-2.172.461,5.091,5.091,0,0,1-2.163-.461,4.666,4.666,0,0,1-1.729-1.4,6.973,6.973,0,0,1-1.144-2.38,14.141,14.141,0,0,1,0-6.784,6.978,6.978,0,0,1,1.144-2.374,4.7,4.7,0,0,1,1.729-1.4,5.123,5.123,0,0,1,2.163-.459,5.18,5.18,0,0,1,2.172.459,4.689,4.689,0,0,1,1.745,1.4,6.9,6.9,0,0,1,1.156,2.374A12.258,12.258,0,0,1,698.213,303Zm-2.63,0a12.611,12.611,0,0,0-.238-2.683,5.368,5.368,0,0,0-.635-1.692,2.316,2.316,0,0,0-.913-.883,2.426,2.426,0,0,0-1.073-.252,2.366,2.366,0,0,0-1.057.252,2.3,2.3,0,0,0-.9.883,5.385,5.385,0,0,0-.624,1.692,15.656,15.656,0,0,0,0,5.366,5.385,5.385,0,0,0,.624,1.692,2.281,2.281,0,0,0,.9.883,2.335,2.335,0,0,0,1.057.252,2.394,2.394,0,0,0,1.073-.252,2.3,2.3,0,0,0,.913-.883,5.369,5.369,0,0,0,.635-1.692A12.612,12.612,0,0,0,695.583,303Z"
          transform="translate(-589.033 -175.058)" fill="#e6e6e6"></path>
        <path id="Tracé_17505" data-name="Tracé 17505"
          d="M694.984,308.473h3.025v-8.7c0-.337.009-.693.03-1.064l-2.147,1.8a.75.75,0,0,1-.273.156.951.951,0,0,1-.273.041.808.808,0,0,1-.378-.089.7.7,0,0,1-.252-.2l-.8-1.105,4.552-3.869h2.094v13.033h2.683v1.91h-8.256Z"
          transform="translate(-580.449 -174.976)" fill="#e6e6e6"></path>
        <path id="Tracé_17506" data-name="Tracé 17506"
          d="M701.1,308.473h3.025v-8.7c0-.337.012-.693.03-1.064l-2.146,1.8a.753.753,0,0,1-.273.156.949.949,0,0,1-.273.041.793.793,0,0,1-.376-.089.7.7,0,0,1-.254-.2l-.8-1.105,4.55-3.869h2.1v13.033h2.681v1.91H701.1Z"
          transform="translate(-572.533 -174.976)" fill="#e6e6e6"></path>
        <path id="Tracé_17507" data-name="Tracé 17507"
          d="M646.025,319.275h3.025v-8.7c0-.337.009-.693.03-1.062l-2.147,1.793a.723.723,0,0,1-.273.156.952.952,0,0,1-.273.041.836.836,0,0,1-.378-.087.724.724,0,0,1-.252-.2l-.8-1.105,4.552-3.869H651.6v13.035h2.683v1.908h-8.256Z"
          transform="translate(-643.766 -161.009)" fill="#e6e6e6"></path>
        <path id="Tracé_17508" data-name="Tracé 17508"
          d="M652.144,319.275h3.025v-8.7c0-.337.012-.693.03-1.062l-2.146,1.793a.724.724,0,0,1-.273.156.951.951,0,0,1-.273.041.82.82,0,0,1-.376-.087.736.736,0,0,1-.255-.2l-.8-1.105,4.55-3.869h2.1v13.035H660.4v1.908h-8.256Z"
          transform="translate(-635.85 -161.009)" fill="#e6e6e6"></path>
        <path id="Tracé_17509" data-name="Tracé 17509"
          d="M667.614,313.8a12.283,12.283,0,0,1-.417,3.389,6.951,6.951,0,0,1-1.158,2.378,4.682,4.682,0,0,1-1.743,1.4,5.194,5.194,0,0,1-2.172.459,5.107,5.107,0,0,1-2.163-.459,4.66,4.66,0,0,1-1.729-1.4,6.943,6.943,0,0,1-1.147-2.378,14.226,14.226,0,0,1,0-6.786,6.938,6.938,0,0,1,1.147-2.374,4.659,4.659,0,0,1,1.729-1.4,5.107,5.107,0,0,1,2.163-.459,5.194,5.194,0,0,1,2.172.459,4.682,4.682,0,0,1,1.743,1.4,6.946,6.946,0,0,1,1.158,2.374A12.265,12.265,0,0,1,667.614,313.8Zm-2.633,0a12.608,12.608,0,0,0-.236-2.683,5.521,5.521,0,0,0-.635-1.695,2.327,2.327,0,0,0-.915-.881,2.388,2.388,0,0,0-1.071-.255,2.347,2.347,0,0,0-1.06.255,2.287,2.287,0,0,0-.9.881,5.422,5.422,0,0,0-.626,1.695,15.668,15.668,0,0,0,0,5.366,5.348,5.348,0,0,0,.626,1.69,2.279,2.279,0,0,0,.9.883,2.345,2.345,0,0,0,1.06.252,2.386,2.386,0,0,0,1.071-.252,2.319,2.319,0,0,0,.915-.883,5.445,5.445,0,0,0,.635-1.69A12.653,12.653,0,0,0,664.981,313.8Z"
          transform="translate(-628.605 -161.09)" fill="#e6e6e6"></path>
        <path id="Tracé_17510" data-name="Tracé 17510"
          d="M664.385,319.275h3.023v-8.7c0-.337.011-.693.032-1.062l-2.147,1.793a.741.741,0,0,1-.273.156.979.979,0,0,1-.273.041.835.835,0,0,1-.378-.087.722.722,0,0,1-.252-.2l-.8-1.105,4.552-3.869h2.094v13.035h2.683v1.908h-8.256Z"
          transform="translate(-620.022 -161.009)" fill="#e6e6e6"></path>
        <path id="Tracé_17511" data-name="Tracé 17511"
          d="M670.505,319.275h3.023v-8.7c0-.337.011-.693.032-1.062l-2.146,1.793a.742.742,0,0,1-.273.156.978.978,0,0,1-.275.041.826.826,0,0,1-.376-.087.722.722,0,0,1-.252-.2l-.8-1.105,4.55-3.869h2.1v13.035h2.683v1.908h-8.256Z"
          transform="translate(-612.107 -161.009)" fill="#e6e6e6"></path>
        <path id="Tracé_17512" data-name="Tracé 17512"
          d="M676.625,319.275h3.023v-8.7c0-.337.011-.693.032-1.062l-2.146,1.793a.741.741,0,0,1-.273.156.976.976,0,0,1-.273.041.835.835,0,0,1-.378-.087.724.724,0,0,1-.252-.2l-.805-1.105,4.55-3.869h2.1v13.035h2.683v1.908h-8.256Z"
          transform="translate(-604.192 -161.009)" fill="#e6e6e6"></path>
        <path id="Tracé_17513" data-name="Tracé 17513"
          d="M692.093,313.8a12.288,12.288,0,0,1-.417,3.389,6.992,6.992,0,0,1-1.156,2.378,4.688,4.688,0,0,1-1.745,1.4,5.179,5.179,0,0,1-2.172.459,5.123,5.123,0,0,1-2.163-.459,4.7,4.7,0,0,1-1.729-1.4,6.943,6.943,0,0,1-1.144-2.378,14.15,14.15,0,0,1,0-6.786,6.938,6.938,0,0,1,1.144-2.374,4.7,4.7,0,0,1,1.729-1.4,5.123,5.123,0,0,1,2.163-.459,5.178,5.178,0,0,1,2.172.459,4.687,4.687,0,0,1,1.745,1.4,6.987,6.987,0,0,1,1.156,2.374A12.27,12.27,0,0,1,692.093,313.8Zm-2.631,0a12.591,12.591,0,0,0-.238-2.683,5.4,5.4,0,0,0-.635-1.695,2.309,2.309,0,0,0-.913-.881,2.4,2.4,0,0,0-1.073-.255,2.338,2.338,0,0,0-1.057.255,2.291,2.291,0,0,0-.9.881,5.414,5.414,0,0,0-.624,1.695,15.652,15.652,0,0,0,0,5.366,5.341,5.341,0,0,0,.624,1.69,2.283,2.283,0,0,0,.9.883,2.335,2.335,0,0,0,1.057.252,2.394,2.394,0,0,0,1.073-.252,2.3,2.3,0,0,0,.913-.883,5.327,5.327,0,0,0,.635-1.69A12.636,12.636,0,0,0,689.462,313.8Z"
          transform="translate(-596.947 -161.09)" fill="#e6e6e6"></path>
        <path id="Tracé_17514" data-name="Tracé 17514"
          d="M698.213,313.8a12.293,12.293,0,0,1-.417,3.389,6.908,6.908,0,0,1-1.156,2.378,4.688,4.688,0,0,1-1.745,1.4,5.179,5.179,0,0,1-2.172.459,5.123,5.123,0,0,1-2.163-.459,4.7,4.7,0,0,1-1.729-1.4,6.983,6.983,0,0,1-1.144-2.378,14.15,14.15,0,0,1,0-6.786,6.978,6.978,0,0,1,1.144-2.374,4.694,4.694,0,0,1,1.729-1.4,5.122,5.122,0,0,1,2.163-.459,5.179,5.179,0,0,1,2.172.459,4.687,4.687,0,0,1,1.745,1.4,6.9,6.9,0,0,1,1.156,2.374A12.275,12.275,0,0,1,698.213,313.8Zm-2.63,0a12.6,12.6,0,0,0-.238-2.683,5.406,5.406,0,0,0-.635-1.695,2.308,2.308,0,0,0-.913-.881,2.4,2.4,0,0,0-1.073-.255,2.338,2.338,0,0,0-1.057.255,2.29,2.29,0,0,0-.9.881,5.423,5.423,0,0,0-.624,1.695,15.656,15.656,0,0,0,0,5.366,5.349,5.349,0,0,0,.624,1.69,2.282,2.282,0,0,0,.9.883,2.336,2.336,0,0,0,1.057.252,2.4,2.4,0,0,0,1.073-.252,2.3,2.3,0,0,0,.913-.883,5.333,5.333,0,0,0,.635-1.69A12.642,12.642,0,0,0,695.583,313.8Z"
          transform="translate(-589.033 -161.09)" fill="#e6e6e6"></path>
        <path id="Tracé_17515" data-name="Tracé 17515"
          d="M704.333,313.8a12.281,12.281,0,0,1-.417,3.389,6.951,6.951,0,0,1-1.158,2.378,4.664,4.664,0,0,1-1.743,1.4,5.179,5.179,0,0,1-2.172.459,5.123,5.123,0,0,1-2.162-.459,4.659,4.659,0,0,1-1.729-1.4,6.944,6.944,0,0,1-1.144-2.378,14.15,14.15,0,0,1,0-6.786,6.939,6.939,0,0,1,1.144-2.374,4.658,4.658,0,0,1,1.729-1.4,5.122,5.122,0,0,1,2.162-.459,5.179,5.179,0,0,1,2.172.459,4.663,4.663,0,0,1,1.743,1.4,6.947,6.947,0,0,1,1.158,2.374A12.263,12.263,0,0,1,704.333,313.8Zm-2.633,0a12.618,12.618,0,0,0-.236-2.683,5.464,5.464,0,0,0-.635-1.695,2.323,2.323,0,0,0-.913-.881,2.4,2.4,0,0,0-1.073-.255,2.355,2.355,0,0,0-1.06.255,2.3,2.3,0,0,0-.9.881,5.477,5.477,0,0,0-.626,1.695,15.652,15.652,0,0,0,0,5.366,5.4,5.4,0,0,0,.626,1.69,2.294,2.294,0,0,0,.9.883,2.353,2.353,0,0,0,1.06.252,2.394,2.394,0,0,0,1.073-.252,2.315,2.315,0,0,0,.913-.883,5.389,5.389,0,0,0,.635-1.69A12.663,12.663,0,0,0,701.7,313.8Z"
          transform="translate(-581.118 -161.09)" fill="#e6e6e6"></path>
        <path id="Tracé_17516" data-name="Tracé 17516"
          d="M701.1,319.275h3.025v-8.7c0-.337.012-.693.03-1.062l-2.146,1.793a.723.723,0,0,1-.273.156.951.951,0,0,1-.273.041.819.819,0,0,1-.376-.087.733.733,0,0,1-.254-.2l-.8-1.105,4.55-3.869h2.1v13.035h2.681v1.908H701.1Z"
          transform="translate(-572.533 -161.009)" fill="#e6e6e6"></path>
        <path id="Tracé_17517" data-name="Tracé 17517"
          d="M655.374,282.936a12.263,12.263,0,0,1-.417,3.39,6.946,6.946,0,0,1-1.158,2.38,4.635,4.635,0,0,1-1.743,1.4,5.145,5.145,0,0,1-2.172.459,5.089,5.089,0,0,1-2.163-.459,4.631,4.631,0,0,1-1.729-1.4,6.931,6.931,0,0,1-1.144-2.38,14.137,14.137,0,0,1,0-6.784,6.935,6.935,0,0,1,1.144-2.374,4.66,4.66,0,0,1,1.729-1.4,5.09,5.09,0,0,1,2.163-.459,5.146,5.146,0,0,1,2.172.459,4.664,4.664,0,0,1,1.743,1.4,6.95,6.95,0,0,1,1.158,2.374A12.251,12.251,0,0,1,655.374,282.936Zm-2.633,0a12.619,12.619,0,0,0-.236-2.683,5.42,5.42,0,0,0-.635-1.692,2.332,2.332,0,0,0-.913-.883,2.426,2.426,0,0,0-1.073-.252,2.383,2.383,0,0,0-1.06.252,2.309,2.309,0,0,0-.9.883,5.433,5.433,0,0,0-.626,1.692,15.652,15.652,0,0,0,0,5.366,5.433,5.433,0,0,0,.626,1.692,2.308,2.308,0,0,0,.9.883,2.382,2.382,0,0,0,1.06.252,2.425,2.425,0,0,0,1.073-.252,2.331,2.331,0,0,0,.913-.883,5.42,5.42,0,0,0,.635-1.692A12.618,12.618,0,0,0,652.741,282.936Z"
          transform="translate(-644.435 -201.009)" fill="#e6e6e6"></path>
        <path id="Tracé_17518" data-name="Tracé 17518"
          d="M661.494,282.936a12.263,12.263,0,0,1-.417,3.39,6.986,6.986,0,0,1-1.156,2.38,4.662,4.662,0,0,1-1.745,1.4,5.144,5.144,0,0,1-2.172.459,5.089,5.089,0,0,1-2.163-.459,4.667,4.667,0,0,1-1.729-1.4,6.933,6.933,0,0,1-1.144-2.38,14.143,14.143,0,0,1,0-6.784,6.936,6.936,0,0,1,1.144-2.374,4.7,4.7,0,0,1,1.729-1.4,5.09,5.09,0,0,1,2.163-.459,5.145,5.145,0,0,1,2.172.459,4.69,4.69,0,0,1,1.745,1.4,6.99,6.99,0,0,1,1.156,2.374A12.251,12.251,0,0,1,661.494,282.936Zm-2.63,0a12.593,12.593,0,0,0-.239-2.683,5.422,5.422,0,0,0-.635-1.692,2.331,2.331,0,0,0-.913-.883,2.425,2.425,0,0,0-1.073-.252,2.365,2.365,0,0,0-1.057.252,2.3,2.3,0,0,0-.9.883,5.375,5.375,0,0,0-.624,1.692,15.507,15.507,0,0,0,0,5.366,5.375,5.375,0,0,0,.624,1.692,2.3,2.3,0,0,0,.9.883,2.364,2.364,0,0,0,1.057.252,2.424,2.424,0,0,0,1.073-.252,2.331,2.331,0,0,0,.913-.883,5.422,5.422,0,0,0,.635-1.692A12.593,12.593,0,0,0,658.864,282.936Z"
          transform="translate(-636.52 -201.009)" fill="#e6e6e6"></path>
        <path id="Tracé_17519" data-name="Tracé 17519"
          d="M658.265,288.407h3.023v-8.7c0-.337.011-.693.032-1.064l-2.146,1.8a.774.774,0,0,1-.273.156.971.971,0,0,1-.273.039.806.806,0,0,1-.378-.087.676.676,0,0,1-.252-.2l-.8-1.1,4.552-3.869h2.094v13.033h2.683v1.91h-8.256Z"
          transform="translate(-627.937 -200.927)" fill="#e6e6e6"></path>
        <path id="Tracé_17520" data-name="Tracé 17520"
          d="M673.734,282.936a12.26,12.26,0,0,1-.417,3.39,6.948,6.948,0,0,1-1.158,2.38,4.655,4.655,0,0,1-1.743,1.4,5.145,5.145,0,0,1-2.172.459,5.074,5.074,0,0,1-2.163-.459,4.632,4.632,0,0,1-1.729-1.4,6.974,6.974,0,0,1-1.147-2.38,14.215,14.215,0,0,1,0-6.784,6.978,6.978,0,0,1,1.147-2.374,4.66,4.66,0,0,1,1.729-1.4,5.075,5.075,0,0,1,2.163-.459,5.146,5.146,0,0,1,2.172.459,4.684,4.684,0,0,1,1.743,1.4,6.952,6.952,0,0,1,1.158,2.374A12.249,12.249,0,0,1,673.734,282.936Zm-2.633,0a12.629,12.629,0,0,0-.236-2.683,5.485,5.485,0,0,0-.635-1.692,2.345,2.345,0,0,0-.913-.883,2.424,2.424,0,0,0-1.073-.252,2.383,2.383,0,0,0-1.06.252,2.309,2.309,0,0,0-.9.883,5.378,5.378,0,0,0-.626,1.692,15.652,15.652,0,0,0,0,5.366,5.377,5.377,0,0,0,.626,1.692,2.309,2.309,0,0,0,.9.883,2.382,2.382,0,0,0,1.06.252,2.423,2.423,0,0,0,1.073-.252,2.344,2.344,0,0,0,.913-.883,5.484,5.484,0,0,0,.635-1.692A12.628,12.628,0,0,0,671.1,282.936Z"
          transform="translate(-620.691 -201.009)" fill="#e6e6e6"></path>
        <path id="Tracé_17521" data-name="Tracé 17521"
          d="M679.853,282.936a12.263,12.263,0,0,1-.417,3.39,6.905,6.905,0,0,1-1.156,2.38,4.654,4.654,0,0,1-1.743,1.4,5.163,5.163,0,0,1-2.174.459,5.088,5.088,0,0,1-2.163-.459,4.642,4.642,0,0,1-1.727-1.4,6.934,6.934,0,0,1-1.147-2.38,14.141,14.141,0,0,1,0-6.784,6.937,6.937,0,0,1,1.147-2.374,4.671,4.671,0,0,1,1.727-1.4,5.089,5.089,0,0,1,2.163-.459,5.164,5.164,0,0,1,2.174.459,4.682,4.682,0,0,1,1.743,1.4,6.909,6.909,0,0,1,1.156,2.374A12.251,12.251,0,0,1,679.853,282.936Zm-2.63,0a12.606,12.606,0,0,0-.238-2.683,5.433,5.433,0,0,0-.633-1.692,2.335,2.335,0,0,0-.915-.883,2.425,2.425,0,0,0-1.073-.252,2.366,2.366,0,0,0-1.057.252,2.314,2.314,0,0,0-.9.883,5.377,5.377,0,0,0-.624,1.692,15.652,15.652,0,0,0,0,5.366,5.377,5.377,0,0,0,.624,1.692,2.313,2.313,0,0,0,.9.883,2.365,2.365,0,0,0,1.057.252,2.424,2.424,0,0,0,1.073-.252,2.334,2.334,0,0,0,.915-.883,5.433,5.433,0,0,0,.633-1.692A12.606,12.606,0,0,0,677.223,282.936Z"
          transform="translate(-612.777 -201.009)" fill="#e6e6e6"></path>
        <path id="Tracé_17522" data-name="Tracé 17522"
          d="M676.625,288.407h3.023v-8.7c0-.337.011-.693.032-1.064l-2.146,1.8a.774.774,0,0,1-.273.156.971.971,0,0,1-.273.039.806.806,0,0,1-.378-.087.675.675,0,0,1-.252-.2l-.805-1.1,4.55-3.869h2.1v13.033h2.683v1.91h-8.256Z"
          transform="translate(-604.192 -200.927)" fill="#e6e6e6"></path>
        <path id="Tracé_17523" data-name="Tracé 17523"
          d="M692.093,282.936a12.265,12.265,0,0,1-.417,3.39,6.984,6.984,0,0,1-1.156,2.38,4.66,4.66,0,0,1-1.745,1.4,5.145,5.145,0,0,1-2.172.459,5.089,5.089,0,0,1-2.163-.459,4.669,4.669,0,0,1-1.729-1.4,6.935,6.935,0,0,1-1.144-2.38,14.141,14.141,0,0,1,0-6.784,6.938,6.938,0,0,1,1.144-2.374,4.7,4.7,0,0,1,1.729-1.4,5.09,5.09,0,0,1,2.163-.459,5.145,5.145,0,0,1,2.172.459,4.689,4.689,0,0,1,1.745,1.4,6.988,6.988,0,0,1,1.156,2.374A12.254,12.254,0,0,1,692.093,282.936Zm-2.631,0a12.606,12.606,0,0,0-.238-2.683,5.363,5.363,0,0,0-.635-1.692,2.317,2.317,0,0,0-.913-.883,2.425,2.425,0,0,0-1.073-.252,2.365,2.365,0,0,0-1.057.252,2.3,2.3,0,0,0-.9.883,5.377,5.377,0,0,0-.624,1.692,15.652,15.652,0,0,0,0,5.366,5.377,5.377,0,0,0,.624,1.692,2.3,2.3,0,0,0,.9.883,2.364,2.364,0,0,0,1.057.252,2.424,2.424,0,0,0,1.073-.252,2.316,2.316,0,0,0,.913-.883,5.363,5.363,0,0,0,.635-1.692A12.606,12.606,0,0,0,689.462,282.936Z"
          transform="translate(-596.947 -201.009)" fill="#e6e6e6"></path>
        <path id="Tracé_17524" data-name="Tracé 17524"
          d="M698.213,282.936a12.27,12.27,0,0,1-.417,3.39,6.9,6.9,0,0,1-1.156,2.38,4.66,4.66,0,0,1-1.745,1.4,5.145,5.145,0,0,1-2.172.459,5.089,5.089,0,0,1-2.163-.459,4.667,4.667,0,0,1-1.729-1.4,6.975,6.975,0,0,1-1.144-2.38,14.141,14.141,0,0,1,0-6.784,6.979,6.979,0,0,1,1.144-2.374,4.7,4.7,0,0,1,1.729-1.4,5.09,5.09,0,0,1,2.163-.459,5.146,5.146,0,0,1,2.172.459,4.689,4.689,0,0,1,1.745,1.4,6.9,6.9,0,0,1,1.156,2.374A12.259,12.259,0,0,1,698.213,282.936Zm-2.63,0a12.612,12.612,0,0,0-.238-2.683,5.369,5.369,0,0,0-.635-1.692,2.316,2.316,0,0,0-.913-.883,2.425,2.425,0,0,0-1.073-.252,2.366,2.366,0,0,0-1.057.252,2.3,2.3,0,0,0-.9.883,5.386,5.386,0,0,0-.624,1.692,15.656,15.656,0,0,0,0,5.366,5.386,5.386,0,0,0,.624,1.692,2.3,2.3,0,0,0,.9.883,2.364,2.364,0,0,0,1.057.252,2.424,2.424,0,0,0,1.073-.252,2.315,2.315,0,0,0,.913-.883,5.369,5.369,0,0,0,.635-1.692A12.611,12.611,0,0,0,695.583,282.936Z"
          transform="translate(-589.033 -201.009)" fill="#e6e6e6"></path>
        <path id="Tracé_17525" data-name="Tracé 17525"
          d="M704.333,282.936a12.258,12.258,0,0,1-.417,3.39,6.943,6.943,0,0,1-1.158,2.38,4.637,4.637,0,0,1-1.743,1.4,5.145,5.145,0,0,1-2.172.459,5.089,5.089,0,0,1-2.162-.459,4.631,4.631,0,0,1-1.729-1.4,6.936,6.936,0,0,1-1.144-2.38,14.141,14.141,0,0,1,0-6.784,6.94,6.94,0,0,1,1.144-2.374,4.66,4.66,0,0,1,1.729-1.4,5.09,5.09,0,0,1,2.162-.459,5.146,5.146,0,0,1,2.172.459,4.665,4.665,0,0,1,1.743,1.4,6.947,6.947,0,0,1,1.158,2.374A12.247,12.247,0,0,1,704.333,282.936Zm-2.633,0a12.633,12.633,0,0,0-.236-2.683,5.426,5.426,0,0,0-.635-1.692,2.33,2.33,0,0,0-.913-.883,2.424,2.424,0,0,0-1.073-.252,2.383,2.383,0,0,0-1.06.252,2.31,2.31,0,0,0-.9.883,5.44,5.44,0,0,0-.626,1.692,15.652,15.652,0,0,0,0,5.366,5.44,5.44,0,0,0,.626,1.692,2.309,2.309,0,0,0,.9.883,2.382,2.382,0,0,0,1.06.252,2.423,2.423,0,0,0,1.073-.252,2.33,2.33,0,0,0,.913-.883,5.426,5.426,0,0,0,.635-1.692A12.632,12.632,0,0,0,701.7,282.936Z"
          transform="translate(-581.118 -201.009)" fill="#e6e6e6"></path>
        <path id="Tracé_17526" data-name="Tracé 17526"
          d="M710.453,282.936a12.258,12.258,0,0,1-.417,3.39,6.947,6.947,0,0,1-1.158,2.38,4.638,4.638,0,0,1-1.743,1.4,5.145,5.145,0,0,1-2.172.459,5.088,5.088,0,0,1-2.163-.459,4.666,4.666,0,0,1-1.729-1.4,6.933,6.933,0,0,1-1.144-2.38,14.141,14.141,0,0,1,0-6.784,6.936,6.936,0,0,1,1.144-2.374,4.7,4.7,0,0,1,1.729-1.4,5.089,5.089,0,0,1,2.163-.459,5.146,5.146,0,0,1,2.172.459,4.667,4.667,0,0,1,1.743,1.4,6.951,6.951,0,0,1,1.158,2.374A12.247,12.247,0,0,1,710.453,282.936Zm-2.63,0a12.61,12.61,0,0,0-.239-2.683,5.431,5.431,0,0,0-.635-1.692,2.331,2.331,0,0,0-.913-.883,2.424,2.424,0,0,0-1.073-.252,2.366,2.366,0,0,0-1.057.252,2.3,2.3,0,0,0-.9.883,5.384,5.384,0,0,0-.624,1.692,15.515,15.515,0,0,0,0,5.366,5.384,5.384,0,0,0,.624,1.692,2.3,2.3,0,0,0,.9.883,2.365,2.365,0,0,0,1.057.252,2.423,2.423,0,0,0,1.073-.252,2.33,2.33,0,0,0,.913-.883,5.431,5.431,0,0,0,.635-1.692A12.609,12.609,0,0,0,707.823,282.936Z"
          transform="translate(-573.203 -201.009)" fill="#e6e6e6"></path>
      </g>
      <path id="Tracé_17527" data-name="Tracé 17527"
        d="M731.132,294H658V258.222l36.565-9.47,36.565,9.47V294Z"
        transform="translate(-626.89 -235.357)" fill="#313566"></path>
      <path id="Tracé_17528" data-name="Tracé 17528"
        d="M701.372,379.087l-34.4-19.864a28.6,28.6,0,0,1-14.3-24.765v-70.17l48.7-12.9,48.7,12.9v70.17a28.6,28.6,0,0,1-14.3,24.765Z"
        transform="translate(-633.786 -231.945)" fill="#00aba9"></path>
      <path id="Tracé_17529" data-name="Tracé 17529"
        d="M698.341,254.537l-.266-.071-42.857,11.35v61.749A25.164,25.164,0,0,0,667.8,349.358l30.276,17.479.266-.154Z"
        transform="translate(-630.489 -227.967)" fill="#04bab1"></path>
      <g id="Groupe_1956" data-name="Groupe 1956" transform="translate(33.228 46.579)">
        <path id="Tracé_17530" data-name="Tracé 17530"
          d="M721.831,293.4a28.33,28.33,0,0,0-4.8-11.776l4.208-5.291-5.646-5.646-5.259,4.183a28.3,28.3,0,0,0-11.721-4.928l-.766-6.724h-7.985l-.761,6.68a28.333,28.333,0,0,0-11.776,4.8l-5.291-4.208-5.646,5.646,4.183,5.259a28.321,28.321,0,0,0-4.926,11.719l-6.726.768v7.985l6.68.759a28.332,28.332,0,0,0,4.8,11.776l-4.208,5.293,5.646,5.646,5.259-4.183a28.326,28.326,0,0,0,11.721,4.926l.766,6.724h7.985l.759-6.68a28.293,28.293,0,0,0,11.778-4.8l5.291,4.21,5.646-5.648-4.183-5.256a28.343,28.343,0,0,0,4.926-11.721l6.724-.766v-7.985Zm-28.113,26.783a22.173,22.173,0,1,1,22.174-22.171A22.172,22.172,0,0,1,693.718,320.187Z"
          transform="translate(-658.924 -263.222)" fill="#fff"></path>
        <path id="Tracé_17531" data-name="Tracé 17531"
          d="M677.417,290.349a1.842,1.842,0,0,1-1.307-.541l-6.375-6.375a1.853,1.853,0,0,1,2.619-2.621l5.064,5.066,10.32-10.32a1.853,1.853,0,0,1,2.619,2.621l-11.629,11.629A1.843,1.843,0,0,1,677.417,290.349Z"
          transform="translate(-645.646 -247.969)" fill="#313566"></path>
        <g id="Groupe_1955" data-name="Groupe 1955" transform="translate(4.543 4.801)">
          <ellipse id="Ellipse_87" data-name="Ellipse 87" cx="1.942" cy="1.942" rx="1.942"
            ry="1.942" transform="translate(0 28.05)" fill="#313566"></ellipse>
          <ellipse id="Ellipse_88" data-name="Ellipse 88" cx="1.942" cy="1.942" rx="1.942"
            ry="1.942" transform="translate(56.1 28.05)" fill="#313566"></ellipse>
          <ellipse id="Ellipse_89" data-name="Ellipse 89" cx="1.942" cy="1.942" rx="1.942"
            ry="1.942" transform="translate(28.05)" fill="#313566"></ellipse>
          <ellipse id="Ellipse_90" data-name="Ellipse 90" cx="1.942" cy="1.942" rx="1.942"
            ry="1.942" transform="translate(28.05 56.1)" fill="#313566"></ellipse>
          <ellipse id="Ellipse_91" data-name="Ellipse 91" cx="1.942" cy="1.942" rx="1.942"
            ry="1.942" transform="translate(8.216 8.216)" fill="#313566"></ellipse>
          <ellipse id="Ellipse_92" data-name="Ellipse 92" cx="1.942" cy="1.942" rx="1.942"
            ry="1.942" transform="translate(47.885 47.885)" fill="#313566"></ellipse>
          <ellipse id="Ellipse_93" data-name="Ellipse 93" cx="1.942" cy="1.942" rx="1.942"
            ry="1.942" transform="translate(47.885 8.216)" fill="#313566"></ellipse>
          <ellipse id="Ellipse_94" data-name="Ellipse 94" cx="1.942" cy="1.942" rx="1.942"
            ry="1.942" transform="translate(8.216 47.885)" fill="#313566"></ellipse>
        </g>
      </g>
      <line id="Ligne_2356" data-name="Ligne 2356" x1="22.623" y2="5.787"
        transform="translate(38.345 28.389)" fill="none" stroke="#fff" stroke-linecap="round"
        stroke-miterlimit="10" stroke-width="1.032"></line>
    </g>
  </g>
</svg>
