<svg xmlns="http://www.w3.org/2000/svg" xmlns:xlink="http://www.w3.org/1999/xlink"
  xmlns:svgjs="http://svgjs.com/svgjs" width="512" height="512" x="0" y="0" viewBox="0 0 512 512"
  style="enable-background:new 0 0 512 512" xml:space="preserve" class="">  <g>    <g>      <path d="m495.932 214.078h-31.641c-.536 0-.991-.391-1.106-.95-5.4-26.23-15.618-50.894-30.37-73.304-.316-.481-.272-1.082.108-1.461l22.379-22.378c6.263-6.265 6.263-16.459-.001-22.723l-36.564-36.564c-6.264-6.262-16.457-6.263-22.722 0l-22.377 22.377c-.381.38-.982.425-1.46.11-4.119-2.712-8.396-5.317-12.713-7.742-3.598-2.022-8.153-.743-10.174 2.855s-.743 8.153 2.855 10.173c4.012 2.253 7.986 4.674 11.815 7.196 6.369 4.19 14.882 3.338 20.243-2.025l22.377-22.377c.439-.438 1.152-.438 1.59 0l36.564 36.564c.438.438.438 1.151 0 1.589l-22.378 22.377c-5.363 5.363-6.214 13.877-2.024 20.245 13.707 20.822 23.199 43.734 28.216 68.101 1.536 7.463 8.157 12.88 15.742 12.88h31.641c.62 0 1.124.504 1.124 1.124v51.709c0 .62-.504 1.124-1.124 1.124h-31.641c-7.585 0-14.206 5.417-15.743 12.881-5.016 24.366-14.509 47.278-28.215 68.101-4.191 6.366-3.339 14.88 2.024 20.244l22.377 22.376c.439.439.439 1.152 0 1.59l-36.563 36.564c-.439.438-1.152.438-1.59 0l-22.377-22.377c-5.362-5.363-13.876-6.215-20.245-2.024-20.823 13.708-43.735 23.2-68.102 28.216-7.463 1.537-12.879 8.158-12.879 15.742v31.641c0 .62-.504 1.125-1.124 1.125h-51.709c-.62 0-1.124-.505-1.124-1.125v-31.642c0-7.584-5.417-14.205-12.881-15.742-24.364-5.015-47.277-14.508-68.102-28.217-6.367-4.189-14.881-3.339-20.243 2.025l-22.377 22.377c-.439.438-1.152.44-1.59 0l-36.564-36.564c-.271-.271-.329-.582-.329-.794 0-.213.057-.523.329-.795l22.378-22.377c5.364-5.364 6.214-13.878 2.023-20.245-13.707-20.822-23.199-43.734-28.215-68.101-1.536-7.463-8.157-12.88-15.742-12.88h-31.64c-.62 0-1.124-.504-1.124-1.124v-51.709c0-.62.504-1.124 1.124-1.124h31.641c7.585 0 14.206-5.417 15.743-12.881 5.015-24.366 14.508-47.278 28.214-68.1 4.192-6.366 3.341-14.881-2.023-20.245l-22.377-22.376c-.272-.272-.33-.583-.33-.796 0-.212.057-.522.329-.794l36.564-36.564c.439-.44 1.151-.44 1.59 0l22.377 22.377c5.362 5.362 13.874 6.215 20.244 2.024 20.823-13.708 43.736-23.2 68.102-28.216 7.463-1.537 12.88-8.158 12.88-15.742v-31.64c0-.62.504-1.124 1.124-1.124h51.709c.62 0 1.124.504 1.124 1.124v31.641c0 7.584 5.417 14.205 12.88 15.742 8.682 1.787 17.317 4.188 25.667 7.137 3.891 1.375 8.159-.665 9.534-4.556s-.665-8.16-4.556-9.533c-8.989-3.176-18.285-5.76-27.63-7.684-.559-.116-.951-.57-.951-1.106v-31.641c-.001-8.859-7.209-16.067-16.069-16.067h-51.709c-8.86 0-16.067 7.208-16.067 16.067v31.641c0 .536-.391.99-.95 1.106-26.229 5.398-50.892 15.616-73.304 30.369-.482.317-1.083.272-1.462-.108l-22.378-22.377c-6.264-6.263-16.458-6.262-22.722 0l-36.563 36.564c-3.035 3.034-4.707 7.07-4.707 11.361 0 4.292 1.671 8.327 4.706 11.362l22.378 22.377c.379.379.424.98.107 1.46-14.753 22.411-24.971 47.075-30.369 73.304-.115.56-.57.951-1.106.951h-31.64c-8.86.001-16.068 7.209-16.068 16.068v51.709c0 8.859 7.208 16.067 16.068 16.067h31.641c.536 0 .991.391 1.106.949 5.399 26.23 15.617 50.894 30.37 73.305.316.481.271 1.081-.108 1.46l-22.378 22.378c-3.034 3.034-4.706 7.07-4.706 11.361s1.671 8.327 4.706 11.361l36.564 36.564c6.265 6.263 16.458 6.264 22.723 0l22.377-22.377c.38-.381.981-.425 1.461-.109 22.413 14.754 47.076 24.972 73.304 30.37.56.116.951.57.951 1.106v31.641c0 8.86 7.208 16.068 16.067 16.068h51.709c8.86 0 16.068-7.208 16.068-16.068v-31.64c0-.536.391-.99.949-1.106 26.229-5.398 50.893-15.616 73.304-30.369.481-.316 1.083-.271 1.463.108l22.378 22.377c6.264 6.263 16.458 6.264 22.722 0l36.563-36.564c6.265-6.263 6.265-16.458.001-22.724l-22.378-22.377c-.38-.379-.424-.981-.108-1.46 14.752-22.411 24.971-47.075 30.37-73.304.115-.559.57-.95 1.106-.95h31.641c8.86 0 16.068-7.208 16.068-16.067v-51.709c-.002-8.859-7.21-16.067-16.07-16.067z" fill="#65D5C5" data-original="#000000"></path>      <path d="m89.205 256c0 91.972 74.824 166.795 166.795 166.795s166.795-74.824 166.795-166.795-74.824-166.796-166.795-166.796-166.795 74.824-166.795 166.796zm318.647 0c0 83.731-68.12 151.852-151.852 151.852-83.731 0-151.851-68.12-151.851-151.852s68.12-151.852 151.851-151.852 151.852 68.12 151.852 151.852z" fill="#65D5C5" data-original="#000000"></path>      <path d="m196.005 198.035c0 22.53 12.448 42.959 32.486 53.314.777.402 1.26 1.213 1.26 2.119v10.997c0 4.127 3.345 7.472 7.472 7.472 4.126 0 7.472-3.345 7.472-7.472v-10.997c0-6.517-3.58-12.417-9.344-15.395-15.052-7.778-24.402-23.12-24.402-40.038 0-12.488 5.253-24.526 14.41-33.027 9.284-8.618 21.402-12.842 34.112-11.895 22.228 1.657 40.063 19.69 41.485 41.948 1.145 17.905-8.395 34.787-24.304 43.01-5.765 2.98-9.347 8.88-9.347 15.397v96.262c0 .375-.167.723-.46.956l-10.081 8.061c-.449.359-1.079.361-1.529 0l-10.082-8.062c-.291-.232-.459-.581-.459-.955v-9.586c0-1.248.862-2.38 1.88-2.472 7.466-.673 13.097-6.837 13.097-14.34v-5.937c0-7.924-6.461-14.383-14.404-14.399-.065 0-.117-.003-.159-.007-.146-.262-.414-.969-.414-2.188v-1.821c0-4.127-3.345-7.472-7.472-7.472s-7.472 3.345-7.472 7.472v1.821c0 9.883 6.132 16.855 14.977 17.129v4.912c-8.438 1.028-14.977 8.528-14.977 17.302v9.586c0 4.94 2.213 9.543 6.07 12.627l10.081 8.062c2.973 2.377 6.535 3.565 10.097 3.565 3.563 0 7.125-1.189 10.098-3.565l10.081-8.062c3.857-3.085 6.07-7.687 6.07-12.627v-96.262c0-.906.485-1.719 1.265-2.122 21.178-10.947 33.878-33.415 32.355-57.239-1.896-29.658-25.664-53.689-55.288-55.897-16.904-1.26-33.025 4.367-45.389 15.844-12.191 11.32-19.185 27.351-19.185 43.981z" fill="#65D5C5" data-original="#000000"></path>      <path d="m263.472 183.713c0-4.126-3.345-7.472-7.472-7.472s-7.472 3.345-7.472 7.472 3.345 7.472 7.472 7.472 7.472-3.346 7.472-7.472z" fill="#65D5C5" data-original="#000000"></path>    </g>  </g></svg>
