<svg xmlns="http://www.w3.org/2000/svg" xmlns:xlink="http://www.w3.org/1999/xlink"
  xmlns:svgjs="http://svgjs.com/svgjs" width="512" height="512" x="0" y="0" viewBox="0 0 60 60"
  style="enable-background:new 0 0 512 512" xml:space="preserve" class="">  <g>    <g id="Page-1" fill="none" fill-rule="evenodd">      <g id="010---Secure-Password" fill="rgb(0,0,0)" fill-rule="nonzero">        <path id="Shape" d="m3 49h5v6c.00330612 2.7600532 2.2399468 4.9966939 5 5h34c2.7600532-.0033061 4.9966939-2.2399468 5-5v-6h5c1.6568542 0 3-1.3431458 3-3v-10c0-1.6568542-1.3431458-3-3-3h-5v-6c-.0033061-2.7600532-2.2399468-4.9966939-5-5v-5c0-9.38884075-7.6111593-17-17-17s-17 7.61115925-17 17v5c-2.7600532.0033061-4.99669388 2.2399468-5 5v6h-5c-1.65685425 0-3 1.3431458-3 3v10c0 1.6568542 1.34314575 3 3 3zm47 6c0 1.6568542-1.3431458 3-3 3h-34c-1.6568542 0-3-1.3431458-3-3v-6h40zm-35-38c0-8.28427125 6.7157288-15 15-15s15 6.71572875 15 15v5h-4v-5c0-6.0751322-4.9248678-11-11-11s-11 4.9248678-11 11v5h-4zm6 5v-5c0-4.9705627 4.0294373-9 9-9s9 4.0294373 9 9v5zm-11 5c0-1.6568542 1.3431458-3 3-3h34c1.6568542 0 3 1.3431458 3 3v6h-40zm-8 9c0-.5522847.44771525-1 1-1h54c.5522847 0 1 .4477153 1 1v10c0 .5522847-.4477153 1-1 1h-54c-.55228475 0-1-.4477153-1-1z" fill="#00aba9" data-original="#000000" class=""></path>        <path id="Shape" d="m4.168 43.555c.1471733.2206869.37599843.3738581.63612132.4258077.26012289.0519495.53022847-.0015795.75087868-.1488077l1.445-.964v1.132c0 .5522847.44771525 1 1 1s1-.4477153 1-1v-1.132l1.445.964c.297245.1982824.6776931.2229246.9980332.0646441s.5319049-.4754371.555-.832-.1457882-.6983617-.4430332-.8966441l-1.755-1.168 1.752-1.168c.297245-.1982824.4661283-.5400812.4430332-.8966441s-.2346599-.6737195-.555-.832-.7007882-.1336383-.9980332.0646441l-1.442.964v-1.132c0-.5522847-.44771525-1-1-1s-1 .4477153-1 1v1.132l-1.445-.964c-.45950091-.306518-1.08048193-.1825009-1.38699996.277s-.18250092 1.080482.27699996 1.387l1.755 1.168-1.755 1.168c-.22068687.1471733-.37385812.3759984-.42580768.6361213s.00157944.5302285.14880768.7508787z" fill="#00aba9" data-original="#000000" class=""></path>        <path id="Shape" d="m15.168 43.555c.1471733.2206869.3759984.3738581.6361213.4258077.2601229.0519495.5302285-.0015795.7508787-.1488077l1.445-.964v1.132c0 .5522847.4477153 1 1 1s1-.4477153 1-1v-1.132l1.445.964c.297245.1982824.6776931.2229246.9980332.0646441s.5319049-.4754371.555-.832-.1457882-.6983617-.4430332-.8966441l-1.755-1.168 1.752-1.168c.297245-.1982824.4661283-.5400812.4430332-.8966441s-.2346599-.6737196-.555-.832c-.3203401-.1582805-.7007882-.1336383-.9980332.0646441l-1.442.964v-1.132c0-.5522847-.4477153-1-1-1s-1 .4477153-1 1v1.132l-1.445-.964c-.4595009-.306518-1.0804819-.1825009-1.387.277-.306518.4595009-.1825009 1.080482.277 1.387l1.755 1.168-1.752 1.168c-.2211743.1467018-.3749585.3753094-.4274774.6354656s.0005358.5305193.1474774.7515344z" fill="#00aba9" data-original="#000000" class=""></path>        <path id="Shape" d="m37.168 43.555c.1471733.2206869.3759984.3738581.6361213.4258077.2601229.0519495.5302285-.0015795.7508787-.1488077l1.445-.964v1.132c0 .5522847.4477153 1 1 1s1-.4477153 1-1v-1.132l1.445.964c.297245.1982824.6776931.2229246.9980332.0646441.32034-.1582805.5319049-.4754371.555-.832s-.1457882-.6983617-.4430332-.8966441l-1.755-1.168 1.752-1.168c.297245-.1982824.4661283-.5400812.4430332-.8966441s-.23466-.6737195-.555-.832c-.3203401-.1582805-.7007882-.1336383-.9980332.0646441l-1.442.964v-1.132c0-.5522847-.4477153-1-1-1s-1 .4477153-1 1v1.132l-1.445-.964c-.4595009-.306518-1.0804819-.1825009-1.3869999.277-.3065181.4595009-.182501 1.0804819.2769999 1.387l1.755 1.168-1.752 1.168c-.2211743.1467018-.3749585.3753094-.4274774.6354656s.0005358.5305193.1474774.7515344z" fill="#00aba9" data-original="#000000" class=""></path>        <path id="Shape" d="m26.168 43.555c.1471733.2206869.3759984.3738581.6361213.4258077.2601229.0519495.5302285-.0015795.7508787-.1488077l1.445-.964v1.132c0 .5522847.4477153 1 1 1s1-.4477153 1-1v-1.132l1.445.964c.297245.1982824.6776931.2229246.9980332.0646441.3203401-.1582804.5319049-.4754371.555-.832s-.1457882-.6983617-.4430332-.8966441l-1.755-1.168 1.752-1.168c.297245-.1982824.4661283-.5400812.4430332-.8966441s-.2346599-.6737196-.555-.832c-.3203401-.1582805-.7007882-.1336383-.9980332.0646441l-1.442.964v-1.132c0-.5522847-.4477153-1-1-1s-1 .4477153-1 1v1.132l-1.445-.964c-.4595009-.306518-1.0804819-.1825009-1.387.277-.306518.4595009-.1825009 1.080482.277 1.387l1.755 1.168-1.752 1.168c-.2211743.1467018-.3749585.3753094-.4274774.6354656s.0005358.5305193.1474774.7515344z" fill="#00aba9" data-original="#000000" class=""></path>        <path id="Shape" d="m16 26h-3c-.5522847 0-1 .4477153-1 1v3c0 .5522847.4477153 1 1 1s1-.4477153 1-1v-2h2c.5522847 0 1-.4477153 1-1s-.4477153-1-1-1z" fill="#00aba9" data-original="#000000" class=""></path>        <path id="Shape" d="m49 45h6c.5522847 0 1-.4477153 1-1s-.4477153-1-1-1h-6c-.5522847 0-1 .4477153-1 1s.4477153 1 1 1z" fill="#00aba9" data-original="#000000" class=""></path>      </g>    </g>  </g></svg>
