<svg xmlns="http://www.w3.org/2000/svg" xmlns:xlink="http://www.w3.org/1999/xlink"
  xmlns:svgjs="http://svgjs.com/svgjs" width="512" height="512" x="0" y="0" viewBox="0 0 128 128"
  style="enable-background:new 0 0 512 512" xml:space="preserve" class="">  <g>    <path d="M121.11,0H50.89A6.9,6.9,0,0,0,44,6.89V29.11A6.9,6.9,0,0,0,50.89,36h70.22A6.9,6.9,0,0,0,128,29.11V6.89A6.9,6.9,0,0,0,121.11,0ZM124,29.11A2.9,2.9,0,0,1,121.11,32H50.89A2.9,2.9,0,0,1,48,29.11V6.89A2.9,2.9,0,0,1,50.89,4h70.22A2.9,2.9,0,0,1,124,6.89Z" fill="#65D5C5" data-original="#000000"></path>    <path d="M73.09,100.59,62.5,111.17l-7.59-7.58a2,2,0,0,0-2.82,2.82l9,9a2,2,0,0,0,2.82,0l12-12a2,2,0,0,0-2.82-2.82Z" fill="#65D5C5" data-original="#000000"></path>    <path d="M108,88H20a20,20,0,0,0,0,40h88a20,20,0,0,0,0-40Zm0,36H20a16,16,0,0,1,0-32h88a16,16,0,0,1,0,32Z" fill="#65D5C5" data-original="#000000"></path>    <path d="M9.53,71.65a9.54,9.54,0,0,0,9.31-7.53h5v3a2,2,0,0,0,4,0v-3h1v5.53a2,2,0,0,0,4,0V64.12H34a2,2,0,0,0,0-4H18.84A9.53,9.53,0,1,0,9.53,71.65Zm0-15.06A5.53,5.53,0,1,1,4,62.12,5.54,5.54,0,0,1,9.53,56.59Z" fill="#65D5C5" data-original="#000000"></path>    <path d="M18,36A18,18,0,1,0,0,18,18,18,0,0,0,18,36ZM9.92,29.41a8.12,8.12,0,0,1,16.16,0,13.9,13.9,0,0,1-16.16,0ZM14.39,14.5A3.61,3.61,0,1,1,18,18.11,3.61,3.61,0,0,1,14.39,14.5ZM18,4A14,14,0,0,1,29.39,26.11a12.21,12.21,0,0,0-5.7-6.58,7.61,7.61,0,1,0-11.38,0,12.21,12.21,0,0,0-5.7,6.58A14,14,0,0,1,18,4Z" fill="#65D5C5" data-original="#000000"></path>    <path d="M70,60H65.46l2.27-3.93a2,2,0,0,0-3.46-2L62,58l-2.27-3.93a2,2,0,1,0-3.46,2L58.54,60H54a2,2,0,0,0,0,4h4.54l-2.27,3.93a2,2,0,1,0,3.46,2L62,66l2.27,3.93a2,2,0,1,0,3.46-2L65.46,64H70a2,2,0,0,0,0-4Z" fill="#65D5C5" data-original="#000000"></path>    <path d="M94,60H89.46l2.27-3.93a2,2,0,0,0-3.46-2L86,58l-2.27-3.93a2,2,0,1,0-3.46,2L82.54,60H78a2,2,0,0,0,0,4h4.54l-2.27,3.93a2,2,0,1,0,3.46,2L86,66l2.27,3.93a2,2,0,1,0,3.46-2L89.46,64H94a2,2,0,0,0,0-4Z" fill="#65D5C5" data-original="#000000"></path>    <path d="M118,60h-4.54l2.27-3.93a2,2,0,0,0-3.46-2L110,58l-2.27-3.93a2,2,0,1,0-3.46,2L106.54,60H102a2,2,0,0,0,0,4h4.54l-2.27,3.93a2,2,0,1,0,3.46,2L110,66l2.27,3.93a2,2,0,1,0,3.46-2L113.46,64H118a2,2,0,0,0,0-4Z" fill="#65D5C5" data-original="#000000"></path>    <path d="M114,16H58a2,2,0,0,0,0,4h56a2,2,0,0,0,0-4Z" fill="#65D5C5" data-original="#000000"></path>    <path d="M121.11,44H50.89A6.9,6.9,0,0,0,44,50.89V73.11A6.9,6.9,0,0,0,50.89,80h70.22A6.9,6.9,0,0,0,128,73.11V50.89A6.9,6.9,0,0,0,121.11,44ZM124,73.11A2.9,2.9,0,0,1,121.11,76H50.89A2.9,2.9,0,0,1,48,73.11V50.89A2.9,2.9,0,0,1,50.89,48h70.22A2.9,2.9,0,0,1,124,50.89Z" fill="#65D5C5" data-original="#000000"></path>  </g></svg>
