<svg xmlns="http://www.w3.org/2000/svg" xmlns:xlink="http://www.w3.org/1999/xlink"
  xmlns:svgjs="http://svgjs.com/svgjs" width="512" height="512" x="0" y="0" viewBox="0 0 64 64"
  style="enable-background:new 0 0 512 512" xml:space="preserve" class="">  <g>    <path d="m16 23.895c-2.757 0-5 2.243-5 5s2.243 5 5 5 5-2.243 5-5-2.243-5-5-5zm0 8c-1.654 0-3-1.346-3-3s1.346-3 3-3 3 1.346 3 3-1.346 3-3 3z" fill="#00aba9" data-original="#000000"></path>    <path d="m48 17.895c2.757 0 5-2.243 5-5s-2.243-5-5-5-5 2.243-5 5 2.243 5 5 5zm0-8c1.654 0 3 1.346 3 3s-1.346 3-3 3-3-1.346-3-3 1.346-3 3-3z" fill="#00aba9" data-original="#000000"></path>    <path d="m48 34.001c-5.527 0-10.302 3.227-12.577 7.889l-6.882-3.708c.925-1.868 1.458-3.962 1.458-6.183s-.534-4.316-1.458-6.183l6.881-3.707c2.274 4.663 7.05 7.891 12.577 7.891 7.72 0 14-6.28 14-14s-6.279-14.001-13.999-14.001-14 6.28-14 14c0 1.481.235 2.906.663 4.247l-7.126 3.839c-2.526-3.671-6.753-6.086-11.537-6.086-7.72 0-14 6.28-14 14s6.28 14 14 14c4.784 0 9.011-2.415 11.537-6.086l7.126 3.84c-.428 1.341-.663 2.767-.663 4.248 0 7.72 6.28 14 14 14s14-6.28 14-14-6.28-14-14-14zm0-6.002c-2.023 0-3.928-.508-5.602-1.396.216-2.724 2.476-4.882 5.255-4.882 2.888 0 5.234 2.325 5.287 5.201-1.509.685-3.178 1.077-4.94 1.077zm0-24c6.617 0 12 5.383 12 12 0 4.072-2.043 7.672-5.154 9.842-.566-3.464-3.571-6.119-7.193-6.119-3.462 0-6.362 2.426-7.106 5.665-2.766-2.2-4.547-5.587-4.547-9.388 0-6.617 5.383-12 12-12zm-32 40c-2.023 0-3.928-.508-5.602-1.396.216-2.724 2.476-4.882 5.255-4.882 2.888 0 5.234 2.325 5.287 5.201-1.509.685-3.178 1.077-4.94 1.077zm6.846-2.158c-.566-3.464-3.571-6.119-7.193-6.119-3.462 0-6.362 2.426-7.106 5.665-2.766-2.2-4.547-5.587-4.547-9.388 0-6.617 5.383-12 12-12s12 5.383 12 12c0 4.072-2.043 7.672-5.154 9.842zm25.154 18.16c-2.023 0-3.928-.508-5.602-1.396.216-2.724 2.476-4.882 5.255-4.882 2.888 0 5.234 2.325 5.287 5.201-1.509.685-3.178 1.077-4.94 1.077zm6.846-2.158c-.566-3.464-3.571-6.119-7.193-6.119-3.462 0-6.362 2.426-7.106 5.665-2.766-2.2-4.547-5.587-4.547-9.388 0-6.617 5.383-12 12-12s12 5.383 12 12c0 4.072-2.043 7.671-5.154 9.842z" fill="#00aba9" data-original="#000000"></path>    <path d="m48 39.897c-2.757 0-5 2.243-5 5s2.243 5 5 5 5-2.243 5-5-2.243-5-5-5zm0 8c-1.654 0-3-1.346-3-3s1.346-3 3-3 3 1.346 3 3-1.346 3-3 3z" fill="#00aba9" data-original="#000000"></path>  </g></svg>
