<svg xmlns="http://www.w3.org/2000/svg" xmlns:xlink="http://www.w3.org/1999/xlink" x="0px" y="0px" viewBox="0 0 55 55" style="enable-background:new 0 0 55 55;" xml:space="preserve"><style type="text/css">	.st0{opacity:0.1;fill:#00ABA9;enable-background:new    ;}	.st1{fill:#2665B5;}</style><g id="Calque_1"></g><g id="Calque_2">	<g id="Bullet-COCHE" transform="translate(30 20)">		<g transform="matrix(1, 0, 0, 1, -30, -20)">			<path id="Bullet-2" class="st0" d="M27.13,0h1c14.91,0,27,12.09,27,27v1c0,14.91-12.09,27-27,27h-1c-14.91,0-27-12.09-27-27v-1     C0.13,12.09,12.22,0,27.13,0z"></path>		</g>		<path id="coche" class="st1" d="M-5.54,16.55c-0.49,0.49-1.27,0.49-1.76,0c0,0,0,0,0,0l-7.02-7.02c-0.73-0.73-0.73-1.91,0-2.64    c0,0,0,0,0,0l0.88-0.88c0.73-0.73,1.91-0.73,2.64,0c0,0,0,0,0,0l4.38,4.39L5.42-1.45c0.73-0.73,1.91-0.73,2.64,0c0,0,0,0,0,0    l0.88,0.88c0.73,0.73,0.73,1.91,0,2.64c0,0,0,0,0,0L-5.54,16.55z"></path>	</g></g></svg>